<?xml version="1.0" standalone="no"?>
<!DOCTYPE svg PUBLIC "-//W3C//DTD SVG 1.1//EN" "http://www.w3.org/Graphics/SVG/1.1/DTD/svg11.dtd" >
<svg>
<metadata>
Created by FontForge 20090622 at Tue Oct 18 17:16:36 2016
 By deploy user
Copyright &#194;&#169; 2014 by Type Dynamic. All rights reserved.
</metadata>
<defs>
<font id="Sailec-LightItalic" horiz-adv-x="246" >
  <font-face 
    font-family="Sailec Light"
    font-weight="300"
    font-style="italic"
    font-stretch="normal"
    units-per-em="1000"
    panose-1="0 0 4 0 0 0 0 0 0 0"
    ascent="750"
    descent="-250"
    x-height="506"
    cap-height="748"
    bbox="-250 -269 1281 1055"
    underline-thickness="50"
    underline-position="-50"
    slope="-10"
    unicode-range="U+000D-U+FB02"
  />
<missing-glyph horiz-adv-x="687" 
d="M554 0h-510l132 748h510zM244 707l127 -295l233 295h-360zM100 72l239 302l-131 302zM393 374l130 -298l106 596zM129 42h360l-128 294z" />
    <glyph glyph-name="fi" unicode="fi" horiz-adv-x="570" 
d="M370 781q24 0 35 -4l-9 -48q-6 2 -23 2q-54 0 -90 -32.5t-46 -91.5l-19 -101h136l-8 -49h-136l-81 -457h-56l81 457h-103l8 49h103l19 104q14 81 65 126t124 45zM528 740q19 0 29.5 -13t7.5 -31q-2 -16 -14.5 -27.5t-28.5 -11.5q-19 0 -29.5 13t-7.5 32q2 16 15 27t28 11
zM430 0h-56l90 506h56z" />
    <glyph glyph-name="f_j" unicode="fj" horiz-adv-x="570" 
d="M370 781q24 0 35 -4l-9 -48q-6 2 -23 2q-54 0 -90 -32.5t-46 -91.5l-19 -101h136l-8 -49h-136l-81 -457h-56l81 457h-103l8 49h103l19 104q14 81 65 126t124 45zM528 740q19 0 29.5 -13t7.5 -31q-2 -16 -14.5 -27.5t-28.5 -11.5q-19 0 -29.5 13t-7.5 32q2 16 14.5 27
t28.5 11zM521 506l-105 -596q-15 -82 -63 -125.5t-118 -43.5q-21 0 -36 3l9 48q16 -2 24 -2q51 0 84.5 31t43.5 91l105 594h56z" />
    <glyph glyph-name=".notdef" horiz-adv-x="687" 
d="M554 0h-510l132 748h510zM244 707l127 -295l233 295h-360zM100 72l239 302l-131 302zM393 374l130 -298l106 596zM129 42h360l-128 294z" />
    <glyph glyph-name=".null" horiz-adv-x="0" 
 />
    <glyph glyph-name="nonmarkingreturn" horiz-adv-x="333" 
 />
    <glyph glyph-name="CR" unicode="&#xd;" horiz-adv-x="600" 
 />
    <glyph glyph-name="space" unicode=" " horiz-adv-x="245" 
 />
    <glyph glyph-name="exclam" unicode="!" horiz-adv-x="257" 
d="M147 189h-59l95 559h65zM93 79q21 0 32.5 -14t8.5 -34q-4 -17 -17.5 -28.5t-29.5 -11.5q-21 0 -32.5 14t-7.5 34q3 16 16.5 28t29.5 12z" />
    <glyph glyph-name="quotedbl" unicode="&#x22;" horiz-adv-x="288" 
d="M150 532h-48l27 204h66zM278 532h-49l28 204h65z" />
    <glyph glyph-name="numbersign" unicode="#" horiz-adv-x="619" 
d="M529 531h130l-19 -46h-130l-92 -222h138l-19 -46h-138l-90 -217h-47l90 217h-172l-91 -217h-47l91 217h-130l19 46h129l93 222h-138l18 46h138l90 217h48l-91 -217h173l90 217h48zM291 485l-92 -222h172l92 222h-172z" />
    <glyph glyph-name="dollar" unicode="$" horiz-adv-x="652" 
d="M621 561l-60 -3q4 70 -40 108.5t-123 38.5q-93 0 -148 -43t-64 -109q-5 -31 2.5 -54t19 -36.5t40 -26t49 -18l63.5 -16.5q136 -30 191.5 -72t42.5 -135q-14 -101 -93 -152.5t-191 -51.5h-1l-19 -109h-48l20 112q-98 11 -154.5 64t-49.5 138l60 3q-5 -71 49 -113.5
t142 -42.5q91 0 152.5 39t72.5 117q5 30 -3 53t-20 36.5t-44 26.5t-54.5 19.5t-71.5 18.5q-47 11 -76 19.5t-62 25t-49 36t-25 51.5t-3 73q13 86 83.5 142.5t187.5 56.5l19 108h47l-19 -111q87 -11 135.5 -61.5t41.5 -131.5z" />
    <glyph glyph-name="percent" unicode="%" horiz-adv-x="813" 
d="M283 757q71 0 107.5 -48t22.5 -128q-14 -78 -64.5 -124t-117.5 -46q-70 0 -107 48t-22 129q13 77 64 123t117 46zM116 0h-56l678 748h56zM282 716q-51 0 -90 -36.5t-49 -98.5q-10 -59 16 -94.5t74 -35.5q51 0 89.5 37t48.5 99q10 60 -15 94.5t-74 34.5zM624 337
q71 0 107.5 -47.5t21.5 -128.5q-14 -78 -64.5 -124t-116.5 -46q-70 0 -107.5 48.5t-23.5 128.5q15 78 66 123.5t117 45.5zM622 297q-51 0 -89.5 -36t-49.5 -99q-11 -59 15.5 -94.5t75.5 -35.5q51 0 89 36.5t48 99.5q11 59 -14.5 94t-74.5 35z" />
    <glyph glyph-name="ampersand" unicode="&#x26;" horiz-adv-x="685" 
d="M602 386l51 -17q-59 -131 -126 -215l110 -121l-36 -42l-109 122q-117 -121 -253 -121q-112 0 -165 58.5t-38 151.5q23 133 177 224q-55 76 -42 156q14 85 71.5 130t140.5 45q77 0 122 -42.5t43 -115.5h-57q1 51 -27.5 80t-79.5 29q-60 0 -102 -34t-54 -98q-6 -36 5.5 -70
t27 -54.5t52.5 -62.5l178 -196q59 76 111 193zM239 43q118 0 218 109l-183 203l-30 34q-63 -37 -100.5 -82t-47.5 -107q-12 -71 26 -114t117 -43z" />
    <glyph glyph-name="quotesingle" unicode="'" horiz-adv-x="160" 
d="M153 532h-49l28 204h65z" />
    <glyph glyph-name="parenleft" unicode="(" horiz-adv-x="234" 
d="M246 725l47 -20q-145 -175 -184 -389q-37 -210 46 -382l-49 -16q-92 180 -50 406q20 115 71.5 219.5t118.5 181.5z" />
    <glyph glyph-name="parenright" unicode=")" horiz-adv-x="234" 
d="M103 707l50 16q90 -180 51 -407q-40 -225 -192 -401l-46 21q146 176 183 388q38 211 -46 383z" />
    <glyph glyph-name="asterisk" unicode="*" horiz-adv-x="315" 
d="M239 628l125 40l6 -32l-126 -38l57 -100l-30 -21l-54 102l-92 -103l-25 22l91 100l-112 38l16 32l112 -40l22 125h33z" />
    <glyph glyph-name="plus" unicode="+" horiz-adv-x="546" 
d="M325 395h212l-10 -51h-212l-37 -216h-55l38 216h-212l10 51h211l37 209h55z" />
    <glyph glyph-name="comma" unicode="," horiz-adv-x="181" 
d="M55 78q22 0 32 -15t5 -40q-20 -110 -119 -166l1 29q58 42 74 106q-19 1 -29.5 14.5t-6.5 32.5q3 16 15.5 27.5t27.5 11.5z" />
    <glyph glyph-name="hyphen" unicode="-" horiz-adv-x="401" 
d="M353 235h-311l10 53h311z" />
    <glyph glyph-name="period" unicode="." horiz-adv-x="184" 
d="M57 79q20 0 32 -14t8 -34q-3 -17 -17 -28.5t-30 -11.5q-20 0 -32 14t-8 34q3 17 17 28.5t30 11.5z" />
    <glyph glyph-name="slash" unicode="/" horiz-adv-x="337" 
d="M16 -67h-61l400 815h59z" />
    <glyph glyph-name="zero" unicode="0" horiz-adv-x="641" 
d="M396 757q124 0 179.5 -101t27.5 -286q-28 -181 -111.5 -280t-203.5 -99q-125 0 -180.5 101t-26.5 286q27 181 110.5 280t204.5 99zM396 704q-99 0 -165 -85t-91 -248q-25 -158 14.5 -242.5t134.5 -84.5q99 0 165 85t91 248q25 158 -14.5 242.5t-134.5 84.5z" />
    <glyph glyph-name="one" unicode="1" horiz-adv-x="361" 
d="M218 0h-59l118 665l-171 -119l-27 45l226 157h45z" />
    <glyph glyph-name="two" unicode="2" horiz-adv-x="533" 
d="M361 757q98 0 143.5 -58.5t28.5 -154.5q-15 -87 -63 -152.5t-140 -145.5l-222 -193h349l-9 -53h-433l8 45l265 233q86 75 129.5 135t56.5 135q12 70 -18 113t-100 43q-76 0 -125 -45.5t-66 -127.5l-58 3q20 107 86 165t168 58z" />
    <glyph glyph-name="three" unicode="3" horiz-adv-x="551" 
d="M352 757q98 0 146 -54.5t32 -147.5q-11 -63 -51.5 -107.5t-93.5 -61.5q56 -13 88.5 -60.5t20.5 -123.5q-16 -97 -85.5 -154t-168.5 -57q-106 0 -157 58t-43 159l58 -1q-6 -78 31 -120.5t113 -42.5q77 0 129 44t65 120q12 74 -28.5 113.5t-118.5 39.5h-73l10 52h69
q65 0 115.5 40.5t61.5 106.5q10 67 -23 105.5t-100 38.5q-70 0 -118 -41.5t-65 -116.5l-58 7q22 97 85.5 150.5t158.5 53.5z" />
    <glyph glyph-name="four" unicode="4" horiz-adv-x="592" 
d="M424 254h142l-9 -53h-143l-35 -201h-56l36 201h-342l9 48l438 499h47zM95 254h273l69 386z" />
    <glyph glyph-name="five" unicode="5" horiz-adv-x="554" 
d="M212 696l-50 -289q67 44 146 44q101 0 154.5 -63t35.5 -168q-15 -102 -84 -165.5t-174 -63.5q-103 0 -154.5 56.5t-44.5 155.5l58 2q-6 -75 31.5 -118t112.5 -43q81 0 133 50.5t64 130.5q13 77 -25 125t-112 48q-75 0 -155 -54h-57l72 404h400l-10 -52h-341z" />
    <glyph glyph-name="six" unicode="6" horiz-adv-x="584" 
d="M321 469q107 0 168 -67t44 -176q-15 -106 -92 -170.5t-179 -64.5q-108 0 -169.5 66.5t-44.5 176.5q14 89 69 149l350 365h73l-269 -284q27 5 50 5zM475 232q13 87 -31 137t-122 50q-93 0 -156 -65q-47 -49 -59 -124q-12 -86 31.5 -136t122.5 -50q81 0 141 52t73 136z" />
    <glyph glyph-name="seven" unicode="7" horiz-adv-x="539" 
d="M596 700l-504 -700h-68l502 696h-424l11 52h492z" />
    <glyph glyph-name="eight" unicode="8" horiz-adv-x="591" 
d="M372 757q96 0 150.5 -53.5t40.5 -145.5q-10 -62 -50 -104.5t-96 -63.5q55 -18 85.5 -69t19.5 -123q-15 -95 -88 -151t-173 -56q-103 0 -161.5 58.5t-43.5 157.5q11 70 55.5 117.5t109.5 69.5q-47 18 -74.5 63t-17.5 108q15 89 82.5 140.5t160.5 51.5zM370 704
q-71 0 -122 -40t-60 -107q-10 -65 28 -103t106 -38q69 0 120.5 39.5t61.5 105.5q10 65 -28 104t-106 39zM317 365q-78 0 -134.5 -44.5t-67.5 -119.5q-11 -71 31 -114t116 -43q78 0 134.5 44.5t68.5 118.5q10 72 -32 115t-116 43z" />
    <glyph glyph-name="nine" unicode="9" horiz-adv-x="584" 
d="M366 757q108 0 169.5 -66.5t44.5 -176.5q-14 -89 -69 -149l-350 -365h-73l269 284q-27 -5 -50 -5q-107 0 -168 67t-44 176q15 106 92 170.5t179 64.5zM521 518q12 86 -31.5 136t-122.5 50q-81 0 -141 -52t-73 -136q-13 -87 31 -137t122 -50q93 0 156 65q47 49 59 124z
" />
    <glyph glyph-name="colon" unicode=":" horiz-adv-x="184" 
d="M133 515q21 0 32.5 -14t8.5 -35q-4 -17 -17.5 -28.5t-29.5 -11.5q-21 0 -32.5 14.5t-7.5 34.5q3 16 16.5 28t29.5 12zM56 79q21 0 32.5 -14t8.5 -34q-4 -17 -17.5 -28.5t-29.5 -11.5q-21 0 -32.5 14t-7.5 34q3 17 16.5 28.5t29.5 11.5z" />
    <glyph glyph-name="semicolon" unicode=";" horiz-adv-x="184" 
d="M133 515q21 0 32.5 -14t8.5 -35q-4 -17 -17.5 -28.5t-29.5 -11.5q-21 0 -32.5 14.5t-7.5 34.5q3 16 16.5 28t29.5 12zM59 78q22 0 31.5 -15t4.5 -40q-20 -110 -119 -166l1 29q58 42 74 106q-18 1 -29 14.5t-7 32.5q3 16 15.5 27.5t28.5 11.5z" />
    <glyph glyph-name="less" unicode="&#x3c;" horiz-adv-x="508" 
d="M523 521l-363 -152l308 -152l-12 -62l-409 214l484 214z" />
    <glyph glyph-name="equal" unicode="=" horiz-adv-x="546" 
d="M548 459h-478l9 53h479zM506 222h-478l10 53h478z" />
    <glyph glyph-name="greater" unicode="&#x3e;" horiz-adv-x="508" 
d="M502 369l-483 -214l8 62l363 152l-308 152l12 62z" />
    <glyph glyph-name="question" unicode="?" horiz-adv-x="485" 
d="M326 758q105 0 154.5 -60t33.5 -154q-11 -62 -43.5 -101t-94.5 -78q-58 -39 -82.5 -70.5t-34.5 -81.5l-4 -24h-58l4 28q10 55 37.5 94.5t86.5 79.5q60 38 90 71.5t39 87.5q12 67 -22.5 111t-108.5 44q-148 0 -192 -144l-57 6q23 89 89.5 140t162.5 51zM200 79
q21 0 32.5 -14t8.5 -34q-4 -17 -17.5 -28.5t-29.5 -11.5q-21 0 -32.5 14t-7.5 34q3 17 16.5 28.5t29.5 11.5z" />
    <glyph glyph-name="at" unicode="@" horiz-adv-x="789" 
d="M437 600q157 0 244.5 -102t65.5 -256q-14 -92 -55.5 -144t-103.5 -52q-74 0 -80 60q-54 -63 -149 -63q-86 0 -131.5 57t-31.5 154q13 94 71 148t141 54q56 0 92.5 -22.5t49.5 -59.5l14 72h42l-52 -299q-10 -63 43 -63q41 0 71 42.5t42 123.5q19 137 -57.5 225.5
t-215.5 88.5t-239.5 -90.5t-120.5 -231.5q-20 -139 59 -226t217 -87q103 0 192 54l13 -35q-95 -57 -207 -57q-158 0 -246 101.5t-65 257.5q21 152 133 251t264 99zM364 82q65 0 107.5 38.5t54.5 114.5l4 26q12 75 -21 115t-97 40q-67 0 -113.5 -43t-57.5 -123
q-12 -79 22.5 -123.5t100.5 -44.5z" />
    <glyph glyph-name="A" unicode="A" horiz-adv-x="706" 
d="M643 0h-64l-50 219h-362l-127 -219h-65l440 748h51zM196 266h321l-92 391z" />
    <glyph glyph-name="B" unicode="B" horiz-adv-x="676" 
d="M185 748h260q98 0 150 -53t36 -147q-25 -131 -122 -163q51 -16 78.5 -64t14.5 -123q-17 -98 -88 -148t-169 -50h-292zM235 696l-50 -286h229q132 0 157 141q12 70 -26 107.5t-113 37.5h-197zM175 358l-54 -305h224q74 0 129.5 37.5t69.5 115.5q13 77 -27 114.5t-106 37.5
h-236z" />
    <glyph glyph-name="C" unicode="C" horiz-adv-x="799" 
d="M487 757q134 0 218.5 -74.5t83.5 -198.5l-61 -4q1 104 -67 164t-176 60q-135 0 -229.5 -89t-113.5 -245q-20 -153 53.5 -239.5t202.5 -86.5q110 0 191 55.5t112 155.5l60 -7q-36 -119 -134 -188t-227 -69q-161 0 -250.5 103.5t-66.5 283.5q23 177 135 278t269 101z" />
    <glyph glyph-name="D" unicode="D" horiz-adv-x="797" 
d="M185 748h264q156 0 243.5 -101.5t64.5 -276.5q-24 -174 -135.5 -272t-266.5 -98h-302zM235 697l-114 -646h237q132 0 226.5 86t114.5 240q20 151 -50.5 235.5t-202.5 84.5h-211z" />
    <glyph glyph-name="E" unicode="E" horiz-adv-x="588" 
d="M629 696h-395l-49 -282h350l-8 -52h-351l-55 -309h395l-9 -53h-454l132 748h454z" />
    <glyph glyph-name="F" unicode="F" horiz-adv-x="580" 
d="M629 696h-395l-50 -289h332l-10 -52h-331l-63 -355h-59l132 748h454z" />
    <glyph glyph-name="G" unicode="G" horiz-adv-x="814" 
d="M442 366h336l-3 -24q-22 -167 -123 -259t-257 -92q-158 0 -246.5 103.5t-65.5 283.5q23 177 134.5 278t267.5 101q133 0 217.5 -72.5t85.5 -197.5l-60 -6q1 104 -67.5 163.5t-176.5 59.5q-135 0 -229 -88t-113 -246q-20 -154 51.5 -240t201.5 -86q122 0 205.5 69
t106.5 200h-272z" />
    <glyph glyph-name="H" unicode="H" horiz-adv-x="748" 
d="M606 0h-59l64 363h-434l-65 -363h-59l132 748h59l-58 -332h435l58 332h59z" />
    <glyph glyph-name="I" unicode="I" horiz-adv-x="255" 
d="M112 0h-59l132 748h59z" />
    <glyph glyph-name="J" unicode="J" horiz-adv-x="561" 
d="M557 748l-93 -527q-19 -110 -86.5 -170t-167.5 -60q-102 0 -153 61.5t-38 165.5l60 3q-10 -85 25.5 -131t109.5 -46q75 0 125.5 46t66.5 132l93 526h58z" />
    <glyph glyph-name="K" unicode="K" horiz-adv-x="653" 
d="M316 423l268 -423h-66l-244 380l-111 -98l-51 -282h-59l132 748h59l-68 -379l420 379h80z" />
    <glyph glyph-name="L" unicode="L" horiz-adv-x="591" 
d="M121 53h400l-9 -53h-459l132 748h59z" />
    <glyph glyph-name="M" unicode="M" horiz-adv-x="984" 
d="M842 0h-59l108 610l-421 -607h-41l-209 611l-108 -614h-59l132 748h49l228 -659l459 659h53z" />
    <glyph glyph-name="N" unicode="N" horiz-adv-x="742" 
d="M600 0h-50l-325 637l-113 -637h-59l132 748h49l327 -638l112 638h59z" />
    <glyph glyph-name="O" unicode="O" horiz-adv-x="861" 
d="M493 757q161 0 255 -104.5t73 -282.5q-14 -116 -73 -203t-146.5 -131.5t-189.5 -44.5q-161 0 -255.5 105t-73.5 282q14 116 73 203t146.5 131.5t190.5 44.5zM493 704q-136 0 -234.5 -90t-116.5 -244q-17 -150 60.5 -238t209.5 -88q135 0 234 90t116 244q18 150 -59.5 238
t-209.5 88z" />
    <glyph glyph-name="P" unicode="P" horiz-adv-x="640" 
d="M185 748h261q97 0 155 -58t45 -165q-11 -105 -79.5 -160t-166.5 -55h-232l-56 -310h-59zM234 696l-58 -334h222q73 0 127 42.5t62 125.5q9 81 -34.5 123.5t-115.5 42.5h-203z" />
    <glyph glyph-name="Q" unicode="Q" horiz-adv-x="863" 
d="M821 370q-20 -171 -135 -276l107 -128l-43 -39l-110 132q-102 -68 -228 -68q-161 0 -255.5 105t-73.5 282q14 116 73 203t146.5 131.5t190.5 44.5q161 0 255 -104.5t73 -282.5zM461 274l43 38l146 -175q96 93 112 241q18 150 -59.5 238t-209.5 88q-136 0 -234.5 -90
t-116.5 -244q-17 -150 60.5 -238t209.5 -88q107 0 193 57z" />
    <glyph glyph-name="R" unicode="R" horiz-adv-x="675" 
d="M642 527q-15 -86 -62.5 -137.5t-118.5 -67.5l128 -322h-63l-124 315h-6h-228l-56 -315h-59l132 748h256q97 0 155.5 -57t45.5 -164zM177 368h217q72 0 123.5 41t65.5 124q9 79 -35 121t-116 42h-197z" />
    <glyph glyph-name="S" unicode="S" horiz-adv-x="652" 
d="M397 757q108 0 169.5 -52.5t54.5 -143.5l-60 -3q4 70 -40 108.5t-123 38.5q-93 0 -148 -43t-64 -109q-5 -31 2.5 -54t19 -36.5t40 -26t49 -18l63.5 -16.5q136 -30 191.5 -72t42.5 -135q-14 -101 -93 -152.5t-191 -51.5q-118 0 -188.5 54.5t-63.5 150.5l60 3
q-5 -71 49 -113.5t142 -42.5q91 0 152.5 39t72.5 117q5 30 -3 53t-20 36.5t-44 26.5t-54.5 19.5t-71.5 18.5q-47 11 -76 19.5t-62 25t-49 36t-25 51.5t-3 73q13 86 83.5 142.5t187.5 56.5z" />
    <glyph glyph-name="T" unicode="T" horiz-adv-x="677" 
d="M738 696h-293l-121 -696h-59l121 696h-292l10 52h644z" />
    <glyph glyph-name="U" unicode="U" horiz-adv-x="758" 
d="M754 748l-85 -481q-24 -134 -112 -205t-220 -71q-133 0 -199.5 72.5t-42.5 206.5l85 478h59l-86 -479q-20 -110 30.5 -167.5t155.5 -57.5q108 0 180 58t92 168l84 478h59z" />
    <glyph glyph-name="V" unicode="V" horiz-adv-x="725" 
d="M343 0h-51l-180 748h61l157 -657l391 657h68z" />
    <glyph glyph-name="W" unicode="W" horiz-adv-x="1114" 
d="M784 0h-50l-108 641l-335 -641h-50l-129 748h61l108 -647l337 647h48l107 -647l337 647h68z" />
    <glyph glyph-name="X" unicode="X" horiz-adv-x="673" 
d="M399 377l201 -377h-65l-181 336l-298 -336h-72l334 385l-190 363h65l172 -324l285 324h73z" />
    <glyph glyph-name="Y" unicode="Y" horiz-adv-x="666" 
d="M375 322l-57 -322h-59l57 322l-208 426h65l178 -365l307 365h75z" />
    <glyph glyph-name="Z" unicode="Z" horiz-adv-x="614" 
d="M652 703l-571 -650h463l-8 -53h-544l8 44l572 652h-438l9 52h518z" />
    <glyph glyph-name="bracketleft" unicode="[" horiz-adv-x="243" 
d="M292 671h-102l-123 -701h102l-8 -47h-159l141 795h158z" />
    <glyph glyph-name="backslash" unicode="\" horiz-adv-x="337" 
d="M268 -67h-58l-110 815h57z" />
    <glyph glyph-name="bracketright" unicode="]" horiz-adv-x="243" 
d="M125 -77h-159l9 47h103l123 701h-103l9 47h158z" />
    <glyph glyph-name="asciicircum" unicode="^" horiz-adv-x="534" 
d="M522 374h-60l-120 296l-225 -296h-64l302 386z" />
    <glyph glyph-name="underscore" unicode="_" horiz-adv-x="683" 
d="M585 -53h-593l10 53h592z" />
    <glyph glyph-name="grave" unicode="`" horiz-adv-x="220" 
d="M259 593h-45l-97 191h63z" />
    <glyph glyph-name="a" unicode="a" horiz-adv-x="533" 
d="M306 515q86 0 125 -56t22 -154l-55 -305h-52l16 87q-59 -96 -184 -96q-74 0 -113 38t-28 105q11 69 67.5 103.5t144.5 39.5l144 8l4 24q14 75 -10 115.5t-86 40.5q-64 0 -106.5 -38t-51.5 -90l-55 4q12 70 71.5 122t146.5 52zM385 238l-132 -8q-72 -4 -113 -26.5
t-47 -72.5q-7 -45 17.5 -68t73.5 -23q70 0 123.5 42t72.5 133z" />
    <glyph glyph-name="b" unicode="b" horiz-adv-x="645" 
d="M243 777l-64 -355q64 93 198 93q108 0 167.5 -72t41.5 -194q-16 -120 -92 -189t-182 -69q-72 0 -120 28.5t-69 78.5l-19 -98h-53l136 777h56zM366 465q-82 0 -139 -49t-72 -143l-7 -41q-16 -92 30 -142.5t130 -50.5q85 0 146.5 56t76.5 156q14 100 -33.5 157t-131.5 57z
" />
    <glyph glyph-name="c" unicode="c" horiz-adv-x="570" 
d="M331 515q92 0 147.5 -51t54.5 -137l-55 -3q1 67 -38.5 104.5t-107.5 37.5q-85 0 -145 -57.5t-73 -159.5q-14 -98 30.5 -153.5t125.5 -55.5q69 0 118.5 35t69.5 96l55 -6q-25 -82 -89.5 -128t-152.5 -46q-109 0 -169.5 71t-43.5 195q16 121 92 189.5t181 68.5z" />
    <glyph glyph-name="d" unicode="d" horiz-adv-x="645" 
d="M505 0h-52l15 86q-64 -95 -200 -95q-108 0 -167.5 72t-42.5 194q17 120 93 189t181 69q144 0 188 -105l66 367h56zM337 466q-85 0 -147 -56t-76 -156t33.5 -157t131.5 -57q82 0 139 49.5t72 142.5l7 42q16 92 -30.5 142t-129.5 50z" />
    <glyph glyph-name="e" unicode="e" horiz-adv-x="587" 
d="M334 515q108 0 161.5 -69t36.5 -180l-5 -34h-413q-10 -91 34.5 -141.5t124.5 -50.5q65 0 112.5 29.5t69.5 80.5l56 -4q-28 -72 -91 -113.5t-148 -41.5q-109 0 -170 71.5t-44 194.5q17 120 93.5 189t182.5 69zM333 465q-80 0 -138 -49t-74 -137h357v2q13 84 -25 134
t-120 50z" />
    <glyph glyph-name="f" unicode="f" horiz-adv-x="324" 
d="M370 781q24 0 35 -4l-9 -48q-6 2 -23 2q-54 0 -90 -32.5t-46 -91.5l-19 -101h136l-8 -49h-136l-81 -457h-56l81 457h-103l8 49h103l19 104q14 81 65 126t124 45z" />
    <glyph glyph-name="g" unicode="g" horiz-adv-x="642" 
d="M333 515q72 0 120 -28.5t69 -79.5l19 99h53l-95 -541q-18 -107 -92.5 -167.5t-179.5 -60.5q-98 0 -153 47t-58 122l56 2q1 -57 44.5 -90.5t110.5 -33.5q84 0 142.5 48t73.5 132l22 119q-63 -92 -197 -92q-108 0 -167.5 72t-41.5 194q16 120 92.5 189t181.5 69zM337 466
q-85 0 -147 -56t-76 -156t33.5 -157t131.5 -57q82 0 139 49.5t72 142.5l7 42q16 92 -30 142t-130 50z" />
    <glyph glyph-name="h" unicode="h" horiz-adv-x="596" 
d="M243 777l-63 -353q22 38 69 64.5t108 26.5q85 0 133 -57.5t32 -149.5l-54 -308h-56l53 304q13 71 -21 115t-100 44q-70 0 -120.5 -46.5t-62.5 -112.5l-55 -304h-56l137 777h56z" />
    <glyph glyph-name="i" unicode="i" 
d="M204 740q19 0 29.5 -13t7.5 -31q-2 -16 -14.5 -27.5t-28.5 -11.5q-19 0 -29.5 13t-7.5 32q2 16 15 27t28 11zM106 0h-56l90 506h56z" />
    <glyph glyph-name="j" unicode="j" 
d="M204 740q19 0 29.5 -13t7.5 -31q-2 -16 -14.5 -27.5t-28.5 -11.5q-19 0 -29.5 13t-7.5 32q2 16 14.5 27t28.5 11zM197 506l-105 -596q-15 -82 -63 -125.5t-118 -43.5q-21 0 -36 3l9 48q16 -2 24 -2q51 0 84.5 31t43.5 91l105 594h56z" />
    <glyph glyph-name="k" unicode="k" horiz-adv-x="515" 
d="M153 264l294 242h76l-270 -225l201 -281h-65l-177 243l-73 -59l-33 -184h-56l137 777h56z" />
    <glyph glyph-name="l" unicode="l" 
d="M106 0h-56l137 777h56z" />
    <glyph glyph-name="m" unicode="m" horiz-adv-x="937" 
d="M699 515q87 0 130.5 -55t28.5 -145l-56 -315h-56l54 304q13 72 -18.5 115.5t-94.5 43.5q-66 0 -114.5 -43t-63.5 -106v-2l-55 -312h-56l54 304q12 72 -19 115.5t-95 43.5q-69 0 -117.5 -46.5t-60.5 -112.5l-54 -304h-56l90 506h53l-16 -88q22 41 67.5 69t106.5 28
q60 0 101 -28.5t55 -79.5q31 50 80.5 79t111.5 29z" />
    <glyph glyph-name="n" unicode="n" horiz-adv-x="604" 
d="M357 515q85 0 133 -57.5t32 -149.5l-54 -308h-56l53 304q13 71 -21 115t-100 44q-70 0 -120.5 -46.5t-62.5 -112.5l-55 -304h-56l90 506h53l-16 -85q22 40 70 67t110 27z" />
    <glyph glyph-name="o" unicode="o" horiz-adv-x="627" 
d="M343 515q112 0 176.5 -72.5t48.5 -193.5q-15 -117 -96 -187.5t-188 -70.5q-113 0 -177 72.5t-48 193.5q15 117 95.5 187.5t188.5 70.5zM344 466q-87 0 -152 -58.5t-78 -158.5q-12 -97 36 -153t133 -56q88 0 153 58.5t78 158.5q12 96 -37 152.5t-133 56.5z" />
    <glyph glyph-name="p" unicode="p" horiz-adv-x="645" 
d="M377 515q108 0 167.5 -72t42.5 -194q-17 -120 -93 -189t-181 -69q-144 0 -188 104l-64 -350h-55l134 761h52l-15 -87q65 96 200 96zM366 465q-82 0 -139 -49t-72 -143l-7 -41q-16 -92 30.5 -142.5t129.5 -50.5q85 0 147 56t76 156t-33.5 157t-131.5 57z" />
    <glyph glyph-name="q" unicode="q" horiz-adv-x="645" 
d="M333 515q72 0 120 -28.5t69 -79.5l19 99h53l-134 -761h-56l62 338q-64 -92 -198 -92q-108 0 -167.5 72t-41.5 194q16 120 92.5 189t181.5 69zM337 466q-85 0 -147 -56t-76 -156t33.5 -157t131.5 -57q82 0 139 49.5t72 142.5l7 42q16 92 -30 142t-130 50z" />
    <glyph glyph-name="r" unicode="r" horiz-adv-x="321" 
d="M348 513l-9 -54q-68 0 -117.5 -44.5t-61.5 -107.5l-54 -307h-56l90 506h52l-14 -85q22 39 66 65.5t104 26.5z" />
    <glyph glyph-name="s" unicode="s" horiz-adv-x="495" 
d="M277 514q78 1 118.5 -39t40.5 -104l-56 -2q2 45 -26 71t-81 25q-57 1 -91 -24.5t-42 -69.5q-4 -22 1 -36.5t20 -23t32 -13.5t44 -11q12 -2 19 -4q91 -22 129 -52t29 -93q-11 -71 -66 -109t-137 -38t-128.5 38t-46.5 106l56 3q0 -48 33 -73t89 -25q128 0 144 98
q6 44 -21.5 64t-103.5 37q-89 22 -114 39q-45 30 -35 97q9 64 59.5 102t133.5 37z" />
    <glyph glyph-name="t" unicode="t" horiz-adv-x="333" 
d="M201 457l-54 -298q-10 -59 11.5 -86t63.5 -27q29 0 55 6l-9 -52q-25 -5 -62 -5q-68 0 -99 38t-17 117l55 307h-96l9 49h96l32 179h56l-32 -179h146l-9 -49h-146z" />
    <glyph glyph-name="u" unicode="u" horiz-adv-x="585" 
d="M445 0h-52l15 88q-23 -41 -68.5 -69t-106.5 -28q-85 0 -127.5 54.5t-26.5 143.5l56 317h56l-54 -307q-13 -71 16.5 -113t93.5 -42q69 0 117.5 46t59.5 110l55 306h55z" />
    <glyph glyph-name="v" unicode="v" horiz-adv-x="509" 
d="M232 0h-43l-131 506h59l105 -422l254 422h65z" />
    <glyph glyph-name="w" unicode="w" horiz-adv-x="807" 
d="M557 0h-45l-81 408l-224 -408h-46l-103 506h59l81 -419l227 419h40l81 -419l228 419h64z" />
    <glyph glyph-name="x" unicode="x" horiz-adv-x="496" 
d="M287 259l144 -259h-62l-124 221l-202 -221h-66l237 264l-135 242h61l116 -205l187 205h66z" />
    <glyph glyph-name="y" unicode="y" horiz-adv-x="514" 
d="M73 -255h-65l177 288l-120 473h60l100 -412l247 412h64z" />
    <glyph glyph-name="z" unicode="z" horiz-adv-x="443" 
d="M439 469l-368 -423h306l-7 -46h-382l6 38l368 422h-286l8 46h361z" />
    <glyph glyph-name="braceleft" unicode="{" horiz-adv-x="225" 
d="M275 670h-5q-106 0 -103 -181q3 -75 -8.5 -116.5t-56.5 -52.5q21 -5 30 -21t6 -42t-10 -51.5t-21 -61.5q-33 -88 -24.5 -131t61.5 -43h8l-9 -47h-5q-80 0 -103.5 58t17.5 167q11 26 17 41.5t12 35.5t5.5 31t-4 21.5t-14.5 15t-28 4.5h-10l8 47h6q26 0 42 11.5t22 32.5
t8 49.5t0 62.5q-6 105 36.5 161t122.5 56h8z" />
    <glyph glyph-name="bar" unicode="|" horiz-adv-x="236" 
d="M89 -67h-56l144 815h56z" />
    <glyph glyph-name="braceright" unicode="}" horiz-adv-x="225" 
d="M106 717h5q80 0 104 -57.5t-17 -167.5l-16.5 -41.5t-12 -35t-6 -31t3.5 -21t14 -15t29 -4.5h10l-8 -47h-7q-26 0 -41.5 -11.5t-22 -32.5t-8 -50t0.5 -63q5 -104 -37.5 -160.5t-122.5 -56.5h-8l9 47h4q106 0 103 181q-2 30 -0.5 58t7 50.5t20 39t38.5 21.5q-27 8 -33 36
t1.5 59t25.5 81q34 88 26 131t-61 43h-8z" />
    <glyph glyph-name="asciitilde" unicode="~" horiz-adv-x="532" 
d="M508 429l23 -40q-40 -40 -75 -59t-81 -19q-41 0 -71 16.5t-54.5 32.5t-52.5 16q-41 0 -69 -14.5t-62 -48.5l-23 40q40 40 73 58t76 18q40 0 87 -32.5t91 -32.5t74 15.5t64 49.5z" />
    <glyph glyph-name="exclamdown" unicode="&#xa1;" horiz-adv-x="257" 
d="M161 421q-20 0 -32 14t-9 34q4 17 18 28.5t30 11.5q20 0 31.5 -14t7.5 -34q-2 -16 -15.5 -28t-30.5 -12zM107 311h60l-96 -559h-64z" />
    <glyph glyph-name="cent" unicode="&#xa2;" horiz-adv-x="570" 
d="M533 327l-55 -3q1 67 -38.5 104.5t-107.5 37.5q-85 0 -145 -57.5t-73 -159.5q-14 -98 30.5 -153.5t125.5 -55.5q69 0 118.5 35t69.5 96l55 -6q-26 -80 -88.5 -126.5t-147.5 -47.5l-19 -109h-48l20 112q-92 13 -139.5 82.5t-32.5 180.5q15 118 88.5 186.5t175.5 71.5
l19 112h48l-21 -114q76 -11 121 -60t44 -126z" />
    <glyph glyph-name="sterling" unicode="&#xa3;" horiz-adv-x="537" 
d="M395 757q89 1 129 -47t28 -126l-59 -2q10 56 -15 89.5t-87 33.5q-142 0 -160 -179l-14 -140h182l-8 -47h-179l-9 -85q-6 -71 -38.5 -118t-84.5 -84l391 1l-8 -53h-468l7 49q132 63 145 208l9 82h-112l8 47h108l14 131q22 240 221 240z" />
    <glyph glyph-name="currency" unicode="&#xa4;" horiz-adv-x="581" 
d="M463 249q-12 -72 -55 -123l100 -120l-41 -35l-100 120q-47 -33 -106 -33q-61 0 -102 36l-142 -123l-31 35l145 124q-27 53 -14 127q14 74 57 122l-102 121l41 35l101 -121q48 33 106 33q61 0 101 -35l143 123l31 -35l-146 -125q27 -52 14 -126zM162 250
q-12 -70 16.5 -110.5t82.5 -40.5q56 0 100.5 42.5t56.5 114.5q12 69 -16.5 109.5t-82.5 40.5q-57 0 -101 -42t-56 -114z" />
    <glyph glyph-name="yen" unicode="&#xa5;" horiz-adv-x="666" 
d="M395 346h128l-6 -37h-144l-19 -103h145l-7 -37h-144l-30 -169h-59l30 169h-144l6 37h144l19 103h-145l7 37h128l-196 402h65l178 -365l307 365h75z" />
    <glyph glyph-name="brokenbar" unicode="&#xa6;" horiz-adv-x="236" 
d="M177 429h-56l56 319h56zM89 -67h-56l57 319h55z" />
    <glyph glyph-name="section" unicode="&#xa7;" horiz-adv-x="510" 
d="M493 612l-56 -2q7 49 -24.5 77.5t-88.5 28.5q-56 0 -94.5 -27t-44.5 -78q-8 -48 21 -68.5t100 -37.5q42 -10 68 -19t50 -24.5t32.5 -40t3.5 -58.5q-6 -42 -27.5 -68t-60.5 -49q76 -36 63 -122q-11 -72 -69.5 -112t-144.5 -40q-92 0 -143.5 41.5t-41.5 114.5h56
q-7 -54 28 -85t99 -31q65 0 108.5 29.5t52.5 85.5q8 51 -25.5 73t-111.5 39q-42 10 -68 19t-50 24.5t-33 40t-4 58.5q6 43 28 69.5t63 49.5q-62 34 -50 113q11 69 64 106.5t130 37.5q85 0 132 -38.5t38 -106.5zM408 364q8 46 -23 66.5t-102 36.5q-36 8 -62 16
q-36 -22 -55.5 -44.5t-25.5 -58.5q-7 -46 23.5 -66t102.5 -37q50 -11 61 -15q38 23 56.5 44.5t24.5 57.5z" />
    <glyph glyph-name="dieresis" unicode="&#xa8;" horiz-adv-x="254" 
d="M142 719q18 0 28 -12t7 -29q-3 -15 -14.5 -24t-25.5 -9q-18 0 -28 11.5t-7 29.5q2 14 14 23.5t26 9.5zM270 719q18 0 27.5 -12t6.5 -29q-7 -33 -39 -33q-18 0 -28.5 11.5t-7.5 29.5q2 13 14.5 23t26.5 10z" />
    <glyph glyph-name="copyright" unicode="&#xa9;" horiz-adv-x="576" 
d="M364 758q110 0 174.5 -74t49.5 -181q-14 -104 -96.5 -175.5t-189.5 -71.5q-110 0 -175 74t-49 182q15 104 97.5 175t188.5 71zM366 735q-98 0 -174.5 -65.5t-89.5 -162.5q-14 -96 43.5 -162t154.5 -66t173.5 65.5t90.5 162.5q13 96 -44 162t-154 66zM356 663
q55 0 89 -30.5t33 -80.5l-34 -1q1 39 -23.5 61t-63.5 22q-50 0 -87.5 -35t-47.5 -96q-10 -56 16.5 -89.5t73.5 -33.5q41 0 72 21t44 57l34 -3q-16 -48 -56.5 -76t-91.5 -28q-65 0 -101 44t-24 116q12 71 59 111.5t108 40.5z" />
    <glyph glyph-name="ordfeminine" unicode="&#xaa;" horiz-adv-x="434" 
d="M298 755q74 0 107 -40.5t19 -115.5l-45 -256h-48l12 68q-22 -36 -62 -55.5t-88 -19.5q-57 0 -89.5 29t-25.5 81q15 109 173 119l118 8l5 29q20 111 -78 111q-50 0 -83 -29.5t-40 -71.5l-49 2q10 57 57 99t117 42zM362 534l-107 -8q-57 -4 -88.5 -21.5t-35.5 -56.5
q-4 -33 15.5 -51.5t58.5 -18.5q126 0 153 136z" />
    <glyph glyph-name="guillemotleft" unicode="&#xab;" horiz-adv-x="505" 
d="M279 432l-200 -184l133 -181l-45 -27l-152 213l222 210zM516 432l-200 -184l133 -181l-45 -27l-152 213l222 210z" />
    <glyph glyph-name="logicalnot" unicode="&#xac;" horiz-adv-x="532" 
d="M469 175h-45l32 176h-398l9 45h442z" />
    <glyph glyph-name="registered" unicode="&#xae;" horiz-adv-x="576" 
d="M364 758q110 0 174.5 -74t49.5 -181q-14 -104 -96.5 -175.5t-189.5 -71.5q-110 0 -175 74t-49 182q15 104 97.5 175t188.5 71zM564 507q13 96 -44 162t-154 66q-98 0 -174.5 -65.5t-89.5 -162.5q-14 -96 43.5 -162t154.5 -66t173.5 65.5t90.5 162.5zM259 659h114
q41 0 63.5 -24t14.5 -70q-11 -64 -71 -81l49 -131h-36l-46 126h-2h-85l-22 -126h-33zM417 570q6 31 -10 46t-45 15h-75l-22 -124h74q67 0 78 63z" />
    <glyph glyph-name="macron" unicode="&#xaf;" horiz-adv-x="283" 
d="M333 643h-245l8 44h245z" />
    <glyph glyph-name="degree" unicode="&#xb0;" horiz-adv-x="332" 
d="M250 756q63 0 94.5 -36t20.5 -99l-3 -22q-12 -63 -53.5 -98t-100.5 -35q-63 0 -94 36t-20 100l4 22q10 63 51 97.5t101 34.5zM250 720q-45 0 -74.5 -25.5t-37.5 -73.5l-4 -20q-8 -47 12 -73t63 -26q44 0 75 26.5t38 73.5l3 19q9 48 -12 73.5t-63 25.5z" />
    <glyph glyph-name="plusminus" unicode="&#xb1;" horiz-adv-x="546" 
d="M341 490h213l-10 -52h-212l-37 -215h-55l38 215h-212l9 52h212l37 209h55zM484 101h-478l10 53h478z" />
    <glyph glyph-name="acute" unicode="&#xb4;" horiz-adv-x="220" 
d="M127 593h-46l146 191h65z" />
    <glyph glyph-name="paragraph" unicode="&#xb6;" horiz-adv-x="644" 
d="M701 705h-69l-136 -772h-44l136 772h-149l-136 -772h-44l80 451h-60q-91 0 -139.5 48.5t-35.5 137.5q13 86 75 132t152 46h377z" />
    <glyph glyph-name="periodcentered" unicode="&#xb7;" horiz-adv-x="190" 
d="M103 325q20 0 31.5 -14t8.5 -34q-4 -17 -17.5 -28.5t-29.5 -11.5q-20 0 -32 14t-8 34q3 17 17 28.5t30 11.5z" />
    <glyph glyph-name="cedilla" unicode="&#xb8;" horiz-adv-x="274" 
d="M99 6l-23 -66q52 -2 77.5 -26.5t17.5 -69.5q-6 -40 -42.5 -62.5t-80.5 -22.5q-62 0 -100 24l14 34q32 -22 79 -22q33 0 58 13.5t30 40.5q5 29 -14 45.5t-58 16.5q-17 0 -28 -3l39 98h31z" />
    <glyph glyph-name="ordmasculine" unicode="&#xba;" horiz-adv-x="502" 
d="M328 755q91 0 142 -58t38 -155q-12 -94 -77.5 -150t-153.5 -56q-90 0 -141 58t-38 155q12 94 77.5 150t152.5 56zM328 712q-68 0 -118.5 -46t-61.5 -124q-10 -75 27.5 -118.5t102.5 -43.5q68 0 119 45.5t61 122.5q11 75 -27 119.5t-103 44.5z" />
    <glyph glyph-name="guillemotright" unicode="&#xbb;" horiz-adv-x="505" 
d="M254 251l-222 -211l-42 31l200 185l-133 180l46 27zM490 251l-222 -211l-42 31l200 185l-133 180l46 27z" />
    <glyph glyph-name="onequarter" unicode="&#xbc;" horiz-adv-x="669" 
d="M31 0h-59l669 748h59zM169 322h-43l61 345l-90 -61l-19 36l135 91h28zM557 144h72l-7 -40h-72l-19 -104h-43l18 104h-186l6 35l238 272h39zM379 144h134l34 189z" />
    <glyph glyph-name="onehalf" unicode="&#xbd;" horiz-adv-x="699" 
d="M31 0h-59l669 748h59zM169 322h-43l61 345l-90 -61l-19 36l135 91h28zM575 416q56 0 81 -34t16 -89q-7 -46 -32 -81t-73 -76l-110 -96h176l-7 -40h-246l6 31l151 132q41 36 62.5 66t28.5 69q6 35 -9 56.5t-49 21.5q-39 0 -64.5 -22.5t-33.5 -63.5l-43 3q11 58 50 90.5
t96 32.5z" />
    <glyph glyph-name="threequarters" unicode="&#xbe;" horiz-adv-x="767" 
d="M129 0h-59l669 748h59zM238 738q56 0 83.5 -30.5t17.5 -82.5q-6 -34 -28.5 -58.5t-52.5 -33.5q31 -6 48 -32.5t10 -67.5q-9 -53 -48 -84.5t-94 -31.5q-61 0 -89.5 32.5t-22.5 87.5l44 2q-5 -81 69 -81q39 0 65.5 22.5t32.5 60.5q7 36 -13 55t-59 19h-40l5 37h37
q34 0 61.5 22t32.5 57q6 32 -10.5 50.5t-49.5 18.5q-35 0 -60 -21.5t-33 -58.5l-42 3q11 55 46.5 85t89.5 30zM655 144h72l-7 -40h-72l-19 -104h-43l18 104h-186l6 35l238 272h39zM477 144h134l34 189z" />
    <glyph glyph-name="questiondown" unicode="&#xbf;" horiz-adv-x="485" 
d="M284 426q-21 0 -32.5 14t-8.5 35q4 17 17.5 28.5t29.5 11.5q21 0 32.5 -14t7.5 -34q-3 -17 -16.5 -29t-29.5 -12zM158 -252q-105 0 -154.5 59.5t-33.5 154.5q11 61 43.5 100.5t94.5 78.5q58 39 82.5 70.5t34.5 81.5l4 24h58l-4 -28q-10 -56 -37 -94.5t-87 -79.5
q-60 -38 -90 -71.5t-40 -87.5q-12 -68 22.5 -111.5t108.5 -43.5q149 0 192 144l58 -6q-23 -90 -89.5 -140.5t-162.5 -50.5z" />
    <glyph glyph-name="Agrave" unicode="&#xc0;" horiz-adv-x="706" 
d="M476 795h-55l-159 135h79zM643 0h-64l-50 219h-362l-127 -219h-65l440 748h51zM196 266h321l-92 391z" />
    <glyph glyph-name="Aacute" unicode="&#xc1;" horiz-adv-x="706" 
d="M477 795h-56l182 135h81zM643 0h-64l-50 219h-362l-127 -219h-65l440 748h51zM196 266h321l-92 391z" />
    <glyph glyph-name="Acircumflex" unicode="&#xc2;" horiz-adv-x="706" 
d="M596 795h-48l-78 98l-115 -98h-52l145 135h52zM643 0h-64l-50 219h-362l-127 -219h-65l440 748h51zM196 266h321l-92 391z" />
    <glyph glyph-name="Atilde" unicode="&#xc3;" horiz-adv-x="706" 
d="M398 923q34 0 67 -32t58 -32q27 0 44.5 15.5t22.5 41.5h33q-4 -42 -32 -71t-64 -29q-27 0 -48 16t-39.5 32t-39.5 16q-25 0 -43 -16.5t-23 -41.5h-33q4 43 32.5 72t64.5 29zM643 0h-64l-50 219h-362l-127 -219h-65l440 748h51zM196 266h321l-92 391z" />
    <glyph glyph-name="Adieresis" unicode="&#xc4;" horiz-adv-x="706" 
d="M402 901q18 0 28 -12.5t7 -29.5q-3 -14 -14.5 -23.5t-25.5 -9.5q-18 0 -28 11.5t-7 29.5q3 14 14.5 24t25.5 10zM529 901q19 0 29 -12.5t6 -29.5q-3 -14 -14 -23.5t-25 -9.5q-18 0 -28.5 11.5t-7.5 29.5q3 14 15 24t25 10zM643 0h-64l-50 219h-362l-127 -219h-65l440 748
h51zM196 266h321l-92 391z" />
    <glyph glyph-name="Aring" unicode="&#xc5;" horiz-adv-x="706" 
d="M478 979q43 0 67.5 -27.5t16.5 -69.5q-7 -39 -37.5 -64t-69.5 -25q-43 0 -68 27.5t-17 69.5q7 39 38 64t70 25zM477 948q-28 0 -50 -17.5t-26 -44.5q-4 -26 11.5 -44t42.5 -18q29 0 50.5 17t25.5 45q4 26 -11.5 44t-42.5 18zM643 0h-64l-50 219h-362l-127 -219h-65
l440 748h51zM196 266h321l-92 391z" />
    <glyph glyph-name="AE" unicode="&#xc6;" horiz-adv-x="996" 
d="M644 696l-49 -282h350l-9 -52h-351l-54 -309h395l-10 -53h-453l36 203h-290l-169 -203h-73l628 748h453l-9 -52h-395zM576 641l-322 -386h254z" />
    <glyph glyph-name="Ccedilla" unicode="&#xc7;" horiz-adv-x="799" 
d="M789 484l-61 -4q1 104 -67 164t-176 60q-135 0 -229.5 -89t-113.5 -245q-20 -153 53.5 -239.5t202.5 -86.5q110 0 191 55.5t112 155.5l60 -7q-36 -118 -132 -186.5t-223 -70.5l-19 -56q52 -2 77.5 -26.5t17.5 -69.5q-6 -40 -42.5 -62.5t-80.5 -22.5q-62 0 -100 24l14 34
q32 -22 79 -22q33 0 58 13.5t30 40.5q5 29 -14 45.5t-58 16.5q-18 0 -28 -3l35 89q-150 8 -232.5 111t-59.5 275q23 177 135 278t269 101q134 0 218.5 -74.5t83.5 -198.5z" />
    <glyph glyph-name="Egrave" unicode="&#xc8;" horiz-adv-x="588" 
d="M451 795h-55l-159 135h79zM629 696h-395l-49 -282h350l-8 -52h-351l-55 -309h395l-9 -53h-454l132 748h454z" />
    <glyph glyph-name="Eacute" unicode="&#xc9;" horiz-adv-x="588" 
d="M452 795h-56l182 135h81zM629 696h-395l-49 -282h350l-8 -52h-351l-55 -309h395l-9 -53h-454l132 748h454z" />
    <glyph glyph-name="Ecircumflex" unicode="&#xca;" horiz-adv-x="588" 
d="M570 795h-48l-78 98l-115 -98h-52l145 135h52zM629 696h-395l-49 -282h350l-8 -52h-351l-55 -309h395l-9 -53h-454l132 748h454z" />
    <glyph glyph-name="Edieresis" unicode="&#xcb;" horiz-adv-x="588" 
d="M377 901q18 0 28 -12.5t7 -29.5q-3 -14 -14.5 -23.5t-25.5 -9.5q-18 0 -28 11.5t-7 29.5q3 14 14.5 24t25.5 10zM504 901q19 0 29 -12.5t6 -29.5q-3 -14 -14 -23.5t-25 -9.5q-18 0 -28.5 11.5t-7.5 29.5q3 14 15 24t25 10zM629 696h-395l-49 -282h350l-8 -52h-351
l-55 -309h395l-9 -53h-454l132 748h454z" />
    <glyph glyph-name="Igrave" unicode="&#xcc;" horiz-adv-x="255" 
d="M250 795h-55l-159 135h79zM112 0h-59l132 748h59z" />
    <glyph glyph-name="Iacute" unicode="&#xcd;" horiz-adv-x="255" 
d="M252 795h-56l182 135h81zM112 0h-59l132 748h59z" />
    <glyph glyph-name="Icircumflex" unicode="&#xce;" horiz-adv-x="255" 
d="M370 795h-48l-78 98l-115 -98h-52l145 135h52zM112 0h-59l132 748h59z" />
    <glyph glyph-name="Idieresis" unicode="&#xcf;" horiz-adv-x="255" 
d="M177 901q18 0 28 -12.5t7 -29.5q-3 -14 -14.5 -23.5t-25.5 -9.5q-18 0 -28 11.5t-7 29.5q3 14 14.5 24t25.5 10zM304 901q19 0 29 -12.5t6 -29.5q-3 -14 -14 -23.5t-25 -9.5q-18 0 -28.5 11.5t-7.5 29.5q3 14 15 24t25 10zM112 0h-59l132 748h59z" />
    <glyph glyph-name="Eth" unicode="&#xd0;" horiz-adv-x="787" 
d="M185 748h264q156 0 243.5 -101.5t64.5 -276.5q-24 -174 -135.5 -272t-266.5 -98h-302l62 351h-98l9 46h97zM699 377q20 151 -50.5 235.5t-202.5 84.5h-211l-53 -300h192l-9 -46h-191l-53 -300h237q132 0 226.5 86t114.5 240z" />
    <glyph glyph-name="Ntilde" unicode="&#xd1;" horiz-adv-x="742" 
d="M412 923q34 0 67 -32t58 -32q27 0 44.5 15.5t22.5 41.5h33q-4 -42 -32 -71t-64 -29q-27 0 -48 16t-39.5 32t-39.5 16q-25 0 -43 -16.5t-23 -41.5h-33q4 43 32.5 72t64.5 29zM600 0h-50l-325 637l-113 -637h-59l132 748h49l327 -638l112 638h59z" />
    <glyph glyph-name="Ograve" unicode="&#xd2;" horiz-adv-x="861" 
d="M535 795h-55l-159 135h79zM493 757q161 0 255 -104.5t73 -282.5q-14 -116 -73 -203t-146.5 -131.5t-189.5 -44.5q-161 0 -255.5 105t-73.5 282q14 116 73 203t146.5 131.5t190.5 44.5zM493 704q-136 0 -234.5 -90t-116.5 -244q-17 -150 60.5 -238t209.5 -88q135 0 234 90
t116 244q18 150 -59.5 238t-209.5 88z" />
    <glyph glyph-name="Oacute" unicode="&#xd3;" horiz-adv-x="861" 
d="M536 795h-56l182 135h81zM493 757q161 0 255 -104.5t73 -282.5q-14 -116 -73 -203t-146.5 -131.5t-189.5 -44.5q-161 0 -255.5 105t-73.5 282q14 116 73 203t146.5 131.5t190.5 44.5zM493 704q-136 0 -234.5 -90t-116.5 -244q-17 -150 60.5 -238t209.5 -88q135 0 234 90
t116 244q18 150 -59.5 238t-209.5 88z" />
    <glyph glyph-name="Ocircumflex" unicode="&#xd4;" horiz-adv-x="861" 
d="M654 795h-48l-78 98l-115 -98h-52l145 135h52zM493 757q161 0 255 -104.5t73 -282.5q-14 -116 -73 -203t-146.5 -131.5t-189.5 -44.5q-161 0 -255.5 105t-73.5 282q14 116 73 203t146.5 131.5t190.5 44.5zM493 704q-136 0 -234.5 -90t-116.5 -244q-17 -150 60.5 -238
t209.5 -88q135 0 234 90t116 244q18 150 -59.5 238t-209.5 88z" />
    <glyph glyph-name="Otilde" unicode="&#xd5;" horiz-adv-x="861" 
d="M457 923q21 0 39 -10t28 -22t25.5 -22t32.5 -10q27 0 44.5 15.5t22.5 41.5h33q-4 -42 -32 -71t-64 -29q-27 0 -48 16t-39.5 32t-39.5 16q-25 0 -43 -16.5t-23 -41.5h-33q4 43 32.5 72t64.5 29zM493 757q161 0 255 -104.5t73 -282.5q-14 -116 -73 -203t-146.5 -131.5
t-189.5 -44.5q-161 0 -255.5 105t-73.5 282q14 116 73 203t146.5 131.5t190.5 44.5zM493 704q-136 0 -234.5 -90t-116.5 -244q-17 -150 60.5 -238t209.5 -88q135 0 234 90t116 244q18 150 -59.5 238t-209.5 88z" />
    <glyph glyph-name="Odieresis" unicode="&#xd6;" horiz-adv-x="861" 
d="M461 901q18 0 28 -12.5t7 -29.5q-3 -14 -14.5 -23.5t-25.5 -9.5q-18 0 -28 11.5t-7 29.5q3 14 14.5 24t25.5 10zM588 901q19 0 29 -12.5t6 -29.5q-3 -14 -14 -23.5t-25 -9.5q-18 0 -28.5 11.5t-7.5 29.5q3 14 15 24t25 10zM493 757q161 0 255 -104.5t73 -282.5
q-14 -116 -73 -203t-146.5 -131.5t-189.5 -44.5q-161 0 -255.5 105t-73.5 282q14 116 73 203t146.5 131.5t190.5 44.5zM493 704q-136 0 -234.5 -90t-116.5 -244q-17 -150 60.5 -238t209.5 -88q135 0 234 90t116 244q18 150 -59.5 238t-209.5 88z" />
    <glyph glyph-name="multiply" unicode="&#xd7;" horiz-adv-x="511" 
d="M503 527l-189 -160l135 -163l-42 -35l-134 163l-195 -166l-34 40l195 165l-134 163l40 36l135 -165l190 162z" />
    <glyph glyph-name="Oslash" unicode="&#xd8;" horiz-adv-x="861" 
d="M820 750l-82 -87q105 -107 83 -293q-14 -116 -73 -203t-146.5 -131.5t-189.5 -44.5q-139 0 -230 79l-92 -98l-33 28l95 101q-90 106 -69 277q14 116 73 203t146.5 131.5t190.5 44.5q125 0 213 -65l81 86zM142 370q-16 -137 50 -226l475 506q-73 54 -174 54
q-136 0 -234.5 -90t-116.5 -244zM762 378q19 151 -63 243l-477 -509q74 -68 190 -68q135 0 234 90t116 244z" />
    <glyph glyph-name="Ugrave" unicode="&#xd9;" horiz-adv-x="758" 
d="M499 795h-55l-159 135h79zM754 748l-85 -481q-24 -134 -112 -205t-220 -71q-133 0 -199.5 72.5t-42.5 206.5l85 478h59l-86 -479q-20 -110 30.5 -167.5t155.5 -57.5q108 0 180 58t92 168l84 478h59z" />
    <glyph glyph-name="Uacute" unicode="&#xda;" horiz-adv-x="758" 
d="M500 795h-56l182 135h81zM754 748l-85 -481q-24 -134 -112 -205t-220 -71q-133 0 -199.5 72.5t-42.5 206.5l85 478h59l-86 -479q-20 -110 30.5 -167.5t155.5 -57.5q108 0 180 58t92 168l84 478h59z" />
    <glyph glyph-name="Ucircumflex" unicode="&#xdb;" horiz-adv-x="758" 
d="M619 795h-48l-78 98l-115 -98h-52l145 135h52zM754 748l-85 -481q-24 -134 -112 -205t-220 -71q-133 0 -199.5 72.5t-42.5 206.5l85 478h59l-86 -479q-20 -110 30.5 -167.5t155.5 -57.5q108 0 180 58t92 168l84 478h59z" />
    <glyph glyph-name="Udieresis" unicode="&#xdc;" horiz-adv-x="758" 
d="M426 901q18 0 28 -12.5t7 -29.5q-3 -14 -14.5 -23.5t-25.5 -9.5q-18 0 -28 11.5t-7 29.5q3 14 14.5 24t25.5 10zM553 901q19 0 29 -12.5t6 -29.5q-3 -14 -14 -23.5t-25 -9.5q-18 0 -28.5 11.5t-7.5 29.5q3 14 15 24t25 10zM754 748l-85 -481q-24 -134 -112 -205t-220 -71
q-133 0 -199.5 72.5t-42.5 206.5l85 478h59l-86 -479q-20 -110 30.5 -167.5t155.5 -57.5q108 0 180 58t92 168l84 478h59z" />
    <glyph glyph-name="Yacute" unicode="&#xdd;" horiz-adv-x="666" 
d="M455 795h-56l182 135h81zM375 322l-57 -322h-59l57 322l-208 426h65l178 -365l307 365h75z" />
    <glyph glyph-name="Thorn" unicode="&#xde;" horiz-adv-x="624" 
d="M225 639h198q98 0 152 -58t35 -162q-18 -101 -90.5 -157t-168.5 -56h-203l-36 -206h-59l132 748h59zM216 586l-58 -327h192q72 0 129.5 44t71.5 124q14 77 -26.5 118t-112.5 41h-196z" />
    <glyph glyph-name="germandbls" unicode="&#xdf;" horiz-adv-x="621" 
d="M377 785q89 0 133 -42.5t32 -113.5q-5 -33 -24 -59t-39 -40.5t-38.5 -37.5t-23.5 -51q-4 -25 11 -47t38 -42t46 -43t35 -60t4 -84q-14 -81 -76.5 -127t-151.5 -46q-59 0 -100 16l17 46q39 -15 79 -15q70 0 118.5 35t60.5 100q7 40 -6 72t-36 54l-46.5 42.5t-38 47.5
t-9.5 58q5 32 23.5 56.5t38.5 38t38.5 35.5t23.5 49q9 51 -20 81t-89 30q-65 0 -111 -37t-56 -95l-107 -606h-56l108 611q14 78 75 126t147 48z" />
    <glyph glyph-name="agrave" unicode="&#xe0;" horiz-adv-x="533" 
d="M346 593h-45l-97 191h63zM306 515q86 0 125 -56t22 -154l-55 -305h-52l16 87q-59 -96 -184 -96q-74 0 -113 38t-28 105q11 69 67.5 103.5t144.5 39.5l144 8l4 24q14 75 -10 115.5t-86 40.5q-64 0 -106.5 -38t-51.5 -90l-55 4q12 70 71.5 122t146.5 52zM385 238l-132 -8
q-72 -4 -113 -26.5t-47 -72.5q-7 -45 17.5 -68t73.5 -23q70 0 123.5 42t72.5 133z" />
    <glyph glyph-name="aacute" unicode="&#xe1;" horiz-adv-x="533" 
d="M345 593h-46l146 191h65zM306 515q86 0 125 -56t22 -154l-55 -305h-52l16 87q-59 -96 -184 -96q-74 0 -113 38t-28 105q11 69 67.5 103.5t144.5 39.5l144 8l4 24q14 75 -10 115.5t-86 40.5q-64 0 -106.5 -38t-51.5 -90l-55 4q12 70 71.5 122t146.5 52zM385 238l-132 -8
q-72 -4 -113 -26.5t-47 -72.5q-7 -45 17.5 -68t73.5 -23q70 0 123.5 42t72.5 133z" />
    <glyph glyph-name="acircumflex" unicode="&#xe2;" horiz-adv-x="533" 
d="M471 594h-48l-75 125l-121 -125h-51l151 166h52zM306 515q86 0 125 -56t22 -154l-55 -305h-52l16 87q-59 -96 -184 -96q-74 0 -113 38t-28 105q11 69 67.5 103.5t144.5 39.5l144 8l4 24q14 75 -10 115.5t-86 40.5q-64 0 -106.5 -38t-51.5 -90l-55 4q12 70 71.5 122
t146.5 52zM385 238l-132 -8q-72 -4 -113 -26.5t-47 -72.5q-7 -45 17.5 -68t73.5 -23q70 0 123.5 42t72.5 133z" />
    <glyph glyph-name="atilde" unicode="&#xe3;" horiz-adv-x="533" 
d="M271 723q33 0 67 -32t59 -32q26 0 43 16t23 41h34q-4 -42 -32.5 -71t-64.5 -29q-27 0 -48 16t-39.5 32t-39.5 16q-25 0 -42.5 -16t-23.5 -41h-33q4 42 32.5 71t64.5 29zM306 515q86 0 125 -56t22 -154l-55 -305h-52l16 87q-59 -96 -184 -96q-74 0 -113 38t-28 105
q11 69 67.5 103.5t144.5 39.5l144 8l4 24q14 75 -10 115.5t-86 40.5q-64 0 -106.5 -38t-51.5 -90l-55 4q12 70 71.5 122t146.5 52zM385 238l-132 -8q-72 -4 -113 -26.5t-47 -72.5q-7 -45 17.5 -68t73.5 -23q70 0 123.5 42t72.5 133z" />
    <glyph glyph-name="adieresis" unicode="&#xe4;" horiz-adv-x="533" 
d="M275 719q18 0 28 -12t7 -29q-3 -15 -14.5 -24t-25.5 -9q-18 0 -28 11.5t-7 29.5q2 14 14 23.5t26 9.5zM403 719q18 0 27.5 -12t6.5 -29q-7 -33 -39 -33q-18 0 -28.5 11.5t-7.5 29.5q2 13 14.5 23t26.5 10zM306 515q86 0 125 -56t22 -154l-55 -305h-52l16 87
q-59 -96 -184 -96q-74 0 -113 38t-28 105q11 69 67.5 103.5t144.5 39.5l144 8l4 24q14 75 -10 115.5t-86 40.5q-64 0 -106.5 -38t-51.5 -90l-55 4q12 70 71.5 122t146.5 52zM385 238l-132 -8q-72 -4 -113 -26.5t-47 -72.5q-7 -45 17.5 -68t73.5 -23q70 0 123.5 42t72.5 133z
" />
    <glyph glyph-name="aring" unicode="&#xe5;" horiz-adv-x="533" 
d="M354 786q46 0 72 -29.5t18 -73.5q-7 -41 -40.5 -68t-75.5 -27q-47 0 -73.5 29t-18.5 74q8 41 42 68t76 27zM350 751q-30 0 -52.5 -18t-27.5 -46q-4 -28 13 -46.5t46 -18.5t51 17.5t27 45.5t-12 47t-45 19zM306 515q86 0 125 -56t22 -154l-55 -305h-52l16 87
q-59 -96 -184 -96q-74 0 -113 38t-28 105q11 69 67.5 103.5t144.5 39.5l144 8l4 24q14 75 -10 115.5t-86 40.5q-64 0 -106.5 -38t-51.5 -90l-55 4q12 70 71.5 122t146.5 52zM385 238l-132 -8q-72 -4 -113 -26.5t-47 -72.5q-7 -45 17.5 -68t73.5 -23q70 0 123.5 42t72.5 133z
" />
    <glyph glyph-name="ae" unicode="&#xe6;" horiz-adv-x="915" 
d="M663 515q109 0 162.5 -69t36.5 -180l-5 -34h-413q-10 -91 34.5 -141.5t123.5 -50.5q66 0 113.5 29.5t68.5 80.5l56 -4q-27 -72 -90.5 -113.5t-147.5 -41.5q-73 0 -126.5 33.5t-76.5 95.5q-37 -62 -94 -95.5t-124 -33.5q-76 0 -115 39t-29 105q11 68 67.5 102.5
t143.5 40.5l145 9l3 11l2 11q15 74 -10.5 115t-86.5 41q-64 0 -106 -38t-51 -90l-56 4q13 70 72 122t143 52q121 0 147 -103q78 103 213 103zM663 465q-80 0 -138 -48.5t-75 -137.5h358v2q12 84 -25.5 134t-119.5 50zM188 40q68 0 121 42.5t72 135.5l4 21l-136 -8
q-143 -10 -156 -98q-7 -45 19 -69t76 -24z" />
    <glyph glyph-name="ccedilla" unicode="&#xe7;" horiz-adv-x="570" 
d="M533 327l-55 -3q1 67 -38.5 104.5t-107.5 37.5q-85 0 -145 -57.5t-73 -159.5q-14 -98 30.5 -153.5t125.5 -55.5q69 0 118.5 35t69.5 96l55 -6q-25 -81 -88 -126.5t-150 -47.5l-19 -55q52 -2 77.5 -26.5t17.5 -69.5q-6 -40 -42.5 -62.5t-80.5 -22.5q-62 0 -100 24l14 34
q32 -22 79 -22q33 0 58 13.5t30 40.5q5 29 -14 45.5t-58 16.5q-17 0 -28 -3l35 88q-98 9 -150 79t-36 186q16 121 92 189.5t181 68.5q92 0 147.5 -51t54.5 -137z" />
    <glyph glyph-name="egrave" unicode="&#xe8;" horiz-adv-x="587" 
d="M331 593l-97 191h63l79 -191h-45zM334 515q108 0 161.5 -69t36.5 -180l-5 -34h-413q-10 -91 34.5 -141.5t124.5 -50.5q65 0 112.5 29.5t69.5 80.5l56 -4q-28 -72 -91 -113.5t-148 -41.5q-109 0 -170 71.5t-44 194.5q17 120 93.5 189t182.5 69zM333 465q-80 0 -138 -49
t-74 -137h357v2q13 84 -25 134t-120 50z" />
    <glyph glyph-name="eacute" unicode="&#xe9;" horiz-adv-x="587" 
d="M375 593h-46l146 191h65zM334 515q108 0 161.5 -69t36.5 -180l-5 -34h-413q-10 -91 34.5 -141.5t124.5 -50.5q65 0 112.5 29.5t69.5 80.5l56 -4q-28 -72 -91 -113.5t-148 -41.5q-109 0 -170 71.5t-44 194.5q17 120 93.5 189t182.5 69zM333 465q-80 0 -138 -49t-74 -137
h357v2q13 84 -25 134t-120 50z" />
    <glyph glyph-name="ecircumflex" unicode="&#xea;" horiz-adv-x="587" 
d="M257 594h-51l151 166h52l92 -166h-48l-75 125zM334 515q108 0 161.5 -69t36.5 -180l-5 -34h-413q-10 -91 34.5 -141.5t124.5 -50.5q65 0 112.5 29.5t69.5 80.5l56 -4q-28 -72 -91 -113.5t-148 -41.5q-109 0 -170 71.5t-44 194.5q17 120 93.5 189t182.5 69zM333 465
q-80 0 -138 -49t-74 -137h357v2q13 84 -25 134t-120 50z" />
    <glyph glyph-name="edieresis" unicode="&#xeb;" horiz-adv-x="587" 
d="M300 645q-18 0 -28 11.5t-7 29.5q2 14 14 23.5t26 9.5q18 0 28 -12t7 -29q-3 -15 -14.5 -24t-25.5 -9zM428 645q-18 0 -28.5 11.5t-7.5 29.5q2 13 14.5 23t26.5 10q18 0 27.5 -12t6.5 -29q-7 -33 -39 -33zM334 515q108 0 161.5 -69t36.5 -180l-5 -34h-413
q-10 -91 34.5 -141.5t124.5 -50.5q65 0 112.5 29.5t69.5 80.5l56 -4q-28 -72 -91 -113.5t-148 -41.5q-109 0 -170 71.5t-44 194.5q17 120 93.5 189t182.5 69zM333 465q-80 0 -138 -49t-74 -137h357v2q13 84 -25 134t-120 50z" />
    <glyph glyph-name="igrave" unicode="&#xec;" 
d="M207 593h-45l-97 191h63zM106 0h-56l90 506h56z" />
    <glyph glyph-name="iacute" unicode="&#xed;" 
d="M206 593h-46l146 191h65zM106 0h-56l90 506h56z" />
    <glyph glyph-name="icircumflex" unicode="&#xee;" 
d="M332 594h-48l-75 125l-121 -125h-51l151 166h52zM106 0h-56l90 506h56z" />
    <glyph glyph-name="idieresis" unicode="&#xef;" 
d="M135 719q18 0 28 -12t7 -29q-3 -15 -14.5 -24t-25.5 -9q-18 0 -28 11.5t-7 29.5q2 14 14 23.5t26 9.5zM263 719q18 0 27.5 -12t6.5 -29q-7 -33 -39 -33q-18 0 -28.5 11.5t-7.5 29.5q2 13 14.5 23t26.5 10zM106 0h-56l90 506h56z" />
    <glyph glyph-name="eth" unicode="&#xf0;" horiz-adv-x="603" 
d="M578 763l-123 -79q128 -141 76 -439q-22 -124 -94.5 -189t-173.5 -65q-105 0 -167 69t-42 183q19 110 92 174t172 64q110 0 172 -75q0 164 -77 250l-123 -79l-23 28l119 76q-66 53 -171 54l4 42q129 0 211 -69l125 80zM264 37q79 0 136.5 52t74.5 149l2 9q11 85 -34 137
t-123 52q-82 0 -139.5 -54.5t-72.5 -146.5q-15 -90 30.5 -144t125.5 -54z" />
    <glyph glyph-name="ntilde" unicode="&#xf1;" horiz-adv-x="604" 
d="M318 723q27 0 47.5 -16t39 -32t39.5 -16q26 0 43 16t23 41h34q-4 -42 -32.5 -71t-64.5 -29q-27 0 -48 16t-39.5 32t-39.5 16q-25 0 -42.5 -16t-23.5 -41h-33q4 42 32.5 71t64.5 29zM357 515q85 0 133 -57.5t32 -149.5l-54 -308h-56l53 304q13 71 -21 115t-100 44
q-70 0 -120.5 -46.5t-62.5 -112.5l-55 -304h-56l90 506h53l-16 -85q22 40 70 67t110 27z" />
    <glyph glyph-name="ograve" unicode="&#xf2;" horiz-adv-x="627" 
d="M387 593h-45l-97 191h63zM343 515q112 0 176.5 -72.5t48.5 -193.5q-15 -117 -96 -187.5t-188 -70.5q-113 0 -177 72.5t-48 193.5q15 117 95.5 187.5t188.5 70.5zM344 466q-87 0 -152 -58.5t-78 -158.5q-12 -97 36 -153t133 -56q88 0 153 58.5t78 158.5q12 96 -37 152.5
t-133 56.5z" />
    <glyph glyph-name="oacute" unicode="&#xf3;" horiz-adv-x="627" 
d="M386 593h-46l146 191h65zM343 515q112 0 176.5 -72.5t48.5 -193.5q-15 -117 -96 -187.5t-188 -70.5q-113 0 -177 72.5t-48 193.5q15 117 95.5 187.5t188.5 70.5zM344 466q-87 0 -152 -58.5t-78 -158.5q-12 -97 36 -153t133 -56q88 0 153 58.5t78 158.5q12 96 -37 152.5
t-133 56.5z" />
    <glyph glyph-name="ocircumflex" unicode="&#xf4;" horiz-adv-x="627" 
d="M512 594h-48l-75 125l-121 -125h-51l151 166h52zM343 515q112 0 176.5 -72.5t48.5 -193.5q-15 -117 -96 -187.5t-188 -70.5q-113 0 -177 72.5t-48 193.5q15 117 95.5 187.5t188.5 70.5zM344 466q-87 0 -152 -58.5t-78 -158.5q-12 -97 36 -153t133 -56q88 0 153 58.5
t78 158.5q12 96 -37 152.5t-133 56.5z" />
    <glyph glyph-name="otilde" unicode="&#xf5;" horiz-adv-x="627" 
d="M312 723q27 0 47.5 -16t39 -32t39.5 -16q26 0 43 16t23 41h34q-4 -42 -32.5 -71t-64.5 -29q-27 0 -48 16t-39.5 32t-39.5 16q-25 0 -42.5 -16t-23.5 -41h-33q4 42 32.5 71t64.5 29zM343 515q112 0 176.5 -72.5t48.5 -193.5q-15 -117 -96 -187.5t-188 -70.5
q-113 0 -177 72.5t-48 193.5q15 117 95.5 187.5t188.5 70.5zM344 466q-87 0 -152 -58.5t-78 -158.5q-12 -97 36 -153t133 -56q88 0 153 58.5t78 158.5q12 96 -37 152.5t-133 56.5z" />
    <glyph glyph-name="odieresis" unicode="&#xf6;" horiz-adv-x="627" 
d="M315 719q18 0 28 -12t7 -29q-3 -15 -14.5 -24t-25.5 -9q-18 0 -28 11.5t-7 29.5q2 14 14 23.5t26 9.5zM443 719q18 0 27.5 -12t6.5 -29q-7 -33 -39 -33q-18 0 -28.5 11.5t-7.5 29.5q2 13 14.5 23t26.5 10zM343 515q112 0 176.5 -72.5t48.5 -193.5q-15 -117 -96 -187.5
t-188 -70.5q-113 0 -177 72.5t-48 193.5q15 117 95.5 187.5t188.5 70.5zM344 466q-87 0 -152 -58.5t-78 -158.5q-12 -97 36 -153t133 -56q88 0 153 58.5t78 158.5q12 96 -37 152.5t-133 56.5z" />
    <glyph glyph-name="divide" unicode="&#xf7;" horiz-adv-x="546" 
d="M331 612q21 0 33 -14t8 -35q-3 -16 -16.5 -27.5t-30.5 -11.5q-20 0 -31.5 13.5t-7.5 33.5q3 17 16 29t29 12zM527 344h-478l10 52h478zM262 216q20 0 31.5 -14t8.5 -34q-3 -17 -17 -28.5t-30 -11.5q-20 0 -32 14t-8 34q3 17 17 28.5t30 11.5z" />
    <glyph glyph-name="oslash" unicode="&#xf8;" horiz-adv-x="627" 
d="M576 504l-57 -61q65 -73 49 -194q-15 -117 -96 -187.5t-188 -70.5q-87 0 -146 44l-58 -62l-30 24l60 64q-67 74 -51 196q15 117 95.5 187.5t188.5 70.5q89 0 149 -46l55 59zM114 249q-12 -92 33 -149l309 330q-45 36 -112 36q-87 0 -152 -58.5t-78 -158.5zM514 257
q12 89 -32 146l-308 -330q46 -33 109 -33q88 0 153 58.5t78 158.5z" />
    <glyph glyph-name="ugrave" unicode="&#xf9;" horiz-adv-x="585" 
d="M378 593h-45l-97 191h63zM445 0h-52l15 88q-23 -41 -68.5 -69t-106.5 -28q-85 0 -127.5 54.5t-26.5 143.5l56 317h56l-54 -307q-13 -71 16.5 -113t93.5 -42q69 0 117.5 46t59.5 110l55 306h55z" />
    <glyph glyph-name="uacute" unicode="&#xfa;" horiz-adv-x="585" 
d="M377 593h-46l146 191h65zM445 0h-52l15 88q-23 -41 -68.5 -69t-106.5 -28q-85 0 -127.5 54.5t-26.5 143.5l56 317h56l-54 -307q-13 -71 16.5 -113t93.5 -42q69 0 117.5 46t59.5 110l55 306h55z" />
    <glyph glyph-name="ucircumflex" unicode="&#xfb;" horiz-adv-x="585" 
d="M503 594h-48l-75 125l-121 -125h-51l151 166h52zM445 0h-52l15 88q-23 -41 -68.5 -69t-106.5 -28q-85 0 -127.5 54.5t-26.5 143.5l56 317h56l-54 -307q-13 -71 16.5 -113t93.5 -42q69 0 117.5 46t59.5 110l55 306h55z" />
    <glyph glyph-name="udieresis" unicode="&#xfc;" horiz-adv-x="585" 
d="M306 719q18 0 28 -12t7 -29q-3 -15 -14.5 -24t-25.5 -9q-18 0 -28 11.5t-7 29.5q2 14 14 23.5t26 9.5zM434 719q18 0 27.5 -12t6.5 -29q-7 -33 -39 -33q-18 0 -28.5 11.5t-7.5 29.5q2 13 14.5 23t26.5 10zM445 0h-52l15 88q-23 -41 -68.5 -69t-106.5 -28
q-85 0 -127.5 54.5t-26.5 143.5l56 317h56l-54 -307q-13 -71 16.5 -113t93.5 -42q69 0 117.5 46t59.5 110l55 306h55z" />
    <glyph glyph-name="yacute" unicode="&#xfd;" horiz-adv-x="514" 
d="M340 593h-46l146 191h65zM73 -255h-65l177 288l-120 473h60l100 -412l247 412h64z" />
    <glyph glyph-name="thorn" unicode="&#xfe;" horiz-adv-x="643" 
d="M243 777l-64 -356q64 94 198 94q108 0 167.5 -72t42.5 -194q-17 -120 -93 -189t-181 -69q-144 0 -188 104l-64 -350h-55l182 1032h55zM366 465q-82 0 -139 -49t-72 -143l-7 -41q-16 -92 30.5 -142.5t129.5 -50.5q85 0 147 56t76 156t-33.5 157t-131.5 57z" />
    <glyph glyph-name="ydieresis" unicode="&#xff;" horiz-adv-x="514" 
d="M269 719q18 0 28 -12t7 -29q-3 -15 -14.5 -24t-25.5 -9q-18 0 -28 11.5t-7 29.5q2 14 14 23.5t26 9.5zM397 719q18 0 27.5 -12t6.5 -29q-7 -33 -39 -33q-18 0 -28.5 11.5t-7.5 29.5q2 13 14.5 23t26.5 10zM73 -255h-65l177 288l-120 473h60l100 -412l247 412h64z" />
    <glyph glyph-name="Amacron" unicode="&#x100;" horiz-adv-x="706" 
d="M581 844h-245l8 44h245zM643 0h-64l-50 219h-362l-127 -219h-65l440 748h51zM196 266h321l-92 391z" />
    <glyph glyph-name="amacron" unicode="&#x101;" horiz-adv-x="533" 
d="M455 643h-245l8 44h245zM306 515q86 0 125 -56t22 -154l-55 -305h-52l16 87q-59 -96 -184 -96q-74 0 -113 38t-28 105q11 69 67.5 103.5t144.5 39.5l144 8l4 24q14 75 -10 115.5t-86 40.5q-64 0 -106.5 -38t-51.5 -90l-55 4q12 70 71.5 122t146.5 52zM385 238l-132 -8
q-72 -4 -113 -26.5t-47 -72.5q-7 -45 17.5 -68t73.5 -23q70 0 123.5 42t72.5 133z" />
    <glyph glyph-name="Abreve" unicode="&#x102;" horiz-adv-x="706" 
d="M568 926h45q-10 -56 -52 -86.5t-104 -30.5q-67 0 -101.5 31.5t-24.5 85.5h46q-6 -36 16.5 -56.5t65.5 -20.5t72.5 21.5t36.5 55.5zM643 0h-64l-50 219h-362l-127 -219h-65l440 748h51zM196 266h321l-92 391z" />
    <glyph glyph-name="abreve" unicode="&#x103;" horiz-adv-x="533" 
d="M441 718h45q-10 -56 -52 -86.5t-104 -30.5q-67 0 -101.5 31.5t-24.5 85.5h46q-6 -36 16 -56t65 -20q44 0 73.5 21t36.5 55zM306 515q86 0 125 -56t22 -154l-55 -305h-52l16 87q-59 -96 -184 -96q-74 0 -113 38t-28 105q11 69 67.5 103.5t144.5 39.5l144 8l4 24
q14 75 -10 115.5t-86 40.5q-64 0 -106.5 -38t-51.5 -90l-55 4q12 70 71.5 122t146.5 52zM385 238l-132 -8q-72 -4 -113 -26.5t-47 -72.5q-7 -45 17.5 -68t73.5 -23q70 0 123.5 42t72.5 133z" />
    <glyph glyph-name="Aogonek" unicode="&#x104;" horiz-adv-x="706" 
d="M643 0h-29q-57 -25 -87.5 -49t-35.5 -56q-4 -23 10 -35.5t41 -12.5q34 0 63 13l5 -31q-38 -15 -75 -15q-45 0 -69.5 21.5t-17.5 60.5q12 68 128 116l-47 207h-362l-127 -219h-65l440 748h51zM517 266l-92 391l-229 -391h321z" />
    <glyph glyph-name="aogonek" unicode="&#x105;" horiz-adv-x="533" 
d="M306 515q86 0 125 -56t22 -154l-55 -305h-4q-56 -25 -86 -49t-35 -55q-4 -23 10 -35.5t41 -12.5q34 0 63 13l5 -31q-38 -15 -75 -15q-45 0 -69.5 21.5t-17.5 60.5q12 66 118 111l14 79q-59 -96 -184 -96q-74 0 -113 38t-28 105q11 69 67.5 103.5t144.5 39.5l144 8l4 24
q14 75 -10 115.5t-86 40.5q-64 0 -106.5 -38t-51.5 -90l-55 4q12 70 71.5 122t146.5 52zM184 40q70 0 123.5 42t72.5 133l5 23l-132 -8q-72 -4 -113 -26.5t-47 -72.5q-7 -45 17.5 -68t73.5 -23z" />
    <glyph glyph-name="Cacute" unicode="&#x106;" horiz-adv-x="799" 
d="M519 795h-56l182 135h81zM487 757q134 0 218.5 -74.5t83.5 -198.5l-61 -4q1 104 -67 164t-176 60q-135 0 -229.5 -89t-113.5 -245q-20 -153 53.5 -239.5t202.5 -86.5q110 0 191 55.5t112 155.5l60 -7q-36 -119 -134 -188t-227 -69q-161 0 -250.5 103.5t-66.5 283.5
q23 177 135 278t269 101z" />
    <glyph glyph-name="cacute" unicode="&#x107;" horiz-adv-x="570" 
d="M367 593h-46l146 191h65zM331 515q92 0 147.5 -51t54.5 -137l-55 -3q1 67 -38.5 104.5t-107.5 37.5q-85 0 -145 -57.5t-73 -159.5q-14 -98 30.5 -153.5t125.5 -55.5q69 0 118.5 35t69.5 96l55 -6q-25 -82 -89.5 -128t-152.5 -46q-109 0 -169.5 71t-43.5 195
q16 121 92 189.5t181 68.5z" />
    <glyph glyph-name="Ccircumflex" unicode="&#x108;" horiz-adv-x="799" 
d="M637 795h-48l-78 98l-115 -98h-52l145 135h52zM487 757q134 0 218.5 -74.5t83.5 -198.5l-61 -4q1 104 -67 164t-176 60q-135 0 -229.5 -89t-113.5 -245q-20 -153 53.5 -239.5t202.5 -86.5q110 0 191 55.5t112 155.5l60 -7q-36 -119 -134 -188t-227 -69
q-161 0 -250.5 103.5t-66.5 283.5q23 177 135 278t269 101z" />
    <glyph glyph-name="ccircumflex" unicode="&#x109;" horiz-adv-x="570" 
d="M492 594h-48l-75 125l-121 -125h-51l151 166h52zM331 515q92 0 147.5 -51t54.5 -137l-55 -3q1 67 -38.5 104.5t-107.5 37.5q-85 0 -145 -57.5t-73 -159.5q-14 -98 30.5 -153.5t125.5 -55.5q69 0 118.5 35t69.5 96l55 -6q-25 -82 -89.5 -128t-152.5 -46q-109 0 -169.5 71
t-43.5 195q16 121 92 189.5t181 68.5z" />
    <glyph glyph-name="Cdotaccent" unicode="&#x10a;" horiz-adv-x="799" 
d="M506 900q20 0 31.5 -13.5t8.5 -33.5q-3 -16 -16.5 -27.5t-29.5 -11.5q-20 0 -31 14t-7 33q2 16 15.5 27.5t28.5 11.5zM487 757q134 0 218.5 -74.5t83.5 -198.5l-61 -4q1 104 -67 164t-176 60q-135 0 -229.5 -89t-113.5 -245q-20 -153 53.5 -239.5t202.5 -86.5
q110 0 191 55.5t112 155.5l60 -7q-36 -119 -134 -188t-227 -69q-161 0 -250.5 103.5t-66.5 283.5q23 177 135 278t269 101z" />
    <glyph glyph-name="cdotaccent" unicode="&#x10b;" horiz-adv-x="570" 
d="M363 723q20 0 31.5 -13.5t7.5 -33.5q-2 -16 -16 -27.5t-30 -11.5q-19 0 -30.5 14t-7.5 33q3 16 16.5 27.5t28.5 11.5zM331 515q92 0 147.5 -51t54.5 -137l-55 -3q1 67 -38.5 104.5t-107.5 37.5q-85 0 -145 -57.5t-73 -159.5q-14 -98 30.5 -153.5t125.5 -55.5
q69 0 118.5 35t69.5 96l55 -6q-25 -82 -89.5 -128t-152.5 -46q-109 0 -169.5 71t-43.5 195q16 121 92 189.5t181 68.5z" />
    <glyph glyph-name="Ccaron" unicode="&#x10c;" horiz-adv-x="799" 
d="M517 795h-51l-97 135h49l78 -98l115 98h51zM487 757q134 0 218.5 -74.5t83.5 -198.5l-61 -4q1 104 -67 164t-176 60q-135 0 -229.5 -89t-113.5 -245q-20 -153 53.5 -239.5t202.5 -86.5q110 0 191 55.5t112 155.5l60 -7q-36 -119 -134 -188t-227 -69q-161 0 -250.5 103.5
t-66.5 283.5q23 177 135 278t269 101z" />
    <glyph glyph-name="ccaron" unicode="&#x10d;" horiz-adv-x="570" 
d="M372 592h-52l-92 165h49l74 -125l121 125h51zM331 515q92 0 147.5 -51t54.5 -137l-55 -3q1 67 -38.5 104.5t-107.5 37.5q-85 0 -145 -57.5t-73 -159.5q-14 -98 30.5 -153.5t125.5 -55.5q69 0 118.5 35t69.5 96l55 -6q-25 -82 -89.5 -128t-152.5 -46q-109 0 -169.5 71
t-43.5 195q16 121 92 189.5t181 68.5z" />
    <glyph glyph-name="Dcaron" unicode="&#x10e;" horiz-adv-x="797" 
d="M473 795h-51l-97 135h49l78 -98l115 98h51zM185 748h264q156 0 243.5 -101.5t64.5 -276.5q-24 -174 -135.5 -272t-266.5 -98h-302zM235 697l-114 -646h237q132 0 226.5 86t114.5 240q20 151 -50.5 235.5t-202.5 84.5h-211z" />
    <glyph glyph-name="dcaron" unicode="&#x10f;" horiz-adv-x="724" 
d="M586 777h56l-137 -777h-52l15 86q-64 -95 -200 -95q-108 0 -167.5 72t-42.5 194q17 120 93 189t181 69q144 0 188 -105zM750 736q22 0 32 -15t5 -40q-20 -110 -119 -166l1 29q58 42 74 106q-19 1 -29.5 14.5t-6.5 32.5q3 16 15.5 27.5t27.5 11.5zM490 232l7 42
q16 92 -30.5 142t-129.5 50q-85 0 -147 -56t-76 -156t33.5 -157t131.5 -57q82 0 139 49.5t72 142.5z" />
    <glyph glyph-name="Dcroat" unicode="&#x110;" horiz-adv-x="787" 
d="M185 748h264q156 0 243.5 -101.5t64.5 -276.5q-24 -174 -135.5 -272t-266.5 -98h-302l62 351h-98l9 46h97zM699 377q20 151 -50.5 235.5t-202.5 84.5h-211l-53 -300h192l-9 -46h-191l-53 -300h237q132 0 226.5 86t114.5 240z" />
    <glyph glyph-name="dcroat" unicode="&#x111;" horiz-adv-x="636" 
d="M702 620h-88l-109 -620h-52l15 86q-64 -95 -200 -95q-108 0 -167.5 72t-42.5 194q17 120 93 189t181 69q144 0 188 -105l38 210h-101l8 44h101l20 113h56l-20 -113h88zM490 232l7 42q16 92 -30.5 142t-129.5 50q-85 0 -147 -56t-76 -156t33.5 -157t131.5 -57
q82 0 139 49.5t72 142.5z" />
    <glyph glyph-name="Emacron" unicode="&#x112;" horiz-adv-x="588" 
d="M556 844h-245l8 44h245zM629 696h-395l-49 -282h350l-8 -52h-351l-55 -309h395l-9 -53h-454l132 748h454z" />
    <glyph glyph-name="emacron" unicode="&#x113;" horiz-adv-x="587" 
d="M485 643h-245l8 44h245zM334 515q108 0 161.5 -69t36.5 -180l-5 -34h-413q-10 -91 34.5 -141.5t124.5 -50.5q65 0 112.5 29.5t69.5 80.5l56 -4q-28 -72 -91 -113.5t-148 -41.5q-109 0 -170 71.5t-44 194.5q17 120 93.5 189t182.5 69zM333 465q-80 0 -138 -49t-74 -137
h357v2q13 84 -25 134t-120 50z" />
    <glyph glyph-name="Ebreve" unicode="&#x114;" horiz-adv-x="588" 
d="M543 926h45q-10 -56 -52 -86.5t-104 -30.5q-67 0 -101.5 31.5t-24.5 85.5h46q-6 -36 16.5 -56.5t65.5 -20.5t72.5 21.5t36.5 55.5zM629 696h-395l-49 -282h350l-8 -52h-351l-55 -309h395l-9 -53h-454l132 748h454z" />
    <glyph glyph-name="ebreve" unicode="&#x115;" horiz-adv-x="587" 
d="M360 601q-67 0 -101.5 31.5t-24.5 85.5h46q-6 -36 16 -56t65 -20q44 0 73.5 21t36.5 55h45q-10 -56 -52 -86.5t-104 -30.5zM334 515q108 0 161.5 -69t36.5 -180l-5 -34h-413q-10 -91 34.5 -141.5t124.5 -50.5q65 0 112.5 29.5t69.5 80.5l56 -4q-28 -72 -91 -113.5
t-148 -41.5q-109 0 -170 71.5t-44 194.5q17 120 93.5 189t182.5 69zM333 465q-80 0 -138 -49t-74 -137h357v2q13 84 -25 134t-120 50z" />
    <glyph glyph-name="Edotaccent" unicode="&#x116;" horiz-adv-x="588" 
d="M439 900q20 0 31.5 -13.5t8.5 -33.5q-3 -16 -16.5 -27.5t-29.5 -11.5q-20 0 -31 14t-7 33q2 16 15.5 27.5t28.5 11.5zM629 696h-395l-49 -282h350l-8 -52h-351l-55 -309h395l-9 -53h-454l132 748h454z" />
    <glyph glyph-name="edotaccent" unicode="&#x117;" horiz-adv-x="587" 
d="M365 637q-19 0 -30.5 14t-7.5 33q3 16 16.5 27.5t28.5 11.5q20 0 31.5 -13.5t7.5 -33.5q-2 -16 -16 -27.5t-30 -11.5zM334 515q108 0 161.5 -69t36.5 -180l-5 -34h-413q-10 -91 34.5 -141.5t124.5 -50.5q65 0 112.5 29.5t69.5 80.5l56 -4q-28 -72 -91 -113.5t-148 -41.5
q-109 0 -170 71.5t-44 194.5q17 120 93.5 189t182.5 69zM333 465q-80 0 -138 -49t-74 -137h357v2q13 84 -25 134t-120 50z" />
    <glyph glyph-name="Eogonek" unicode="&#x118;" horiz-adv-x="588" 
d="M234 696l-49 -282h350l-8 -52h-351l-55 -309h395l-9 -53h-12q-57 -25 -87.5 -49t-35.5 -56q-4 -23 10 -35.5t41 -12.5q34 0 63 13l5 -31q-38 -15 -75 -15q-45 0 -69.5 21.5t-17.5 60.5q11 61 101 104h-377l132 748h454l-10 -52h-395z" />
    <glyph glyph-name="eogonek" unicode="&#x119;" horiz-adv-x="587" 
d="M334 515q108 0 161.5 -69t36.5 -180l-5 -34h-413q-10 -91 34.5 -141.5t124.5 -50.5q65 0 112.5 29.5t69.5 80.5l56 -4q-25 -63 -76 -102.5t-120 -49.5q-107 -48 -114 -101q-4 -23 10 -35.5t41 -12.5q34 0 63 13l5 -31q-38 -15 -75 -15q-45 0 -69.5 21.5t-17.5 60.5
q10 58 89 98q-98 9 -151.5 79t-37.5 186q17 120 93.5 189t182.5 69zM333 465q-80 0 -138 -49t-74 -137h357v2q13 84 -25 134t-120 50z" />
    <glyph glyph-name="Ecaron" unicode="&#x11a;" horiz-adv-x="588" 
d="M450 795h-51l-97 135h49l78 -98l115 98h51zM629 696h-395l-49 -282h350l-8 -52h-351l-55 -309h395l-9 -53h-454l132 748h454z" />
    <glyph glyph-name="ecaron" unicode="&#x11b;" horiz-adv-x="587" 
d="M329 592l-92 165h49l74 -125l121 125h51l-151 -165h-52zM334 515q108 0 161.5 -69t36.5 -180l-5 -34h-413q-10 -91 34.5 -141.5t124.5 -50.5q65 0 112.5 29.5t69.5 80.5l56 -4q-28 -72 -91 -113.5t-148 -41.5q-109 0 -170 71.5t-44 194.5q17 120 93.5 189t182.5 69z
M333 465q-80 0 -138 -49t-74 -137h357v2q13 84 -25 134t-120 50z" />
    <glyph glyph-name="Gcircumflex" unicode="&#x11c;" horiz-adv-x="814" 
d="M399 795h-52l145 135h52l96 -135h-48l-78 98zM442 366h336l-3 -24q-22 -167 -123 -259t-257 -92q-158 0 -246.5 103.5t-65.5 283.5q23 177 134.5 278t267.5 101q133 0 217.5 -72.5t85.5 -197.5l-60 -6q1 104 -67.5 163.5t-176.5 59.5q-135 0 -229 -88t-113 -246
q-20 -154 51.5 -240t201.5 -86q122 0 205.5 69t106.5 200h-272z" />
    <glyph glyph-name="gcircumflex" unicode="&#x11d;" horiz-adv-x="642" 
d="M523 594h-48l-75 125l-121 -125h-51l151 166h52zM333 515q72 0 120 -28.5t69 -79.5l19 99h53l-95 -541q-18 -107 -92.5 -167.5t-179.5 -60.5q-98 0 -153 47t-58 122l56 2q1 -57 44.5 -90.5t110.5 -33.5q84 0 142.5 48t73.5 132l22 119q-63 -92 -197 -92q-108 0 -167.5 72
t-41.5 194q16 120 92.5 189t181.5 69zM337 466q-85 0 -147 -56t-76 -156t33.5 -157t131.5 -57q82 0 139 49.5t72 142.5l7 42q16 92 -30 142t-130 50z" />
    <glyph glyph-name="Gbreve" unicode="&#x11e;" horiz-adv-x="814" 
d="M502 809q-67 0 -101.5 31.5t-24.5 85.5h46q-6 -36 16.5 -56.5t65.5 -20.5t72.5 21.5t36.5 55.5h45q-10 -56 -52 -86.5t-104 -30.5zM442 366h336l-3 -24q-22 -167 -123 -259t-257 -92q-158 0 -246.5 103.5t-65.5 283.5q23 177 134.5 278t267.5 101q133 0 217.5 -72.5
t85.5 -197.5l-60 -6q1 104 -67.5 163.5t-176.5 59.5q-135 0 -229 -88t-113 -246q-20 -154 51.5 -240t201.5 -86q122 0 205.5 69t106.5 200h-272z" />
    <glyph glyph-name="gbreve" unicode="&#x11f;" horiz-adv-x="642" 
d="M493 718h45q-10 -56 -52 -86.5t-104 -30.5q-67 0 -101.5 31.5t-24.5 85.5h46q-6 -36 16 -56t65 -20q44 0 73.5 21t36.5 55zM333 515q72 0 120 -28.5t69 -79.5l19 99h53l-95 -541q-18 -107 -92.5 -167.5t-179.5 -60.5q-98 0 -153 47t-58 122l56 2q1 -57 44.5 -90.5
t110.5 -33.5q84 0 142.5 48t73.5 132l22 119q-63 -92 -197 -92q-108 0 -167.5 72t-41.5 194q16 120 92.5 189t181.5 69zM337 466q-85 0 -147 -56t-76 -156t33.5 -157t131.5 -57q82 0 139 49.5t72 142.5l7 42q16 92 -30 142t-130 50z" />
    <glyph glyph-name="Gdotaccent" unicode="&#x120;" horiz-adv-x="814" 
d="M503 814q-20 0 -31 14t-7 33q2 16 15.5 27.5t28.5 11.5q20 0 31.5 -13.5t8.5 -33.5q-3 -16 -16.5 -27.5t-29.5 -11.5zM442 366h336l-3 -24q-22 -167 -123 -259t-257 -92q-158 0 -246.5 103.5t-65.5 283.5q23 177 134.5 278t267.5 101q133 0 217.5 -72.5t85.5 -197.5
l-60 -6q1 104 -67.5 163.5t-176.5 59.5q-135 0 -229 -88t-113 -246q-20 -154 51.5 -240t201.5 -86q122 0 205.5 69t106.5 200h-272z" />
    <glyph glyph-name="gdotaccent" unicode="&#x121;" horiz-adv-x="642" 
d="M394 723q20 0 31.5 -13.5t7.5 -33.5q-2 -16 -16 -27.5t-30 -11.5q-19 0 -30.5 14t-7.5 33q3 16 16.5 27.5t28.5 11.5zM333 515q72 0 120 -28.5t69 -79.5l19 99h53l-95 -541q-18 -107 -92.5 -167.5t-179.5 -60.5q-98 0 -153 47t-58 122l56 2q1 -57 44.5 -90.5t110.5 -33.5
q84 0 142.5 48t73.5 132l22 119q-63 -92 -197 -92q-108 0 -167.5 72t-41.5 194q16 120 92.5 189t181.5 69zM337 466q-85 0 -147 -56t-76 -156t33.5 -157t131.5 -57q82 0 139 49.5t72 142.5l7 42q16 92 -30 142t-130 50z" />
    <glyph glyph-name="Gcommaaccent" unicode="&#x122;" horiz-adv-x="814" 
d="M442 366h336l-3 -24q-22 -167 -123 -259t-257 -92q-158 0 -246.5 103.5t-65.5 283.5q23 177 134.5 278t267.5 101q133 0 217.5 -72.5t85.5 -197.5l-60 -6q1 104 -67.5 163.5t-176.5 59.5q-135 0 -229 -88t-113 -246q-20 -154 51.5 -240t201.5 -86q122 0 205.5 69
t106.5 200h-272zM367 -45q22 0 32 -15t5 -40q-20 -110 -119 -166l1 29q58 42 74 106q-19 1 -29.5 14.5t-6.5 32.5q3 16 15.5 27.5t27.5 11.5z" />
    <glyph glyph-name="gcommaaccent" unicode="&#x123;" horiz-adv-x="642" 
d="M463 752q-20 -110 -119 -166l1 29q58 42 74 106q-19 1 -29.5 14.5t-6.5 32.5q3 16 15.5 27.5t27.5 11.5q22 0 32 -15t5 -40zM594 506l-95 -541q-18 -107 -92.5 -167.5t-179.5 -60.5q-98 0 -153 47t-58 122l56 2q1 -57 44.5 -90.5t110.5 -33.5q84 0 142.5 48t73.5 132
l22 119q-63 -92 -197 -92q-108 0 -167.5 72t-41.5 194q16 120 92.5 189t181.5 69q72 0 120 -28.5t69 -79.5l19 99h53zM490 232l7 42q16 92 -30 142t-130 50q-85 0 -147 -56t-76 -156t33.5 -157t131.5 -57q82 0 139 49.5t72 142.5z" />
    <glyph glyph-name="Hcircumflex" unicode="&#x124;" horiz-adv-x="748" 
d="M615 795h-48l-78 98l-115 -98h-52l145 135h52zM606 0h-59l64 363h-434l-65 -363h-59l132 748h59l-58 -332h435l58 332h59z" />
    <glyph glyph-name="hcircumflex" unicode="&#x125;" horiz-adv-x="596" 
d="M365 796h-49l-78 98l-115 -98h-51l145 135h51zM243 777l-63 -353q22 38 69 64.5t108 26.5q85 0 133 -57.5t32 -149.5l-54 -308h-56l53 304q13 71 -21 115t-100 44q-70 0 -120.5 -46.5t-62.5 -112.5l-55 -304h-56l137 777h56z" />
    <glyph glyph-name="Hbar" unicode="&#x126;" horiz-adv-x="755" 
d="M801 556h-93l-98 -556h-59l64 363h-435l-64 -363h-59l98 556h-95l8 46h95l26 146h59l-26 -146h435l26 146h59l-26 -146h93zM649 556h-435l-24 -140h434z" />
    <glyph glyph-name="hbar" unicode="&#x127;" horiz-adv-x="596" 
d="M357 515q85 0 133 -57.5t32 -149.5l-54 -308h-56l53 304q13 71 -21 115t-100 44q-70 0 -120.5 -46.5t-62.5 -112.5l-55 -304h-56l109 620h-88l8 44h88l20 113h56l-20 -113h101l-8 -44h-101l-35 -196q22 38 69 64.5t108 26.5z" />
    <glyph glyph-name="Itilde" unicode="&#x128;" horiz-adv-x="255" 
d="M172 923q21 0 39 -10t28 -22t25.5 -22t32.5 -10q27 0 44.5 15.5t22.5 41.5h33q-4 -42 -32 -71t-64 -29q-27 0 -48 16t-39.5 32t-39.5 16q-25 0 -43 -16.5t-23 -41.5h-33q4 43 32.5 72t64.5 29zM112 0h-59l132 748h59z" />
    <glyph glyph-name="itilde" unicode="&#x129;" 
d="M132 723q27 0 47.5 -16t39 -32t39.5 -16q26 0 43 16t23 41h34q-4 -42 -32.5 -71t-64.5 -29q-27 0 -48 16t-39.5 32t-39.5 16q-25 0 -42.5 -16t-23.5 -41h-33q4 42 32.5 71t64.5 29zM106 0h-56l90 506h56z" />
    <glyph glyph-name="Imacron" unicode="&#x12a;" horiz-adv-x="255" 
d="M356 844h-245l8 44h245zM112 0h-59l132 748h59z" />
    <glyph glyph-name="imacron" unicode="&#x12b;" 
d="M316 643h-245l8 44h245zM106 0h-56l90 506h56z" />
    <glyph glyph-name="Ibreve" unicode="&#x12c;" horiz-adv-x="255" 
d="M343 926h45q-10 -56 -52 -86.5t-104 -30.5q-67 0 -101.5 31.5t-24.5 85.5h46q-6 -36 16.5 -56.5t65.5 -20.5t72.5 21.5t36.5 55.5zM112 0h-59l132 748h59z" />
    <glyph glyph-name="ibreve" unicode="&#x12d;" 
d="M302 718h45q-10 -56 -52 -86.5t-104 -30.5q-67 0 -101.5 31.5t-24.5 85.5h46q-6 -36 16 -56t65 -20q44 0 73.5 21t36.5 55zM106 0h-56l90 506h56z" />
    <glyph glyph-name="Iogonek" unicode="&#x12e;" horiz-adv-x="255" 
d="M112 0h-23q-56 -25 -86 -49t-35 -55q-4 -23 10 -35.5t41 -12.5q34 0 63 13l5 -31q-38 -15 -75 -15q-45 0 -69.5 21.5t-17.5 60.5q12 69 130 117l130 734h59z" />
    <glyph glyph-name="iogonek" unicode="&#x12f;" 
d="M202 723q20 0 31.5 -13.5t7.5 -33.5q-2 -16 -16 -27.5t-30 -11.5q-19 0 -30.5 14t-7.5 33q3 16 16.5 27.5t28.5 11.5zM140 506h56l-90 -506h-13q-56 -25 -86 -49t-35 -55q-4 -23 10 -35.5t41 -12.5q34 0 63 13l5 -31q-38 -15 -75 -15q-45 0 -69.5 21.5t-17.5 60.5
q12 67 123 114z" />
    <glyph glyph-name="Idotaccent" unicode="&#x130;" horiz-adv-x="255" 
d="M238 900q20 0 31.5 -13.5t8.5 -33.5q-3 -16 -16.5 -27.5t-29.5 -11.5q-20 0 -31 14t-7 33q2 16 15.5 27.5t28.5 11.5zM112 0h-59l132 748h59z" />
    <glyph glyph-name="dotlessi" unicode="&#x131;" 
d="M106 0h-56l90 506h56z" />
    <glyph glyph-name="Jcircumflex" unicode="&#x134;" horiz-adv-x="561" 
d="M684 795h-48l-78 98l-115 -98h-52l145 135h52zM557 748l-93 -527q-19 -110 -86.5 -170t-167.5 -60q-102 0 -153 61.5t-38 165.5l60 3q-10 -85 25.5 -131t109.5 -46q75 0 125.5 46t66.5 132l93 526h58z" />
    <glyph glyph-name="jcircumflex" unicode="&#x135;" 
d="M330 594h-48l-75 125l-121 -125h-51l151 166h52zM197 506l-106 -596q-15 -86 -59.5 -128t-112.5 -42q-32 0 -62 14l26 45q16 -9 30 -9q102 0 124 120l104 596h56z" />
    <glyph glyph-name="Kcommaaccent" unicode="&#x136;" horiz-adv-x="653" 
d="M316 423l268 -423h-66l-244 380l-111 -98l-51 -282h-59l132 748h59l-68 -379l420 379h80zM277 -40q22 0 32 -15t5 -40q-20 -110 -119 -166l1 29q58 42 74 106q-19 1 -29.5 14.5t-6.5 32.5q3 16 15.5 27.5t27.5 11.5z" />
    <glyph glyph-name="kcommaaccent" unicode="&#x137;" horiz-adv-x="515" 
d="M253 281l201 -281h-65l-177 243l-73 -59l-33 -184h-56l137 777h56l-90 -513l294 242h76zM219 -40q22 0 32 -15t5 -40q-20 -110 -119 -166l1 29q58 42 74 106q-19 1 -29.5 14.5t-6.5 32.5q3 16 15.5 27.5t27.5 11.5z" />
    <glyph glyph-name="Lacute" unicode="&#x139;" horiz-adv-x="591" 
d="M253 795h-56l182 135h81zM121 53h400l-9 -53h-459l132 748h59z" />
    <glyph glyph-name="lacute" unicode="&#x13a;" 
d="M250 807h-57l183 135h80zM106 0h-56l137 777h56z" />
    <glyph glyph-name="Lcommaaccent" unicode="&#x13b;" horiz-adv-x="591" 
d="M521 53l-9 -53h-459l132 748h59l-123 -695h400zM275 -40q22 0 32 -15t5 -40q-20 -110 -119 -166l1 29q58 42 74 106q-19 1 -29.5 14.5t-6.5 32.5q3 16 15.5 27.5t27.5 11.5z" />
    <glyph glyph-name="lcommaaccent" unicode="&#x13c;" 
d="M243 777l-137 -777h-56l137 777h56zM63 -40q22 0 32 -15t5 -40q-20 -110 -119 -166l1 29q58 42 74 106q-19 1 -29.5 14.5t-6.5 32.5q3 16 15.5 27.5t27.5 11.5z" />
    <glyph glyph-name="Lcaron" unicode="&#x13d;" horiz-adv-x="591" 
d="M121 53h400l-9 -53h-459l132 748h59zM575 736q22 0 32 -15t5 -40q-20 -110 -119 -166l1 29q58 42 74 106q-19 1 -29.5 14.5t-6.5 32.5q3 16 15.5 27.5t27.5 11.5z" />
    <glyph glyph-name="lcaron" unicode="&#x13e;" horiz-adv-x="333" 
d="M187 777h56l-137 -777h-56zM356 736q22 0 32 -15t5 -40q-20 -110 -119 -166l1 29q58 42 74 106q-19 1 -29.5 14.5t-6.5 32.5q3 16 15.5 27.5t27.5 11.5z" />
    <glyph glyph-name="Ldot" unicode="&#x13f;" horiz-adv-x="591" 
d="M121 53h400l-9 -53h-459l132 748h59zM499 415q20 0 32 -14t8 -34q-3 -17 -17 -28.5t-30 -11.5q-20 0 -32 14t-8 34q3 17 17 28.5t30 11.5z" />
    <glyph glyph-name="ldot" unicode="&#x140;" horiz-adv-x="351" 
d="M107 0h-56l137 777h56zM292 325q20 0 32 -14t8 -34q-3 -17 -17 -28.5t-30 -11.5q-20 0 -32 14t-8 34q3 17 17 28.5t30 11.5z" />
    <glyph glyph-name="Lslash" unicode="&#x141;" horiz-adv-x="601" 
d="M521 53l-9 -53h-459l46 261l-99 -35v46l108 38l77 438h59l-74 -415l145 51l1 -45l-154 -55l-41 -231h400z" />
    <glyph glyph-name="lslash" unicode="&#x142;" horiz-adv-x="267" 
d="M166 282l-50 -282h-55l46 259l-114 -44l-4 45l126 49l83 468h55l-79 -446l116 45l4 -45z" />
    <glyph glyph-name="Nacute" unicode="&#x143;" horiz-adv-x="742" 
d="M492 795h-56l182 135h81zM600 0h-50l-325 637l-113 -637h-59l132 748h49l327 -638l112 638h59z" />
    <glyph glyph-name="nacute" unicode="&#x144;" horiz-adv-x="604" 
d="M392 593h-46l146 191h65zM357 515q85 0 133 -57.5t32 -149.5l-54 -308h-56l53 304q13 71 -21 115t-100 44q-70 0 -120.5 -46.5t-62.5 -112.5l-55 -304h-56l90 506h53l-16 -85q22 40 70 67t110 27z" />
    <glyph glyph-name="Ncommaaccent" unicode="&#x145;" horiz-adv-x="742" 
d="M732 748l-132 -748h-50l-325 637l-113 -637h-59l132 748h49l327 -638l112 638h59zM316 -40q22 0 32 -15t5 -40q-20 -110 -119 -166l1 29q58 42 74 106q-19 1 -29.5 14.5t-6.5 32.5q3 16 15.5 27.5t27.5 11.5z" />
    <glyph glyph-name="ncommaaccent" unicode="&#x146;" horiz-adv-x="604" 
d="M357 515q85 0 133 -57.5t32 -149.5l-54 -308h-56l53 304q13 71 -21 115t-100 44q-70 0 -120.5 -46.5t-62.5 -112.5l-55 -304h-56l90 506h53l-16 -85q22 40 70 67t110 27zM248 -40q22 0 32 -15t5 -40q-20 -110 -119 -166l1 29q58 42 74 106q-19 1 -29.5 14.5t-6.5 32.5
q3 16 15.5 27.5t27.5 11.5z" />
    <glyph glyph-name="Ncaron" unicode="&#x147;" horiz-adv-x="742" 
d="M490 795h-51l-97 135h49l78 -98l115 98h51zM600 0h-50l-325 637l-113 -637h-59l132 748h49l327 -638l112 638h59z" />
    <glyph glyph-name="ncaron" unicode="&#x148;" horiz-adv-x="604" 
d="M398 592h-52l-92 165h49l74 -125l121 125h51zM357 515q85 0 133 -57.5t32 -149.5l-54 -308h-56l53 304q13 71 -21 115t-100 44q-70 0 -120.5 -46.5t-62.5 -112.5l-55 -304h-56l90 506h53l-16 -85q22 40 70 67t110 27z" />
    <glyph glyph-name="Eng" unicode="&#x14a;" horiz-adv-x="742" 
d="M658 327l-64 -368q-18 -100 -86 -157t-169 -57l4 52q76 0 128 47t67 133l6 35l-319 625l-113 -637h-59l132 748h49l327 -638l112 638h59z" />
    <glyph glyph-name="eng" unicode="&#x14b;" horiz-adv-x="604" 
d="M357 515q85 0 133 -57.5t32 -149.5l-54 -308l-16 -90q-15 -82 -63.5 -125.5t-122.5 -43.5l7 49q47 0 80 31.5t43 90.5l43 245l26 147q13 71 -21 115t-100 44q-70 0 -120.5 -46.5t-62.5 -112.5l-55 -304h-56l90 506h53l-16 -85q22 40 70 67t110 27z" />
    <glyph glyph-name="Omacron" unicode="&#x14c;" horiz-adv-x="861" 
d="M640 844h-245l8 44h245zM493 757q161 0 255 -104.5t73 -282.5q-14 -116 -73 -203t-146.5 -131.5t-189.5 -44.5q-161 0 -255.5 105t-73.5 282q14 116 73 203t146.5 131.5t190.5 44.5zM493 704q-136 0 -234.5 -90t-116.5 -244q-17 -150 60.5 -238t209.5 -88q135 0 234 90
t116 244q18 150 -59.5 238t-209.5 88z" />
    <glyph glyph-name="omacron" unicode="&#x14d;" horiz-adv-x="627" 
d="M496 643h-245l8 44h245zM343 515q112 0 176.5 -72.5t48.5 -193.5q-15 -117 -96 -187.5t-188 -70.5q-113 0 -177 72.5t-48 193.5q15 117 95.5 187.5t188.5 70.5zM344 466q-87 0 -152 -58.5t-78 -158.5q-12 -97 36 -153t133 -56q88 0 153 58.5t78 158.5q12 96 -37 152.5
t-133 56.5z" />
    <glyph glyph-name="Obreve" unicode="&#x14e;" horiz-adv-x="861" 
d="M627 926h45q-10 -56 -52 -86.5t-104 -30.5q-67 0 -101.5 31.5t-24.5 85.5h46q-6 -36 16.5 -56.5t65.5 -20.5t72.5 21.5t36.5 55.5zM493 757q161 0 255 -104.5t73 -282.5q-14 -116 -73 -203t-146.5 -131.5t-189.5 -44.5q-161 0 -255.5 105t-73.5 282q14 116 73 203
t146.5 131.5t190.5 44.5zM493 704q-136 0 -234.5 -90t-116.5 -244q-17 -150 60.5 -238t209.5 -88q135 0 234 90t116 244q18 150 -59.5 238t-209.5 88z" />
    <glyph glyph-name="obreve" unicode="&#x14f;" horiz-adv-x="627" 
d="M482 718h45q-10 -56 -52 -86.5t-104 -30.5q-67 0 -101.5 31.5t-24.5 85.5h46q-6 -36 16 -56t65 -20q44 0 73.5 21t36.5 55zM343 515q112 0 176.5 -72.5t48.5 -193.5q-15 -117 -96 -187.5t-188 -70.5q-113 0 -177 72.5t-48 193.5q15 117 95.5 187.5t188.5 70.5zM344 466
q-87 0 -152 -58.5t-78 -158.5q-12 -97 36 -153t133 -56q88 0 153 58.5t78 158.5q12 96 -37 152.5t-133 56.5z" />
    <glyph glyph-name="Ohungarumlaut" unicode="&#x150;" horiz-adv-x="861" 
d="M451 798h-46l83 137h56zM605 798h-47l83 137h56zM493 757q161 0 255 -104.5t73 -282.5q-14 -116 -73 -203t-146.5 -131.5t-189.5 -44.5q-161 0 -255.5 105t-73.5 282q14 116 73 203t146.5 131.5t190.5 44.5zM493 704q-136 0 -234.5 -90t-116.5 -244q-17 -150 60.5 -238
t209.5 -88q135 0 234 90t116 244q18 150 -59.5 238t-209.5 88z" />
    <glyph glyph-name="ohungarumlaut" unicode="&#x151;" horiz-adv-x="627" 
d="M307 607h-47l90 146h55zM461 607h-46l89 146h55zM343 515q112 0 176.5 -72.5t48.5 -193.5q-15 -117 -96 -187.5t-188 -70.5q-113 0 -177 72.5t-48 193.5q15 117 95.5 187.5t188.5 70.5zM344 466q-87 0 -152 -58.5t-78 -158.5q-12 -97 36 -153t133 -56q88 0 153 58.5
t78 158.5q12 96 -37 152.5t-133 56.5z" />
    <glyph glyph-name="OE" unicode="&#x152;" horiz-adv-x="1230" 
d="M877 696l-49 -282h350l-9 -52h-349q-4 -33 -14 -69l-42 -240h395l-10 -53h-453l23 128q-58 -66 -138 -101.5t-169 -35.5q-161 0 -255.5 105t-73.5 282q14 116 73 203t146.5 131.5t190.5 44.5q106 0 186.5 -48t117.5 -135l31 174h453l-9 -52h-395zM412 44q124 0 218.5 76
t123.5 209l6 36l2 13q18 150 -59.5 238t-209.5 88q-136 0 -234.5 -90t-116.5 -244q-17 -150 60.5 -238t209.5 -88z" />
    <glyph glyph-name="oe" unicode="&#x153;" horiz-adv-x="1042" 
d="M788 515q108 0 162 -69t37 -180l-5 -34h-413q-10 -91 34 -141.5t124 -50.5q65 0 113 29.5t69 80.5l56 -4q-27 -72 -90.5 -113.5t-147.5 -41.5q-75 0 -128.5 34.5t-75.5 97.5q-39 -63 -103 -97.5t-137 -34.5q-113 0 -177 72.5t-48 193.5q15 117 95.5 187.5t188.5 70.5
q76 0 132.5 -35t80.5 -98q37 64 98.5 98.5t134.5 34.5zM282 40q88 0 153 58.5t78 158.5q12 96 -37 152.5t-133 56.5q-87 0 -152 -58.5t-78 -158.5q-12 -97 36 -153t133 -56zM788 465q-80 0 -138 -48.5t-75 -137.5h358v2q12 84 -25.5 134t-119.5 50z" />
    <glyph glyph-name="Racute" unicode="&#x154;" horiz-adv-x="675" 
d="M435 795h-56l182 135h81zM642 527q-15 -86 -62.5 -137.5t-118.5 -67.5l128 -322h-63l-124 315h-6h-228l-56 -315h-59l132 748h256q97 0 155.5 -57t45.5 -164zM177 368h217q72 0 123.5 41t65.5 124q9 79 -35 121t-116 42h-197z" />
    <glyph glyph-name="racute" unicode="&#x155;" horiz-adv-x="321" 
d="M263 593h-46l146 191h65zM348 513l-9 -54q-68 0 -117.5 -44.5t-61.5 -107.5l-54 -307h-56l90 506h52l-14 -85q22 39 66 65.5t104 26.5z" />
    <glyph glyph-name="Rcommaaccent" unicode="&#x156;" horiz-adv-x="675" 
d="M642 527q-15 -86 -62.5 -137.5t-118.5 -67.5l128 -322h-63l-124 315h-6h-228l-56 -315h-59l132 748h256q97 0 155.5 -57t45.5 -164zM177 368h217q72 0 123.5 41t65.5 124q9 79 -35 121t-116 42h-197zM290 -40q22 0 32 -15t5 -40q-20 -110 -119 -166l1 29q58 42 74 106
q-19 1 -29.5 14.5t-6.5 32.5q3 16 15.5 27.5t27.5 11.5z" />
    <glyph glyph-name="rcommaaccent" unicode="&#x157;" horiz-adv-x="321" 
d="M192 506l-14 -85q22 39 66 65.5t104 26.5l-9 -54q-68 0 -117.5 -44.5t-61.5 -107.5l-54 -307h-56l90 506h52zM64 -40q22 0 32 -15t5 -40q-20 -110 -119 -166l1 29q58 42 74 106q-19 1 -29.5 14.5t-6.5 32.5q3 16 15.5 27.5t27.5 11.5z" />
    <glyph glyph-name="Rcaron" unicode="&#x158;" horiz-adv-x="675" 
d="M383 795l-97 135h49l78 -98l115 98h51l-145 -135h-51zM642 527q-15 -86 -62.5 -137.5t-118.5 -67.5l128 -322h-63l-124 315h-6h-228l-56 -315h-59l132 748h256q97 0 155.5 -57t45.5 -164zM177 368h217q72 0 123.5 41t65.5 124q9 79 -35 121t-116 42h-197z" />
    <glyph glyph-name="rcaron" unicode="&#x159;" horiz-adv-x="321" 
d="M268 592h-52l-92 165h49l74 -125l121 125h51zM348 513l-9 -54q-68 0 -117.5 -44.5t-61.5 -107.5l-54 -307h-56l90 506h52l-14 -85q22 39 66 65.5t104 26.5z" />
    <glyph glyph-name="Sacute" unicode="&#x15a;" horiz-adv-x="652" 
d="M435 795h-56l182 135h81zM397 757q108 0 169.5 -52.5t54.5 -143.5l-60 -3q4 70 -40 108.5t-123 38.5q-93 0 -148 -43t-64 -109q-5 -31 2.5 -54t19 -36.5t40 -26t49 -18l63.5 -16.5q136 -30 191.5 -72t42.5 -135q-14 -101 -93 -152.5t-191 -51.5q-118 0 -188.5 54.5
t-63.5 150.5l60 3q-5 -71 49 -113.5t142 -42.5q91 0 152.5 39t72.5 117q5 30 -3 53t-20 36.5t-44 26.5t-54.5 19.5t-71.5 18.5q-47 11 -76 19.5t-62 25t-49 36t-25 51.5t-3 73q13 86 83.5 142.5t187.5 56.5z" />
    <glyph glyph-name="sacute" unicode="&#x15b;" horiz-adv-x="495" 
d="M316 593h-46l146 191h65zM277 514q78 1 118.5 -39t40.5 -104l-56 -2q2 45 -26 71t-81 25q-57 1 -91 -24.5t-42 -69.5q-4 -22 1 -36.5t20 -23t32 -13.5t44 -11q12 -2 19 -4q91 -22 129 -52t29 -93q-11 -71 -66 -109t-137 -38t-128.5 38t-46.5 106l56 3q0 -48 33 -73
t89 -25q128 0 144 98q6 44 -21.5 64t-103.5 37q-89 22 -114 39q-45 30 -35 97q9 64 59.5 102t133.5 37z" />
    <glyph glyph-name="Scircumflex" unicode="&#x15c;" horiz-adv-x="652" 
d="M554 795h-48l-78 98l-115 -98h-52l145 135h52zM397 757q108 0 169.5 -52.5t54.5 -143.5l-60 -3q4 70 -40 108.5t-123 38.5q-93 0 -148 -43t-64 -109q-5 -31 2.5 -54t19 -36.5t40 -26t49 -18l63.5 -16.5q136 -30 191.5 -72t42.5 -135q-14 -101 -93 -152.5t-191 -51.5
q-118 0 -188.5 54.5t-63.5 150.5l60 3q-5 -71 49 -113.5t142 -42.5q91 0 152.5 39t72.5 117q5 30 -3 53t-20 36.5t-44 26.5t-54.5 19.5t-71.5 18.5q-47 11 -76 19.5t-62 25t-49 36t-25 51.5t-3 73q13 86 83.5 142.5t187.5 56.5z" />
    <glyph glyph-name="scircumflex" unicode="&#x15d;" horiz-adv-x="495" 
d="M442 594h-48l-75 125l-121 -125h-51l151 166h52zM277 514q78 1 118.5 -39t40.5 -104l-56 -2q2 45 -26 71t-81 25q-57 1 -91 -24.5t-42 -69.5q-4 -22 1 -36.5t20 -23t32 -13.5t44 -11q12 -2 19 -4q91 -22 129 -52t29 -93q-11 -71 -66 -109t-137 -38t-128.5 38t-46.5 106
l56 3q0 -48 33 -73t89 -25q128 0 144 98q6 44 -21.5 64t-103.5 37q-89 22 -114 39q-45 30 -35 97q9 64 59.5 102t133.5 37z" />
    <glyph glyph-name="Scedilla" unicode="&#x15e;" horiz-adv-x="652" 
d="M621 561l-60 -3q4 70 -40 108.5t-123 38.5q-93 0 -148 -43t-64 -109q-5 -31 2.5 -54t19 -36.5t40 -26t49 -18l63.5 -16.5q136 -30 191.5 -72t42.5 -135q-10 -67 -50 -113t-97 -67.5t-127 -23.5l-19 -56q52 -2 77.5 -26.5t17.5 -69.5q-6 -40 -42.5 -62.5t-80.5 -22.5
q-62 0 -100 24l14 34q32 -22 79 -22q33 0 58 13.5t30 40.5q5 29 -14 45.5t-58 16.5q-18 0 -28 -3l35 88q-110 5 -174 59.5t-57 145.5l60 3q-5 -71 49 -113.5t142 -42.5q91 0 152.5 39t72.5 117q5 30 -3 53t-20 36.5t-44 26.5t-54.5 19.5t-71.5 18.5q-47 11 -76 19.5t-62 25
t-49 36t-25 51.5t-3 73q13 86 83.5 142.5t187.5 56.5q108 0 169.5 -52.5t54.5 -143.5z" />
    <glyph glyph-name="scedilla" unicode="&#x15f;" horiz-adv-x="495" 
d="M256 283q91 -22 129 -52t29 -93q-10 -69 -62.5 -107t-129.5 -40l-20 -56q52 -2 77.5 -26.5t17.5 -69.5q-6 -40 -42.5 -62.5t-80.5 -22.5q-62 0 -100 24l14 34q32 -22 79 -22q33 0 58 13.5t30 40.5q5 29 -14 45.5t-58 16.5q-17 0 -28 -3l35 89q-72 5 -113 42.5t-41 100.5
l56 3q0 -48 33 -73t89 -25q128 0 144 98q6 44 -21.5 64t-103.5 37q-89 22 -114 39q-45 30 -35 97q9 64 59.5 102t133.5 37q78 1 118.5 -39t40.5 -104l-56 -2q2 45 -26 71t-81 25q-57 1 -91 -24.5t-42 -69.5q-4 -22 1 -36.5t20 -23t32 -13.5t44 -11q12 -2 19 -4z" />
    <glyph glyph-name="Scaron" unicode="&#x160;" horiz-adv-x="652" 
d="M434 795h-51l-97 135h49l78 -98l115 98h51zM397 757q108 0 169.5 -52.5t54.5 -143.5l-60 -3q4 70 -40 108.5t-123 38.5q-93 0 -148 -43t-64 -109q-5 -31 2.5 -54t19 -36.5t40 -26t49 -18l63.5 -16.5q136 -30 191.5 -72t42.5 -135q-14 -101 -93 -152.5t-191 -51.5
q-118 0 -188.5 54.5t-63.5 150.5l60 3q-5 -71 49 -113.5t142 -42.5q91 0 152.5 39t72.5 117q5 30 -3 53t-20 36.5t-44 26.5t-54.5 19.5t-71.5 18.5q-47 11 -76 19.5t-62 25t-49 36t-25 51.5t-3 73q13 86 83.5 142.5t187.5 56.5z" />
    <glyph glyph-name="scaron" unicode="&#x161;" horiz-adv-x="495" 
d="M322 592h-52l-92 165h49l74 -125l121 125h51zM277 514q78 1 118.5 -39t40.5 -104l-56 -2q2 45 -26 71t-81 25q-57 1 -91 -24.5t-42 -69.5q-4 -22 1 -36.5t20 -23t32 -13.5t44 -11q12 -2 19 -4q91 -22 129 -52t29 -93q-11 -71 -66 -109t-137 -38t-128.5 38t-46.5 106l56 3
q0 -48 33 -73t89 -25q128 0 144 98q6 44 -21.5 64t-103.5 37q-89 22 -114 39q-45 30 -35 97q9 64 59.5 102t133.5 37z" />
    <glyph glyph-name="Tcaron" unicode="&#x164;" horiz-adv-x="677" 
d="M461 795h-51l-97 135h49l78 -98l115 98h51zM738 696h-293l-121 -696h-59l121 696h-292l10 52h644z" />
    <glyph glyph-name="tcaron" unicode="&#x165;" horiz-adv-x="475" 
d="M496 736q22 0 32 -15t5 -40q-20 -110 -119 -166l1 29q58 42 74 106q-19 1 -29.5 14.5t-6.5 32.5q3 16 15.5 27.5t27.5 11.5zM210 506h146l-9 -49h-146l-54 -298q-10 -59 11.5 -86t63.5 -27q29 0 55 6l-9 -52q-25 -5 -62 -5q-68 0 -99 38t-17 117l55 307h-96l9 49h96
l32 179h56z" />
    <glyph glyph-name="Tbar" unicode="&#x166;" horiz-adv-x="677" 
d="M445 696l-52 -297h151l-9 -47h-150l-61 -352h-59l61 352h-150l9 47h149l52 297h-292l10 52h644l-10 -52h-293z" />
    <glyph glyph-name="tbar" unicode="&#x167;" horiz-adv-x="333" 
d="M203 457l-30 -164h145l-7 -41h-145l-17 -93q-11 -59 10.5 -86t63.5 -27q31 0 55 6l-8 -52q-25 -5 -63 -5q-67 0 -98.5 38t-17.5 117l18 102h-96l7 41h97l30 164h-96l8 49h97l32 179h56l-32 -179h145l-8 -49h-146z" />
    <glyph glyph-name="Utilde" unicode="&#x168;" horiz-adv-x="758" 
d="M421 923q21 0 39 -10t28 -22t25.5 -22t32.5 -10q27 0 44.5 15.5t22.5 41.5h33q-4 -42 -32 -71t-64 -29q-27 0 -48 16t-39.5 32t-39.5 16q-25 0 -43 -16.5t-23 -41.5h-33q4 43 32.5 72t64.5 29zM754 748l-85 -481q-24 -134 -112 -205t-220 -71q-133 0 -199.5 72.5
t-42.5 206.5l85 478h59l-86 -479q-20 -110 30.5 -167.5t155.5 -57.5q108 0 180 58t92 168l84 478h59z" />
    <glyph glyph-name="utilde" unicode="&#x169;" horiz-adv-x="585" 
d="M303 723q33 0 67 -32t59 -32q26 0 43 16t23 41h34q-4 -42 -32.5 -71t-64.5 -29q-27 0 -48 16t-39.5 32t-39.5 16q-25 0 -42.5 -16t-23.5 -41h-33q4 42 32.5 71t64.5 29zM445 0h-52l15 88q-23 -41 -68.5 -69t-106.5 -28q-85 0 -127.5 54.5t-26.5 143.5l56 317h56l-54 -307
q-13 -71 16.5 -113t93.5 -42q69 0 117.5 46t59.5 110l55 306h55z" />
    <glyph glyph-name="Umacron" unicode="&#x16a;" horiz-adv-x="758" 
d="M605 844h-245l8 44h245zM754 748l-85 -481q-24 -134 -112 -205t-220 -71q-133 0 -199.5 72.5t-42.5 206.5l85 478h59l-86 -479q-20 -110 30.5 -167.5t155.5 -57.5q108 0 180 58t92 168l84 478h59z" />
    <glyph glyph-name="umacron" unicode="&#x16b;" horiz-adv-x="585" 
d="M487 643h-245l8 44h245zM445 0h-52l15 88q-23 -41 -68.5 -69t-106.5 -28q-85 0 -127.5 54.5t-26.5 143.5l56 317h56l-54 -307q-13 -71 16.5 -113t93.5 -42q69 0 117.5 46t59.5 110l55 306h55z" />
    <glyph glyph-name="Ubreve" unicode="&#x16c;" horiz-adv-x="758" 
d="M592 926h45q-10 -56 -52 -86.5t-104 -30.5q-67 0 -101.5 31.5t-24.5 85.5h46q-6 -36 16.5 -56.5t65.5 -20.5t72.5 21.5t36.5 55.5zM754 748l-85 -481q-24 -134 -112 -205t-220 -71q-133 0 -199.5 72.5t-42.5 206.5l85 478h59l-86 -479q-20 -110 30.5 -167.5t155.5 -57.5
q108 0 180 58t92 168l84 478h59z" />
    <glyph glyph-name="ubreve" unicode="&#x16d;" horiz-adv-x="585" 
d="M473 718h45q-10 -56 -52 -86.5t-104 -30.5q-67 0 -101.5 31.5t-24.5 85.5h46q-6 -36 16 -56t65 -20q44 0 73.5 21t36.5 55zM445 0h-52l15 88q-23 -41 -68.5 -69t-106.5 -28q-85 0 -127.5 54.5t-26.5 143.5l56 317h56l-54 -307q-13 -71 16.5 -113t93.5 -42q69 0 117.5 46
t59.5 110l55 306h55z" />
    <glyph glyph-name="Uring" unicode="&#x16e;" horiz-adv-x="758" 
d="M501 979q43 0 67.5 -27.5t16.5 -69.5q-7 -39 -37.5 -64t-69.5 -25q-43 0 -68 27.5t-17 69.5q7 39 38 64t70 25zM500 948q-28 0 -50 -17.5t-26 -44.5q-4 -26 11.5 -44t42.5 -18q29 0 50.5 17t25.5 45q4 26 -11.5 44t-42.5 18zM754 748l-85 -481q-24 -134 -112 -205
t-220 -71q-133 0 -199.5 72.5t-42.5 206.5l85 478h59l-86 -479q-20 -110 30.5 -167.5t155.5 -57.5q108 0 180 58t92 168l84 478h59z" />
    <glyph glyph-name="uring" unicode="&#x16f;" horiz-adv-x="585" 
d="M385 786q46 0 72 -29.5t18 -73.5q-7 -41 -40.5 -68t-75.5 -27q-47 0 -73.5 29t-18.5 74q8 41 42 68t76 27zM381 751q-30 0 -52.5 -18t-27.5 -46q-4 -28 13 -46.5t46 -18.5t51 17.5t27 45.5t-12 47t-45 19zM445 0h-52l15 88q-23 -41 -68.5 -69t-106.5 -28
q-85 0 -127.5 54.5t-26.5 143.5l56 317h56l-54 -307q-13 -71 16.5 -113t93.5 -42q69 0 117.5 46t59.5 110l55 306h55z" />
    <glyph glyph-name="Uhungarumlaut" unicode="&#x170;" horiz-adv-x="758" 
d="M415 798h-46l83 137h56zM569 798h-47l83 137h56zM754 748l-85 -481q-24 -134 -112 -205t-220 -71q-133 0 -199.5 72.5t-42.5 206.5l85 478h59l-86 -479q-20 -110 30.5 -167.5t155.5 -57.5q108 0 180 58t92 168l84 478h59z" />
    <glyph glyph-name="uhungarumlaut" unicode="&#x171;" horiz-adv-x="585" 
d="M298 607h-47l90 146h55zM452 607h-46l89 146h55zM445 0h-52l15 88q-23 -41 -68.5 -69t-106.5 -28q-85 0 -127.5 54.5t-26.5 143.5l56 317h56l-54 -307q-13 -71 16.5 -113t93.5 -42q69 0 117.5 46t59.5 110l55 306h55z" />
    <glyph glyph-name="Uogonek" unicode="&#x172;" horiz-adv-x="758" 
d="M754 748l-85 -481q-21 -112 -86 -180t-164 -88q-55 -25 -84 -48.5t-34 -54.5q-4 -23 10 -35.5t41 -12.5q34 0 63 13l5 -31q-38 -15 -75 -15q-45 0 -69.5 21.5t-17.5 60.5q10 55 82 94h-3q-133 0 -199.5 72.5t-42.5 206.5l85 478h59l-86 -479q-20 -110 30.5 -167.5
t155.5 -57.5q108 0 180 58t92 168l84 478h59z" />
    <glyph glyph-name="uogonek" unicode="&#x173;" horiz-adv-x="585" 
d="M534 506l-89 -506h-9q-57 -25 -87.5 -49t-35.5 -56q-4 -23 10 -35.5t41 -12.5q34 0 63 13l5 -31q-38 -15 -75 -15q-45 0 -69.5 21.5t-17.5 60.5q13 69 125 114l13 78q-23 -41 -68.5 -69t-106.5 -28q-85 0 -127.5 54.5t-26.5 143.5l56 317h56l-54 -307q-13 -71 16.5 -113
t93.5 -42q69 0 117.5 46t59.5 110l55 306h55z" />
    <glyph glyph-name="Wcircumflex" unicode="&#x174;" horiz-adv-x="1114" 
d="M796 795h-48l-78 98l-115 -98h-52l145 135h52zM784 0h-50l-108 641l-335 -641h-50l-129 748h61l108 -647l337 647h48l107 -647l337 647h68z" />
    <glyph glyph-name="wcircumflex" unicode="&#x175;" horiz-adv-x="807" 
d="M610 594h-48l-75 125l-121 -125h-51l151 166h52zM557 0h-45l-81 408l-224 -408h-46l-103 506h59l81 -419l227 419h40l81 -419l228 419h64z" />
    <glyph glyph-name="Ycircumflex" unicode="&#x176;" horiz-adv-x="666" 
d="M574 795h-48l-78 98l-115 -98h-52l145 135h52zM375 322l-57 -322h-59l57 322l-208 426h65l178 -365l307 365h75z" />
    <glyph glyph-name="ycircumflex" unicode="&#x177;" horiz-adv-x="514" 
d="M465 594h-48l-75 125l-121 -125h-51l151 166h52zM73 -255h-65l177 288l-120 473h60l100 -412l247 412h64z" />
    <glyph glyph-name="Ydieresis" unicode="&#x178;" horiz-adv-x="666" 
d="M380 901q18 0 28 -12.5t7 -29.5q-3 -14 -14.5 -23.5t-25.5 -9.5q-18 0 -28 11.5t-7 29.5q3 14 14.5 24t25.5 10zM507 901q19 0 29 -12.5t6 -29.5q-3 -14 -14 -23.5t-25 -9.5q-18 0 -28.5 11.5t-7.5 29.5q3 14 15 24t25 10zM375 322l-57 -322h-59l57 322l-208 426h65
l178 -365l307 365h75z" />
    <glyph glyph-name="Zacute" unicode="&#x179;" horiz-adv-x="614" 
d="M429 795h-56l182 135h81zM652 703l-571 -650h463l-8 -53h-544l8 44l572 652h-438l9 52h518z" />
    <glyph glyph-name="zacute" unicode="&#x17a;" horiz-adv-x="443" 
d="M303 593h-46l146 191h65zM439 469l-368 -423h306l-7 -46h-382l6 38l368 422h-286l8 46h361z" />
    <glyph glyph-name="Zdotaccent" unicode="&#x17b;" horiz-adv-x="614" 
d="M416 900q20 0 31.5 -13.5t8.5 -33.5q-3 -16 -16.5 -27.5t-29.5 -11.5q-20 0 -31 14t-7 33q2 16 15.5 27.5t28.5 11.5zM652 703l-571 -650h463l-8 -53h-544l8 44l572 652h-438l9 52h518z" />
    <glyph glyph-name="zdotaccent" unicode="&#x17c;" horiz-adv-x="443" 
d="M299 723q20 0 31.5 -13.5t7.5 -33.5q-2 -16 -16 -27.5t-30 -11.5q-19 0 -30.5 14t-7.5 33q3 16 16.5 27.5t28.5 11.5zM439 469l-368 -423h306l-7 -46h-382l6 38l368 422h-286l8 46h361z" />
    <glyph glyph-name="Zcaron" unicode="&#x17d;" horiz-adv-x="614" 
d="M428 795h-51l-97 135h49l78 -98l115 98h51zM652 703l-571 -650h463l-8 -53h-544l8 44l572 652h-438l9 52h518z" />
    <glyph glyph-name="zcaron" unicode="&#x17e;" horiz-adv-x="443" 
d="M309 592h-52l-92 165h49l74 -125l121 125h51zM439 469l-368 -423h306l-7 -46h-382l6 38l368 422h-286l8 46h361z" />
    <glyph glyph-name="florin" unicode="&#x192;" horiz-adv-x="425" 
d="M415 785q73 0 122 -45l-30 -44q-34 39 -86 39q-86 0 -123 -104l-44 -125h163l-8 -48h-172l-212 -600h-57l211 600h-116l8 48h125l49 138q47 141 170 141z" />
    <glyph glyph-name="Aringacute" unicode="&#x1fa;" horiz-adv-x="706" 
d="M450 772q-43 0 -67.5 27.5t-17.5 69.5q9 53 60 78l156 108h76l-162 -99q34 -7 52 -33t11 -62q-7 -39 -38 -64t-70 -25zM397 865q-5 -26 11 -44t43 -18q28 0 49.5 17.5t25.5 44.5q4 26 -11.5 44t-42.5 18t-49 -17.5t-26 -44.5zM466 748l177 -748h-64l-50 219h-362
l-127 -219h-65l440 748h51zM517 266l-92 391l-229 -391h321z" />
    <glyph glyph-name="aringacute" unicode="&#x1fb;" horiz-adv-x="533" 
d="M328 586q-43 0 -68 27.5t-17 69.5q9 56 64 80l154 105h75l-164 -98q34 -7 52 -33t11 -62q-7 -39 -37.5 -64t-69.5 -25zM274 679q-4 -26 11.5 -44t42.5 -18q29 0 50 17t26 45q4 26 -11.5 44t-42.5 18q-28 0 -50 -17.5t-26 -44.5zM306 515q86 0 125 -56t22 -154l-55 -305
h-52l16 87q-59 -96 -184 -96q-74 0 -113 38t-28 105q11 69 67.5 103.5t144.5 39.5l144 8l4 24q14 75 -10 115.5t-86 40.5q-64 0 -106.5 -38t-51.5 -90l-55 4q12 70 71.5 122t146.5 52zM385 238l-132 -8q-72 -4 -113 -26.5t-47 -72.5q-7 -45 17.5 -68t73.5 -23q70 0 123.5 42
t72.5 133z" />
    <glyph glyph-name="AEacute" unicode="&#x1fc;" horiz-adv-x="996" 
d="M768 795h-56l182 135h81zM644 696l-49 -282h350l-9 -52h-351l-54 -309h395l-10 -53h-453l36 203h-290l-169 -203h-73l628 748h453l-9 -52h-395zM576 641l-322 -386h254z" />
    <glyph glyph-name="aeacute" unicode="&#x1fd;" horiz-adv-x="915" 
d="M523 593h-46l146 191h65zM663 515q109 0 162.5 -69t36.5 -180l-5 -34h-413q-10 -91 34.5 -141.5t123.5 -50.5q66 0 113.5 29.5t68.5 80.5l56 -4q-27 -72 -90.5 -113.5t-147.5 -41.5q-73 0 -126.5 33.5t-76.5 95.5q-37 -62 -94 -95.5t-124 -33.5q-76 0 -115 39t-29 105
q11 68 67.5 102.5t143.5 40.5l145 9l3 11l2 11q15 74 -10.5 115t-86.5 41q-64 0 -106 -38t-51 -90l-56 4q13 70 72 122t143 52q121 0 147 -103q78 103 213 103zM663 465q-80 0 -138 -48.5t-75 -137.5h358v2q12 84 -25.5 134t-119.5 50zM188 40q68 0 121 42.5t72 135.5l4 21
l-136 -8q-143 -10 -156 -98q-7 -45 19 -69t76 -24z" />
    <glyph glyph-name="Oslashacute" unicode="&#x1fe;" horiz-adv-x="861" 
d="M536 795h-56l182 135h81zM820 750l-82 -87q105 -107 83 -293q-14 -116 -73 -203t-146.5 -131.5t-189.5 -44.5q-139 0 -230 79l-92 -98l-33 28l95 101q-90 106 -69 277q14 116 73 203t146.5 131.5t190.5 44.5q125 0 213 -65l81 86zM142 370q-16 -137 50 -226l475 506
q-73 54 -174 54q-136 0 -234.5 -90t-116.5 -244zM762 378q19 151 -63 243l-477 -509q74 -68 190 -68q135 0 234 90t116 244z" />
    <glyph glyph-name="oslashacute" unicode="&#x1ff;" horiz-adv-x="627" 
d="M386 593h-46l146 191h65zM576 504l-57 -61q65 -73 49 -194q-15 -117 -96 -187.5t-188 -70.5q-87 0 -146 44l-58 -62l-30 24l60 64q-67 74 -51 196q15 117 95.5 187.5t188.5 70.5q89 0 149 -46l55 59zM114 249q-12 -92 33 -149l309 330q-45 36 -112 36q-87 0 -152 -58.5
t-78 -158.5zM514 257q12 89 -32 146l-308 -330q46 -33 109 -33q88 0 153 58.5t78 158.5z" />
    <glyph glyph-name="Scommaaccent" unicode="&#x218;" horiz-adv-x="652" 
d="M621 561l-60 -3q4 70 -40 108.5t-123 38.5q-93 0 -148 -43t-64 -109q-5 -31 2.5 -54t19 -36.5t40 -26t49 -18l63.5 -16.5q136 -30 191.5 -72t42.5 -135q-14 -101 -93 -152.5t-191 -51.5q-118 0 -188.5 54.5t-63.5 150.5l60 3q-5 -71 49 -113.5t142 -42.5q91 0 152.5 39
t72.5 117q5 30 -3 53t-20 36.5t-44 26.5t-54.5 19.5t-71.5 18.5q-47 11 -76 19.5t-62 25t-49 36t-25 51.5t-3 73q13 86 83.5 142.5t187.5 56.5q108 0 169.5 -52.5t54.5 -143.5zM289 -45q22 0 32 -15t5 -40q-20 -110 -119 -166l1 29q58 42 74 106q-19 1 -29.5 14.5t-6.5 32.5
q3 16 15.5 27.5t27.5 11.5z" />
    <glyph glyph-name="scommaaccent" unicode="&#x219;" horiz-adv-x="495" 
d="M256 283q91 -22 129 -52t29 -93q-11 -71 -66 -109t-137 -38t-128.5 38t-46.5 106l56 3q0 -48 33 -73t89 -25q128 0 144 98q6 44 -21.5 64t-103.5 37q-89 22 -114 39q-45 30 -35 97q9 64 59.5 102t133.5 37q78 1 118.5 -39t40.5 -104l-56 -2q2 45 -26 71t-81 25
q-57 1 -91 -24.5t-42 -69.5q-4 -22 1 -36.5t20 -23t32 -13.5t44 -11q12 -2 19 -4zM190 -45q22 0 32 -15t5 -40q-20 -110 -119 -166l1 29q58 42 74 106q-19 1 -29.5 14.5t-6.5 32.5q3 16 15.5 27.5t27.5 11.5z" />
    <glyph glyph-name="uni021A" unicode="&#x21a;" horiz-adv-x="677" 
d="M748 748l-10 -52h-293l-121 -696h-59l121 696h-292l10 52h644zM279 -40q22 0 32 -15t5 -40q-20 -110 -119 -166l1 29q58 42 74 106q-19 1 -29.5 14.5t-6.5 32.5q3 16 15.5 27.5t27.5 11.5z" />
    <glyph glyph-name="uni021B" unicode="&#x21b;" horiz-adv-x="333" 
d="M201 457l-54 -298q-10 -59 11.5 -86t63.5 -27q29 0 55 6l-9 -52q-25 -5 -62 -5q-68 0 -99 38t-17 117l55 307h-96l9 49h96l32 179h56l-32 -179h146l-9 -49h-146zM140 -48q22 0 32 -15t5 -40q-20 -110 -119 -166l1 29q58 42 74 106q-19 1 -29.5 14.5t-6.5 32.5
q3 16 15.5 27.5t27.5 11.5z" />
    <glyph glyph-name="dotlessj" unicode="&#x237;" 
d="M197 506l-106 -596q-15 -86 -59.5 -128t-112.5 -42q-32 0 -62 14l26 45q16 -9 30 -9q102 0 124 120l104 596h56z" />
    <glyph glyph-name="circumflex" unicode="&#x2c6;" horiz-adv-x="334" 
d="M374 594h-48l-75 125l-121 -125h-51l151 166h52z" />
    <glyph glyph-name="caron" unicode="&#x2c7;" horiz-adv-x="334" 
d="M254 592h-52l-92 165h49l74 -125l121 125h51z" />
    <glyph glyph-name="breve" unicode="&#x2d8;" horiz-adv-x="334" 
d="M344 718h45q-10 -56 -52 -86.5t-104 -30.5q-67 0 -101.5 31.5t-24.5 85.5h46q-6 -36 16 -56t65 -20q44 0 73.5 21t36.5 55z" />
    <glyph glyph-name="dotaccent" unicode="&#x2d9;" horiz-adv-x="134" 
d="M145 723q20 0 31.5 -13.5t7.5 -33.5q-2 -16 -16 -27.5t-30 -11.5q-19 0 -30.5 14t-7.5 33q3 16 16.5 27.5t28.5 11.5z" />
    <glyph glyph-name="ring" unicode="&#x2da;" horiz-adv-x="257" 
d="M219 786q46 0 72 -29.5t18 -73.5q-7 -41 -40.5 -68t-75.5 -27q-47 0 -73.5 29t-18.5 74q8 41 42 68t76 27zM215 751q-30 0 -52.5 -18t-27.5 -46q-4 -28 13 -46.5t46 -18.5t51 17.5t27 45.5t-12 47t-45 19z" />
    <glyph glyph-name="ogonek" unicode="&#x2db;" horiz-adv-x="230" 
d="M128 25l11 -22q-57 -25 -87.5 -49.5t-35.5 -55.5q-4 -23 10 -35.5t41 -12.5q34 0 63 13l5 -31q-38 -15 -75 -15q-45 0 -69.5 21.5t-17.5 60.5q13 75 155 126z" />
    <glyph glyph-name="tilde" unicode="&#x2dc;" horiz-adv-x="349" 
d="M184 723q27 0 47.5 -16t39 -32t39.5 -16q26 0 43 16t23 41h34q-4 -42 -32.5 -71t-64.5 -29q-27 0 -48 16t-39.5 32t-39.5 16q-25 0 -42.5 -16t-23.5 -41h-33q4 42 32.5 71t64.5 29z" />
    <glyph glyph-name="hungarumlaut" unicode="&#x2dd;" horiz-adv-x="312" 
d="M130 607h-47l90 146h55zM284 607h-46l89 146h55z" />
    <glyph glyph-name="uni0326" unicode="&#x326;" horiz-adv-x="0" 
d="M32 -40q22 0 32 -15t5 -40q-20 -109 -120 -166l1 29q57 40 75 106q-19 1 -30 14.5t-7 32.5q3 16 15.5 27.5t28.5 11.5z" />
    <glyph glyph-name="Omega" unicode="&#x3a9;" horiz-adv-x="776" 
d="M465 715q152 0 221 -97t43 -250q-18 -100 -81.5 -186t-130.5 -139l198 2l-7 -45h-265l6 41q73 47 143.5 138.5t88.5 194.5q24 131 -32 214t-182 83q-130 0 -218.5 -85t-112.5 -220q-18 -100 19.5 -189.5t93.5 -137.5l-6 -39h-264l8 45h202q-50 53 -83.5 140.5
t-15.5 190.5q26 148 126.5 243.5t248.5 95.5z" />
    <glyph glyph-name="mu" unicode="&#x3bc;" horiz-adv-x="589" 
d="M539 506l-89 -506h-52l15 88q-23 -41 -69 -69t-107 -28q-82 0 -124 50l-52 -296h-55l74 420l3 24l56 317h56l-1 -6l-2 -10l-50 -291q-14 -71 16 -113t94 -42q68 0 116.5 46t60.5 110l54 306h56z" />
    <glyph glyph-name="pi" unicode="&#x3c0;" horiz-adv-x="629" 
d="M600 523l41 -30q-60 -87 -145 -87h-29l-90 -304q-20 -61 29 -61q32 0 68 26l23 -37q-49 -37 -97 -37q-51 0 -68 29.5t-1 81.5l91 302h-140l-71 -233q-31 -102 -78 -175l-56 4q59 85 90 185l66 219h-45q-52 0 -107 -42l-22 41q68 51 144 51h274q76 0 123 67z" />
    <glyph glyph-name="Wgrave" unicode="&#x1e80;" horiz-adv-x="1114" 
d="M676 795h-55l-159 135h79zM784 0h-50l-108 641l-335 -641h-50l-129 748h61l108 -647l337 647h48l107 -647l337 647h68z" />
    <glyph glyph-name="wgrave" unicode="&#x1e81;" horiz-adv-x="807" 
d="M485 593h-45l-97 191h63zM557 0h-45l-81 408l-224 -408h-46l-103 506h59l81 -419l227 419h40l81 -419l228 419h64z" />
    <glyph glyph-name="Wacute" unicode="&#x1e82;" horiz-adv-x="1114" 
d="M677 795h-56l182 135h81zM784 0h-50l-108 641l-335 -641h-50l-129 748h61l108 -647l337 647h48l107 -647l337 647h68z" />
    <glyph glyph-name="wacute" unicode="&#x1e83;" horiz-adv-x="807" 
d="M484 593h-46l146 191h65zM557 0h-45l-81 408l-224 -408h-46l-103 506h59l81 -419l227 419h40l81 -419l228 419h64z" />
    <glyph glyph-name="Wdieresis" unicode="&#x1e84;" horiz-adv-x="1114" 
d="M602 901q18 0 28 -12.5t7 -29.5q-3 -14 -14.5 -23.5t-25.5 -9.5q-18 0 -28 11.5t-7 29.5q3 14 14.5 24t25.5 10zM729 901q19 0 29 -12.5t6 -29.5q-3 -14 -14 -23.5t-25 -9.5q-18 0 -28.5 11.5t-7.5 29.5q3 14 15 24t25 10zM784 0h-50l-108 641l-335 -641h-50l-129 748h61
l108 -647l337 647h48l107 -647l337 647h68z" />
    <glyph glyph-name="wdieresis" unicode="&#x1e85;" horiz-adv-x="807" 
d="M414 719q18 0 28 -12t7 -29q-3 -15 -14.5 -24t-25.5 -9q-18 0 -28 11.5t-7 29.5q2 14 14 23.5t26 9.5zM542 719q18 0 27.5 -12t6.5 -29q-7 -33 -39 -33q-18 0 -28.5 11.5t-7.5 29.5q2 13 14.5 23t26.5 10zM557 0h-45l-81 408l-224 -408h-46l-103 506h59l81 -419l227 419
h40l81 -419l228 419h64z" />
    <glyph glyph-name="Ygrave" unicode="&#x1ef2;" horiz-adv-x="666" 
d="M454 795h-55l-159 135h79zM375 322l-57 -322h-59l57 322l-208 426h65l178 -365l307 365h75z" />
    <glyph glyph-name="ygrave" unicode="&#x1ef3;" horiz-adv-x="514" 
d="M340 593h-45l-97 191h63zM73 -255h-65l177 288l-120 473h60l100 -412l247 412h64z" />
    <glyph glyph-name="endash" unicode="&#x2013;" horiz-adv-x="561" 
d="M513 235h-471l10 53h471z" />
    <glyph glyph-name="emdash" unicode="&#x2014;" horiz-adv-x="793" 
d="M745 235h-703l10 53h703z" />
    <glyph glyph-name="quoteleft" unicode="&#x2018;" horiz-adv-x="161" 
d="M92 570q19 109 119 167l-1 -29q-58 -42 -74 -107q19 -1 29.5 -14t6.5 -32q-3 -17 -15.5 -28t-28.5 -11q-22 0 -31.5 15t-4.5 39z" />
    <glyph glyph-name="quoteright" unicode="&#x2019;" horiz-adv-x="161" 
d="M164 736q22 0 32 -15t5 -40q-20 -109 -120 -166l1 29q57 40 75 106q-19 1 -30 14.5t-7 32.5q3 16 15.5 27.5t28.5 11.5z" />
    <glyph glyph-name="quotesinglbase" unicode="&#x201a;" horiz-adv-x="161" 
d="M48 78q22 0 32 -15t5 -40q-21 -110 -120 -166l1 29q58 41 75 106q-19 1 -30 14.5t-7 32.5q3 16 15.5 27.5t28.5 11.5z" />
    <glyph glyph-name="quotedblleft" unicode="&#x201c;" horiz-adv-x="306" 
d="M92 571q20 110 119 166l-1 -29q-58 -42 -74 -106q19 -1 29.5 -14.5t6.5 -32.5q-3 -16 -15.5 -27.5t-27.5 -11.5q-22 0 -32 15t-5 40zM237 571q20 110 119 166l-1 -29q-58 -42 -74 -106q19 -1 29.5 -14.5t6.5 -32.5q-3 -16 -15.5 -27.5t-27.5 -11.5q-22 0 -32 15t-5 40z
" />
    <glyph glyph-name="quotedblright" unicode="&#x201d;" horiz-adv-x="306" 
d="M160 736q22 0 32 -15t5 -40q-20 -110 -119 -166l1 29q58 42 74 106q-19 1 -29.5 14.5t-6.5 32.5q3 16 15.5 27.5t27.5 11.5zM305 736q22 0 32 -15t5 -40q-20 -110 -119 -166l1 29q58 42 74 106q-19 1 -29.5 14.5t-6.5 32.5q3 16 15.5 27.5t27.5 11.5z" />
    <glyph glyph-name="quotedblbase" unicode="&#x201e;" horiz-adv-x="306" 
d="M44 78q22 0 32 -15t5 -40q-20 -109 -120 -166l1 29q58 41 75 106q-19 1 -29.5 14.5t-6.5 32.5q2 16 14.5 27.5t28.5 11.5zM190 78q22 0 32 -15t5 -40q-21 -110 -120 -166l1 29q58 41 75 106q-19 1 -30 14.5t-7 32.5q3 16 15.5 27.5t28.5 11.5z" />
    <glyph glyph-name="dagger" unicode="&#x2020;" horiz-adv-x="472" 
d="M313 534h186l-8 -51h-186l-97 -550h-56l97 550h-186l8 51h187l38 214h56z" />
    <glyph glyph-name="daggerdbl" unicode="&#x2021;" horiz-adv-x="472" 
d="M314 534h185l-8 -51h-186l-51 -284h186l-9 -52h-185l-38 -214h-56l38 214h-186l8 52h186l51 284h-186l9 51h186l38 214h56z" />
    <glyph glyph-name="bullet" unicode="&#x2022;" horiz-adv-x="349" 
d="M192 372q50 0 79.5 -35.5t20.5 -85.5q-9 -47 -48 -80.5t-85 -33.5q-51 0 -80.5 35.5t-19.5 86.5q8 47 47 80t86 33z" />
    <glyph glyph-name="ellipsis" unicode="&#x2026;" horiz-adv-x="545" 
d="M57 79q20 0 32 -14t8 -34q-3 -17 -17 -28.5t-30 -11.5q-20 0 -32 14t-8 34q3 17 17 28.5t30 11.5zM235 79q20 0 31.5 -14t8.5 -34q-4 -17 -17.5 -28.5t-29.5 -11.5q-20 0 -32 14t-8 34q3 17 17 28.5t30 11.5zM413 79q21 0 32.5 -14t8.5 -34q-4 -17 -17.5 -28.5
t-29.5 -11.5q-21 0 -32.5 14t-7.5 34q3 16 16.5 28t29.5 12z" />
    <glyph glyph-name="perthousand" unicode="&#x2030;" horiz-adv-x="1194" 
d="M283 757q71 0 107.5 -48t22.5 -128q-14 -78 -64.5 -124t-117.5 -46q-70 0 -107 48t-22 129q13 77 64 123t117 46zM116 0h-56l678 748h56zM282 716q-51 0 -90 -36.5t-49 -98.5q-10 -59 16 -94.5t74 -35.5q51 0 89.5 37t48.5 99q10 60 -15 94.5t-74 34.5zM624 337
q71 0 107.5 -47.5t21.5 -128.5q-14 -78 -64.5 -124t-116.5 -46q-70 0 -107.5 48.5t-23.5 128.5q15 78 66 123.5t117 45.5zM1006 337q70 0 106.5 -47.5t22.5 -128.5q-14 -78 -64.5 -124t-116.5 -46q-70 0 -107.5 48.5t-23.5 128.5q14 78 65.5 123.5t117.5 45.5zM622 297
q-51 0 -89.5 -36t-49.5 -99q-11 -59 15.5 -94.5t75.5 -35.5q51 0 89 36.5t48 99.5q11 59 -14.5 94t-74.5 35zM1004 297q-52 0 -90.5 -36t-48.5 -99q-11 -59 15 -94.5t75 -35.5q51 0 89.5 36.5t48.5 99.5q11 59 -14.5 94t-74.5 35z" />
    <glyph glyph-name="guilsinglleft" unicode="&#x2039;" horiz-adv-x="291" 
d="M300 423l-216 -175l154 -174l-44 -34l-179 213l248 209z" />
    <glyph glyph-name="guilsinglright" unicode="&#x203a;" horiz-adv-x="291" 
d="M277 250l-248 -210l-37 40l215 174l-153 175l44 33z" />
    <glyph glyph-name="fraction" unicode="&#x2044;" horiz-adv-x="184" 
d="M-191 0h-59l669 748h59z" />
    <glyph glyph-name="Euro" unicode="&#x20ac;" horiz-adv-x="706" 
d="M519 704q-99 0 -180 -59.5t-124 -164.5h376l-19 -37h-370q-12 -34 -18 -74q-5 -31 -7 -65h313l-19 -36h-294q6 -106 65.5 -165t155.5 -59q115 0 203 67l22 -51q-100 -69 -227 -69q-120 0 -196 74t-82 203h-108l19 36h89q0 29 7 73q6 35 15 66h-101l19 37h94
q47 130 146 203.5t218 73.5q122 0 200 -65l-25 -49q-63 61 -172 61z" />
    <glyph glyph-name="trademark" unicode="&#x2122;" horiz-adv-x="875" 
d="M436 707h-139l-55 -318h-42l55 318h-138l8 41h319zM828 389h-43l47 263l-189 -261h-21l-97 261l-46 -263h-43l63 359h33l108 -295l215 295h36z" />
    <glyph glyph-name="estimated" unicode="&#x212e;" horiz-adv-x="619" 
d="M324 536q105 0 176.5 -68t71.5 -184h-425v-173q0 -36 22 -48q63 -56 155 -56q74 0 133 35.5t97 92.5l13 -9q-42 -64 -104.5 -100t-138.5 -36q-116 0 -195.5 76.5t-79.5 194.5q0 121 79 198t196 77zM323 520q-88 0 -154 -54q-23 -12 -23 -46v-121h333v125q0 24 -5 34.5
t-20 20.5q-56 41 -131 41z" />
    <glyph glyph-name="partialdiff" unicode="&#x2202;" horiz-adv-x="613" 
d="M372 757q55 0 95.5 -20t62.5 -57t34 -82.5t12.5 -104.5t-4.5 -113.5t-16 -119.5q-20 -125 -101 -197.5t-191 -72.5q-113 0 -173.5 69t-41.5 183q18 107 98.5 173.5t185.5 66.5q131 0 183 -100q9 88 5.5 159.5t-40 117t-106.5 45.5q-101 0 -195 -79l-29 50q104 82 221 82z
M264 42q85 0 150 54.5t80 142.5l1 5q13 84 -32 137.5t-123 53.5q-85 0 -150.5 -56t-81.5 -144q-14 -87 30.5 -140t125.5 -53z" />
    <glyph glyph-name="product" unicode="&#x220f;" horiz-adv-x="634" 
d="M683 696h-106l-152 -860h-51l151 860h-261l-151 -860h-51l151 860h-106l10 52h576z" />
    <glyph glyph-name="summation" unicode="&#x2211;" horiz-adv-x="600" 
d="M628 696h-431l186 -322l-299 -321h431l-9 -53h-501l7 43l308 331l-190 331l7 43h501z" />
    <glyph glyph-name="minus" unicode="&#x2212;" horiz-adv-x="546" 
d="M527 344h-478l10 52h478z" />
    <glyph glyph-name="radical" unicode="&#x221a;" horiz-adv-x="612" 
d="M650 675l-388 -752l-78 352l-130 -77l-22 45l185 107l62 -306l326 651z" />
    <glyph glyph-name="infinity" unicode="&#x221e;" horiz-adv-x="792" 
d="M624 489q77 0 117.5 -53.5t27.5 -132.5q-13 -76 -68 -128t-129 -52q-103 0 -171 110l-20 34l-32 -34q-92 -94 -176 -94q-72 0 -107.5 48.5t-23.5 122.5q12 69 60.5 116t115.5 47q91 0 151 -96l20 -34l26 28q58 58 105 88t104 30zM622 441q-48 0 -88.5 -26.5t-90.5 -79.5
l-29 -31l20 -34q58 -99 138 -99q57 0 99 39t51 97q10 56 -18.5 95t-81.5 39zM219 426q-52 0 -88.5 -35.5t-45.5 -87.5q-8 -50 16 -83.5t72 -33.5q72 0 151 84l34 34l-20 36q-49 86 -119 86z" />
    <glyph glyph-name="integral" unicode="&#x222b;" horiz-adv-x="341" 
d="M348 757q34 0 76 -11l-15 -42q-28 7 -49 7q-45 0 -67.5 -25t-32.5 -86l-108 -615q-15 -84 -48 -120t-96 -36q-32 0 -76 11l14 43q27 -8 49 -8q49 0 73 26t35 89l108 615q14 82 45 117t92 35z" />
    <glyph glyph-name="approxequal" unicode="&#x2248;" horiz-adv-x="532" 
d="M528 543l22 -39q-38 -40 -73.5 -59t-81.5 -19q-33 0 -59 10t-40 22.5t-35 22.5t-44 10q-40 0 -68.5 -14.5t-62.5 -48.5l-23 40q40 39 73 57t75 18q40 0 87.5 -32t90.5 -32q44 0 74.5 15t64.5 49zM487 314l24 -39q-40 -40 -75 -59t-82 -19q-41 0 -71 16.5t-54.5 32.5
t-52.5 16q-40 0 -68 -14.5t-63 -48.5l-23 39q41 40 74 58t75 18q40 0 87 -32.5t91 -32.5q43 0 73 15.5t65 49.5z" />
    <glyph glyph-name="notequal" unicode="&#x2260;" horiz-adv-x="546" 
d="M365 459l-104 -184h255l-10 -53h-275l-77 -137l-47 13l70 124h-149l10 53h169l103 184h-240l9 53h261l77 137l48 -13l-70 -124h163l-10 -53h-183z" />
    <glyph glyph-name="lessequal" unicode="&#x2264;" horiz-adv-x="508" 
d="M533 587l-358 -147l306 -145l-11 -57l-410 202l480 203zM451 120h-448l9 53h448z" />
    <glyph glyph-name="greaterequal" unicode="&#x2265;" horiz-adv-x="508" 
d="M515 440l-482 -202l7 57l360 145l-308 147l11 56zM459 120h-449l9 53h449z" />
    <glyph glyph-name="lozenge" unicode="&#x25ca;" horiz-adv-x="525" 
d="M502 346l-276 -401h-35l-136 401l277 402h35zM114 346l107 -319l222 319l-107 320z" />
    <glyph glyph-name="fl" unicode="&#xfb02;" horiz-adv-x="570" 
d="M370 781q24 0 35 -4l-9 -48q-6 2 -23 2q-54 0 -90 -32.5t-46 -91.5l-19 -101h136l-8 -49h-136l-81 -457h-56l81 457h-103l8 49h103l19 104q14 81 65 126t124 45zM430 0h-56l137 777h56z" />
    <glyph glyph-name="n.001" horiz-adv-x="604" 
d="M320 515q85 0 138.5 -55t53.5 -144v-316h-56v304q0 71 -41 115t-107 44q-68 0 -112.5 -47t-44.5 -112v-304h-56v506h53v-106q14 47 60.5 81t111.5 34z" />
    <glyph glyph-name="germandbls.cap" horiz-adv-x="682" 
d="M408 756q147 0 230 -119l-165 -192q188 -50 157 -229q-18 -104 -99.5 -164t-198.5 -60q-49 0 -84 8l17 52q21 -7 64 -7q94 0 160.5 47t81.5 131q14 85 -33 131.5t-151 64.5l174 209q-58 76 -155 76q-75 0 -133.5 -44.5t-70.5 -112.5l-97 -547h-59l97 550q16 92 91.5 149
t173.5 57z" />
    <glyph glyph-name="a.sups" horiz-adv-x="434" 
d="M298 755q74 0 107 -40.5t19 -115.5l-45 -256h-48l12 68q-22 -36 -62 -55.5t-88 -19.5q-57 0 -89.5 29t-25.5 81q15 109 173 119l118 8l5 29q20 111 -78 111q-50 0 -83 -29.5t-40 -71.5l-49 2q10 57 57 99t117 42zM362 534l-107 -8q-57 -4 -88.5 -21.5t-35.5 -56.5
q-4 -33 15.5 -51.5t58.5 -18.5q126 0 153 136z" />
    <glyph glyph-name="b.sups" horiz-adv-x="517" 
d="M251 965l-48 -269q49 59 151 59q86 0 133.5 -57t33.5 -154q-12 -95 -75 -151.5t-146 -56.5q-114 0 -147 84l-14 -76h-49l110 621h51zM343 712q-65 0 -109 -38t-56 -113l-5 -25q-12 -75 23 -115.5t99 -40.5q66 0 115 44t60 122t-25.5 122t-101.5 44z" />
    <glyph glyph-name="c.sups" horiz-adv-x="458" 
d="M316 755q75 0 120 -40.5t44 -110.5l-48 -2q1 51 -30.5 80.5t-83.5 29.5q-66 0 -112 -45t-58 -125q-10 -76 25 -119t97 -43q54 0 92.5 27.5t53.5 75.5l48 -6q-19 -66 -70.5 -103.5t-122.5 -37.5q-88 0 -137 57t-36 156q12 96 73 151t145 55z" />
    <glyph glyph-name="d.sups" horiz-adv-x="517" 
d="M458 343h-46l9 58q-55 -65 -156 -65q-86 0 -133.5 57.5t-33.5 154.5q12 95 74.5 151t146.5 56q113 0 146 -83l52 293h51zM324 712q-67 0 -115.5 -43.5t-59.5 -122.5q-11 -78 25.5 -122t101.5 -44q64 0 108.5 38t56.5 112l5 26q12 75 -23.5 115.5t-98.5 40.5z" />
    <glyph glyph-name="e.sups" horiz-adv-x="470" 
d="M319 755q88 0 130 -54.5t30 -145.5l-4 -28h-327q-9 -71 24 -108.5t94 -37.5q109 0 146 86l50 -3q-22 -59 -73.5 -93.5t-119.5 -34.5q-88 0 -136.5 57t-34.5 156q13 96 74.5 151t146.5 55zM320 715q-63 0 -107.5 -39t-57.5 -108h276v1q10 65 -19 105.5t-92 40.5z" />
    <glyph glyph-name="f.sups" horiz-adv-x="261" 
d="M350 967q15 0 29 -2l-7 -44q-6 1 -20 1q-42 0 -70.5 -25t-36.5 -71l-14 -78h108l-9 -45h-106l-65 -360h-50l63 360h-81l9 45h81l14 81q12 66 53.5 102t101.5 36z" />
    <glyph glyph-name="g.sups" horiz-adv-x="516" 
d="M320 755q114 0 147 -84l14 77h49l-76 -433q-16 -86 -75 -134t-145 -48q-80 0 -124.5 37.5t-46.5 100.5l51 1q1 -44 34.5 -70.5t84.5 -26.5q66 0 111.5 37t57.5 103l14 80q-49 -59 -150 -59q-86 0 -133.5 57.5t-33.5 154.5q12 95 74.5 151t146.5 56zM325 712
q-67 0 -115.5 -43.5t-59.5 -122.5q-11 -78 25.5 -122t101.5 -44q64 0 108.5 38t56.5 112l5 26q12 75 -23.5 115.5t-98.5 40.5z" />
    <glyph glyph-name="h.sups" horiz-adv-x="477" 
d="M251 965l-51 -277q49 67 140 67q69 0 107 -46t25 -117l-44 -249h-51l43 243q10 55 -15.5 88.5t-75.5 33.5q-54 0 -95.5 -36.5t-50.5 -87.5l-42 -241h-51l110 622h51z" />
    <glyph glyph-name="i.sups" horiz-adv-x="201" 
d="M217 937q17 0 26.5 -12t6.5 -28q-3 -13 -14 -22t-23 -9q-17 0 -27 11t-7 27q2 14 13.5 23.5t24.5 9.5zM141 343h-50l72 405h50z" />
    <glyph glyph-name="j.sups" horiz-adv-x="201" 
d="M216 937q17 0 27 -11.5t7 -28.5q-3 -13 -14 -22t-24 -9q-17 0 -26.5 11t-6.5 27q2 13 13 23t24 10zM214 748l-84 -475q-12 -66 -51.5 -102t-97.5 -36q-18 0 -30 3l7 44q14 -2 19 -2q86 0 103 95l83 473h51z" />
    <glyph glyph-name="k.sups" horiz-adv-x="415" 
d="M178 557l231 191h66l-213 -178l156 -227h-56l-139 191l-56 -44l-26 -147h-51l110 622h51z" />
    <glyph glyph-name="l.sups" horiz-adv-x="199" 
d="M141 343h-51l110 622h51z" />
    <glyph glyph-name="m.sups" horiz-adv-x="750" 
d="M611 755q69 0 104.5 -45.5t22.5 -117.5l-44 -249h-51l43 243q10 56 -13 89t-72 33q-51 0 -89 -31.5t-50 -78.5l-1 -6l-45 -249h-50l43 243q10 56 -13.5 89t-72.5 33q-53 0 -92 -36t-48 -88l-42 -241h-51l72 405h46l-10 -62q17 28 52.5 48.5t82.5 20.5q48 0 80.5 -22.5
t44.5 -61.5q53 84 153 84z" />
    <glyph glyph-name="n.sups" horiz-adv-x="483" 
d="M340 755q69 0 107 -46t25 -117l-44 -249h-51l43 243q10 55 -15.5 88.5t-75.5 33.5q-54 0 -95.5 -36.5t-50.5 -87.5l-42 -241h-51l72 405h46l-10 -62q20 28 56.5 48.5t85.5 20.5z" />
    <glyph glyph-name="o.sups" horiz-adv-x="502" 
d="M328 755q91 0 142 -58t38 -155q-12 -94 -77.5 -150t-153.5 -56q-90 0 -141 58t-38 155q12 94 77.5 150t152.5 56zM328 712q-68 0 -118.5 -46t-61.5 -124q-10 -75 27.5 -118.5t102.5 -43.5q68 0 119 45.5t61 122.5q11 75 -27 119.5t-103 44.5z" />
    <glyph glyph-name="p.sups" horiz-adv-x="517" 
d="M355 755q86 0 133.5 -57t33.5 -154q-12 -95 -75 -151.5t-146 -56.5q-113 0 -146 83l-50 -280h-51l108 610h46l-9 -59q51 65 156 65zM344 712q-65 0 -109 -38t-56 -113l-5 -25q-12 -75 23 -115.5t99 -40.5q66 0 115 44t60 122t-25.5 122t-101.5 44z" />
    <glyph glyph-name="q.sups" horiz-adv-x="517" 
d="M320 755q114 0 147 -84l14 77h49l-108 -609h-50l45 256q-51 -59 -151 -59q-86 0 -133.5 57.5t-33.5 154.5q12 95 74.5 151t146.5 56zM325 712q-67 0 -115.5 -43.5t-59.5 -122.5q-11 -78 25.5 -122t101.5 -44q64 0 108.5 38t56.5 112l5 26q12 75 -23.5 115.5t-98.5 40.5z
" />
    <glyph glyph-name="r.sups" horiz-adv-x="258" 
d="M335 754l-9 -49q-55 0 -94.5 -35t-47.5 -85l-43 -242h-51l72 405h48l-11 -60q40 66 136 66z" />
    <glyph glyph-name="s.sups" horiz-adv-x="397" 
d="M277 755q65 0 97 -32.5t30 -86.5l-50 -1q2 36 -19 56.5t-60 20.5q-46 0 -73 -20t-32 -54q-1 -7 -1 -13.5t0.5 -11t4 -9l6 -7.5t9 -6t10.5 -4.5t12.5 -4t13.5 -3.5t16 -4t16 -4q73 -18 103 -42.5t22 -76.5q-9 -57 -53.5 -86.5t-111.5 -29.5t-104 31.5t-36 87.5l50 1
q-1 -37 23.5 -57t67.5 -20q101 0 114 76q6 34 -15 48.5t-80 28.5q-37 9 -54 14.5t-37.5 17.5t-26 31t-0.5 48q9 52 50 82t108 30z" />
    <glyph glyph-name="t.sups" horiz-adv-x="263" 
d="M212 703l-42 -231q-8 -45 8.5 -66.5t48.5 -21.5q6 0 46 4l-8 -45q-17 -4 -51 -4q-56 0 -81.5 30.5t-13.5 94.5l43 239h-77l8 45h77l26 143h51l-26 -143h115l-9 -45h-115z" />
    <glyph glyph-name="u.sups" horiz-adv-x="470" 
d="M411 343h-46l9 61q-47 -68 -135 -68q-66 0 -101.5 46t-22.5 117l44 249h50l-43 -244q-10 -54 13 -87t72 -33q53 0 91 34.5t47 85.5l43 244h51z" />
    <glyph glyph-name="v.sups" horiz-adv-x="411" 
d="M242 343h-39l-105 405h54l82 -326l197 326h58z" />
    <glyph glyph-name="w.sups" horiz-adv-x="649" 
d="M500 343h-38l-64 320l-179 -320h-38l-83 405h54l62 -320l179 320h35l64 -320l177 320h57z" />
    <glyph glyph-name="x.sups" horiz-adv-x="400" 
d="M286 547l113 -204h-55l-96 173l-157 -173h-60l188 213l-106 192h55l89 -161l147 161h59z" />
    <glyph glyph-name="y.sups" horiz-adv-x="413" 
d="M119 139h-58l135 225l-93 384h52l78 -326l192 326h57z" />
    <glyph glyph-name="z.sups" horiz-adv-x="358" 
d="M402 712l-290 -328h243l-7 -41h-307l6 35l289 328h-226l8 42h290z" />
    <glyph glyph-name="zero.onum" horiz-adv-x="642" 
d="M372 601q122 0 180.5 -83t36.5 -226q-22 -139 -103.5 -220t-200.5 -81q-122 0 -181 83.5t-37 225.5q23 140 104.5 220.5t200.5 80.5zM373 549q-96 0 -161 -68.5t-85 -188.5q-19 -116 23 -182t134 -66q96 0 161 68t85 188q19 116 -23 182.5t-134 66.5z" />
    <glyph glyph-name="one.onum" horiz-adv-x="361" 
d="M218 0h-59l90 506l-171 -118l-27 45l229 158h42z" />
    <glyph glyph-name="two.onum" horiz-adv-x="533" 
d="M331 599q100 0 146 -52.5t29 -144.5q-12 -69 -60 -120.5t-126 -103.5l-190 -125h325l-9 -53h-431l8 47l254 167l59.5 40.5t48 39.5t42.5 52t20 59q12 68 -19 104.5t-102 36.5q-75 0 -125 -44.5t-65 -125.5l-59 2q20 105 86 163t168 58z" />
    <glyph glyph-name="three.onum" horiz-adv-x="551" 
d="M320 599q98 0 146 -54.5t32 -147.5q-11 -63 -51.5 -107.5t-93.5 -61.5q56 -13 88.5 -60.5t20.5 -123.5q-16 -97 -85.5 -154t-168.5 -57q-106 0 -157 58t-43 159l58 -1q-6 -78 31 -120.5t113 -42.5q77 0 129 44t65 120q12 74 -28.5 113.5t-118.5 39.5h-73l10 52h69
q65 0 115.5 40.5t61.5 106.5q10 67 -23 105.5t-100 38.5q-70 0 -118 -41.5t-65 -116.5l-58 7q22 97 85.5 150.5t158.5 53.5z" />
    <glyph glyph-name="four.onum" horiz-adv-x="592" 
d="M394 96h142l-9 -53h-143l-35 -201h-56l36 201h-342l9 48l438 499h47zM65 96h273l69 386z" />
    <glyph glyph-name="five.onum" horiz-adv-x="554" 
d="M184 538l-50 -289q67 44 146 44q101 0 154.5 -63t35.5 -168q-15 -102 -84 -165.5t-174 -63.5q-103 0 -154.5 56.5t-44.5 155.5l58 2q-6 -75 31.5 -118t112.5 -43q81 0 133 50.5t64 130.5q13 77 -25 125t-112 48q-75 0 -155 -54h-57l72 404h400l-10 -52h-341z" />
    <glyph glyph-name="six.onum" horiz-adv-x="584" 
d="M318 469q107 0 168 -67t44 -176q-15 -106 -92 -170.5t-179 -64.5q-108 0 -169.5 66.5t-44.5 176.5q14 89 69 149l350 365h73l-269 -284q27 5 50 5zM472 232q13 87 -31 137t-122 50q-93 0 -156 -65q-47 -49 -59 -124q-12 -86 31.5 -136t122.5 -50q81 0 141 52t73 136z" />
    <glyph glyph-name="seven.onum" horiz-adv-x="539" 
d="M567 542l-504 -700h-68l502 696h-424l11 52h492z" />
    <glyph glyph-name="eight.onum" horiz-adv-x="591" 
d="M369 757q96 0 150.5 -53.5t40.5 -145.5q-10 -62 -50 -104.5t-96 -63.5q55 -18 85.5 -69t19.5 -123q-15 -95 -88 -151t-173 -56q-103 0 -161.5 58.5t-43.5 157.5q11 70 55.5 117.5t109.5 69.5q-47 18 -74.5 63t-17.5 108q15 89 82.5 140.5t160.5 51.5zM367 704
q-71 0 -122 -40t-60 -107q-10 -65 28 -103t106 -38q69 0 120.5 39.5t61.5 105.5q10 65 -28 104t-106 39zM314 365q-78 0 -134.5 -44.5t-67.5 -119.5q-11 -71 31 -114t116 -43q78 0 134.5 44.5t68.5 118.5q10 72 -32 115t-116 43z" />
    <glyph glyph-name="nine.onum" horiz-adv-x="584" 
d="M336 599q108 0 169.5 -66.5t44.5 -176.5q-14 -89 -69 -149l-350 -365h-73l269 284q-27 -5 -50 -5q-107 0 -168 67t-44 176q15 106 92 170.5t179 64.5zM491 360q12 86 -31.5 136t-122.5 50q-81 0 -141 -52t-73 -136q-13 -87 31 -137t122 -50q93 0 156 65q47 49 59 124z
" />
    <glyph glyph-name="zero.slash" horiz-adv-x="641" 
d="M396 757q124 0 179.5 -101t27.5 -286q-28 -181 -111.5 -280t-203.5 -99q-125 0 -180.5 101t-26.5 286q27 181 110.5 280t204.5 99zM140 371q-24 -153 12 -237l362 514q-41 56 -118 56q-99 0 -165 -85t-91 -248zM545 377q24 149 -11 235l-361 -515q41 -53 116 -53
q99 0 165 85t91 248z" />
    <glyph glyph-name="zero.subs" horiz-adv-x="369" 
d="M192 336q70 0 101 -56t13 -158q-18 -99 -65.5 -153t-113.5 -54q-71 0 -101.5 56.5t-12.5 158.5q18 98 65.5 152t113.5 54zM190 296q-103 0 -133 -171q-15 -82 3.5 -125.5t67.5 -43.5q102 0 132 171q15 82 -3.5 125.5t-66.5 43.5z" />
    <glyph glyph-name="one.subs" horiz-adv-x="216" 
d="M97 -80h-43l61 345l-90 -61l-19 36l135 91h28z" />
    <glyph glyph-name="two.subs" horiz-adv-x="311" 
d="M168 336q56 0 81 -34t16 -89q-7 -46 -32 -81t-73 -76l-110 -96h176l-7 -40h-246l6 31l151 132q41 36 62.5 66t28.5 69q6 35 -9 56.5t-49 21.5q-39 0 -64.5 -22.5t-33.5 -63.5l-43 3q11 58 50 90.5t96 32.5z" />
    <glyph glyph-name="three.subs" horiz-adv-x="320" 
d="M168 336q56 0 83.5 -30.5t17.5 -82.5q-6 -34 -28.5 -58.5t-52.5 -33.5q31 -6 48 -32.5t10 -67.5q-9 -53 -48 -84.5t-94 -31.5q-61 0 -89.5 32.5t-22.5 87.5l44 2q-5 -81 69 -81q39 0 65.5 22.5t32.5 60.5q7 36 -13 55t-59 19h-40l5 37h37q34 0 61.5 22t32.5 57
q6 32 -10.5 50.5t-49.5 18.5q-35 0 -60 -21.5t-33 -58.5l-42 3q11 55 46.5 85t89.5 30z" />
    <glyph glyph-name="four.subs" horiz-adv-x="343" 
d="M220 64h72l-7 -40h-72l-19 -104h-43l18 104h-186l6 35l238 272h39zM42 64h134l34 189z" />
    <glyph glyph-name="five.subs" horiz-adv-x="319" 
d="M97 291l-24 -139q35 19 72 19q57 0 86 -35t19 -95q-10 -57 -49.5 -91.5t-97.5 -34.5q-59 0 -87.5 31.5t-22.5 85.5l43 2q-3 -78 69 -78q40 0 66.5 24.5t33.5 64.5q7 38 -11.5 62t-54.5 24q-40 0 -78 -27h-41l39 227h225l-7 -40h-180z" />
    <glyph glyph-name="six.subs" horiz-adv-x="339" 
d="M135 180l15 1q62 0 95 -37.5t22 -99.5q-10 -59 -53.5 -94t-101.5 -35q-62 0 -95 37.5t-23 99.5q9 45 41 82l186 197h55zM223 50q7 42 -13.5 67.5t-61.5 25.5q-48 0 -78 -32q-23 -23 -31 -63q-7 -42 14 -67t61 -25t71 25t38 69z" />
    <glyph glyph-name="seven.subs" horiz-adv-x="314" 
d="M302 296l-265 -376h-53l263 371h-219l7 40h273z" />
    <glyph glyph-name="eight.subs" horiz-adv-x="342" 
d="M178 336q55 0 85.5 -30.5t21.5 -83.5q-5 -29 -24.5 -53t-45.5 -36q58 -31 45 -104q-10 -53 -50.5 -83.5t-96.5 -30.5q-60 0 -92.5 33t-22.5 89q11 66 81 101q-48 31 -38 92q8 49 46.5 77.5t90.5 28.5zM176 296q-37 0 -63.5 -19.5t-31.5 -54.5q-6 -34 13.5 -52.5
t54.5 -18.5q36 0 62 19.5t32 53.5q5 34 -14 53t-53 19zM145 113q-40 0 -68.5 -21t-34.5 -59q-6 -36 15 -56.5t59 -20.5q39 0 67 21t35 59q5 36 -15.5 56.5t-57.5 20.5z" />
    <glyph glyph-name="nine.subs" horiz-adv-x="339" 
d="M178 336q61 0 95 -37.5t22 -99.5q-7 -44 -40 -83l-186 -196h-55l141 151l-15 -1q-61 0 -94 38t-22 99q10 59 53.5 94t100.5 35zM141 108q49 0 79 32q25 26 32 63q7 42 -14.5 67.5t-60.5 25.5q-40 0 -71 -25.5t-40 -69.5q-7 -42 14 -67.5t61 -25.5z" />
    <glyph glyph-name="zero.sups" horiz-adv-x="369" 
d="M279 818q70 0 101 -56t13 -158q-18 -99 -65.5 -153t-113.5 -54q-71 0 -101.5 56.5t-12.5 158.5q18 98 65.5 152t113.5 54zM277 778q-103 0 -133 -171q-15 -82 3.5 -125.5t67.5 -43.5q102 0 132 171q15 82 -3.5 125.5t-66.5 43.5z" />
    <glyph glyph-name="one.sups" horiz-adv-x="216" 
d="M183 402h-43l61 345l-90 -61l-19 36l135 91h28z" />
    <glyph glyph-name="two.sups" horiz-adv-x="311" 
d="M254 818q56 0 81 -34t16 -89q-7 -46 -32 -81t-73 -76l-110 -96h176l-7 -40h-246l6 31l151 132q41 36 62.5 66t28.5 69q6 35 -9 56.5t-49 21.5q-39 0 -64.5 -22.5t-33.5 -63.5l-43 3q11 58 50 90.5t96 32.5z" />
    <glyph glyph-name="three.sups" horiz-adv-x="320" 
d="M251 818q56 0 83.5 -30.5t17.5 -82.5q-6 -34 -28.5 -58.5t-52.5 -33.5q31 -6 48 -32.5t10 -67.5q-9 -53 -48 -84.5t-94 -31.5q-61 0 -89.5 32.5t-22.5 87.5l44 2q-5 -81 69 -81q39 0 65.5 22.5t32.5 60.5q7 36 -13 55t-59 19h-40l5 37h37q34 0 61.5 22t32.5 57
q6 32 -10.5 50.5t-49.5 18.5q-35 0 -60 -21.5t-33 -58.5l-42 3q11 55 46.5 85t89.5 30z" />
    <glyph glyph-name="four.sups" horiz-adv-x="343" 
d="M300 546h72l-7 -40h-72l-19 -104h-43l18 104h-186l6 35l238 272h39zM122 546h134l34 189z" />
    <glyph glyph-name="five.sups" horiz-adv-x="319" 
d="M179 773l-24 -139q35 19 72 19q57 0 86 -35t19 -95q-10 -57 -49.5 -91.5t-97.5 -34.5q-59 0 -87.5 31.5t-22.5 85.5l43 2q-3 -78 69 -78q40 0 66.5 24.5t33.5 64.5q7 38 -11.5 62t-54.5 24q-40 0 -78 -27h-41l39 227h225l-7 -40h-180z" />
    <glyph glyph-name="six.sups" horiz-adv-x="339" 
d="M221 662l15 1q62 0 95 -37.5t22 -99.5q-10 -59 -53.5 -94t-101.5 -35q-62 0 -95 37.5t-23 99.5q9 45 41 82l186 197h55zM309 532q7 42 -13.5 67.5t-61.5 25.5q-48 0 -78 -32q-23 -23 -31 -63q-7 -42 14 -67t61 -25t71 25t38 69z" />
    <glyph glyph-name="seven.sups" horiz-adv-x="314" 
d="M384 778l-265 -376h-53l263 371h-219l7 40h273z" />
    <glyph glyph-name="eight.sups" horiz-adv-x="342" 
d="M263 818q55 0 85.5 -30.5t21.5 -83.5q-5 -29 -24.5 -53t-45.5 -36q58 -31 45 -104q-10 -53 -50.5 -83.5t-96.5 -30.5q-60 0 -92.5 33t-22.5 89q11 66 81 101q-48 31 -38 92q8 49 46.5 77.5t90.5 28.5zM261 778q-37 0 -63.5 -19.5t-31.5 -54.5q-6 -34 13.5 -52.5
t54.5 -18.5q36 0 62 19.5t32 53.5q5 34 -14 53t-53 19zM230 595q-40 0 -68.5 -21t-34.5 -59q-6 -36 15 -56.5t59 -20.5q39 0 67 21t35 59q5 36 -15.5 56.5t-57.5 20.5z" />
    <glyph glyph-name="nine.sups" horiz-adv-x="339" 
d="M262 818q61 0 95 -37.5t22 -99.5q-7 -44 -40 -83l-186 -196h-55l141 151l-15 -1q-61 0 -94 38t-22 99q10 59 53.5 94t100.5 35zM225 590q49 0 79 32q25 26 32 63q7 42 -14.5 67.5t-60.5 25.5q-40 0 -71 -25.5t-40 -69.5q-7 -42 14 -67.5t61 -25.5z" />
    <glyph glyph-name="zero.tnum" horiz-adv-x="650" 
d="M398 757q124 0 179.5 -101t27.5 -286q-28 -181 -111.5 -280t-203.5 -99q-125 0 -180.5 101t-26.5 286q27 181 110.5 280t204.5 99zM398 704q-99 0 -165 -85t-91 -248q-25 -158 14 -242.5t134 -84.5q99 0 165 85t91 248q25 158 -14.5 242.5t-133.5 84.5z" />
    <glyph glyph-name="one.tnum" horiz-adv-x="650" 
d="M354 53h169l-10 -53h-409l10 53h181l109 612l-185 -132l-28 45l241 170h45z" />
    <glyph glyph-name="two.tnum" horiz-adv-x="650" 
d="M413 757q98 0 143.5 -58.5t28.5 -154.5q-15 -87 -63 -152.5t-140 -145.5l-222 -193h349l-9 -53h-433l8 45l265 233q86 75 129.5 135t55.5 135q13 70 -17 113t-100 43q-76 0 -125.5 -45.5t-65.5 -127.5l-59 3q21 107 87 165t168 58z" />
    <glyph glyph-name="three.tnum" horiz-adv-x="650" 
d="M406 757q98 0 146 -54.5t32 -147.5q-11 -63 -51.5 -107.5t-93.5 -61.5q56 -13 88.5 -60.5t19.5 -123.5q-16 -97 -85 -154t-169 -57q-105 0 -156 58t-43 159l58 -1q-6 -78 31 -120.5t113 -42.5q77 0 129 44t65 120q12 74 -28.5 113.5t-118.5 39.5h-73l9 52h70
q65 0 115.5 40.5t61.5 106.5q10 67 -23.5 105.5t-99.5 38.5q-71 0 -118.5 -41.5t-64.5 -116.5l-58 7q22 97 85.5 150.5t158.5 53.5z" />
    <glyph glyph-name="four.tnum" horiz-adv-x="650" 
d="M449 254h142l-9 -53h-143l-35 -201h-56l36 201h-342l8 48l439 499h47zM120 254h273l69 386z" />
    <glyph glyph-name="five.tnum" horiz-adv-x="650" 
d="M256 696l-50 -289q67 44 146 44q101 0 154.5 -63t35.5 -168q-15 -102 -84 -165.5t-174 -63.5q-103 0 -154.5 56.5t-45.5 155.5l59 2q-6 -75 31.5 -118t112.5 -43q81 0 133 50.5t64 130.5q13 77 -25 125t-112 48q-75 0 -155 -54h-57l72 404h400l-10 -52h-341z" />
    <glyph glyph-name="six.tnum" horiz-adv-x="650" 
d="M348 469q107 0 168 -67t44 -176q-16 -106 -92.5 -170.5t-178.5 -64.5q-108 0 -170 67t-45 176q14 90 70 149l350 365h73l-269 -283q32 4 50 4zM501 232q14 86 -30 136.5t-122 50.5q-93 0 -156 -65q-48 -48 -60 -124q-12 -86 32 -136t123 -50q80 0 140 52t73 136z" />
    <glyph glyph-name="seven.tnum" horiz-adv-x="650" 
d="M652 699l-503 -700h-69l502 696h-423l10 52h492z" />
    <glyph glyph-name="eight.tnum" horiz-adv-x="650" 
d="M397 757q96 0 150.5 -53.5t40.5 -145.5q-10 -62 -50 -104.5t-96 -63.5q55 -18 85.5 -69t19.5 -123q-15 -95 -88 -151t-173 -56q-103 0 -161.5 58.5t-43.5 157.5q11 70 55.5 117.5t109.5 69.5q-47 18 -74.5 63t-16.5 108q14 89 81.5 140.5t160.5 51.5zM395 704
q-70 0 -121 -40t-61 -107q-10 -65 28 -103t106 -38q69 0 120.5 39.5t61.5 105.5q10 65 -28 104t-106 39zM342 365q-78 0 -134.5 -44.5t-67.5 -119.5q-11 -71 31 -114t116 -43q78 0 134.5 44.5t68.5 118.5q10 72 -32 115t-116 43z" />
    <glyph glyph-name="nine.tnum" horiz-adv-x="650" 
d="M404 757q108 0 169.5 -67t44.5 -176q-14 -90 -70 -149l-349 -365h-73l269 284q-27 -5 -50 -5q-107 0 -168 67t-44 176q15 106 92 170.5t179 64.5zM559 518q12 86 -31.5 136t-122.5 50q-81 0 -141 -52t-73 -136q-13 -87 31 -137t122 -50q91 0 156 65q47 49 59 124z" />
    <glyph glyph-name="zero.dnom" horiz-adv-x="369" 
d="M209 416q70 0 101 -56t13 -158q-18 -99 -65.5 -153t-113.5 -54q-71 0 -101.5 56.5t-12.5 158.5q18 98 65.5 152t113.5 54zM207 376q-103 0 -133 -171q-15 -82 3.5 -125.5t67.5 -43.5q102 0 132 171q15 82 -3.5 125.5t-66.5 43.5z" />
    <glyph glyph-name="one.dnom" horiz-adv-x="216" 
d="M116 0h-43l61 345l-90 -61l-19 36l135 91h28z" />
    <glyph glyph-name="two.dnom" horiz-adv-x="311" 
d="M187 416q56 0 81 -34t16 -89q-7 -46 -32 -81t-73 -76l-110 -96h176l-7 -40h-246l6 31l151 132q41 36 62.5 66t28.5 69q6 35 -9 56.5t-49 21.5q-39 0 -64.5 -22.5t-33.5 -63.5l-43 3q11 58 50 90.5t96 32.5z" />
    <glyph glyph-name="three.dnom" horiz-adv-x="320" 
d="M183 416q56 0 83.5 -30.5t17.5 -82.5q-6 -34 -28.5 -58.5t-52.5 -33.5q31 -6 48 -32.5t10 -67.5q-9 -53 -48 -84.5t-94 -31.5q-61 0 -89.5 32.5t-22.5 87.5l44 2q-5 -81 69 -81q39 0 65.5 22.5t32.5 60.5q7 36 -13 55t-59 19h-40l5 37h37q34 0 61.5 22t32.5 57
q6 32 -10.5 50.5t-49.5 18.5q-35 0 -60 -21.5t-33 -58.5l-42 3q11 55 46.5 85t89.5 30z" />
    <glyph glyph-name="four.dnom" horiz-adv-x="343" 
d="M231 144h72l-7 -40h-72l-19 -104h-43l18 104h-186l6 35l238 272h39zM53 144h134l34 189z" />
    <glyph glyph-name="five.dnom" horiz-adv-x="319" 
d="M112 371l-24 -139q35 19 72 19q57 0 86 -35t19 -95q-10 -57 -49.5 -91.5t-97.5 -34.5q-59 0 -87.5 31.5t-22.5 85.5l43 2q-3 -78 69 -78q40 0 66.5 24.5t33.5 64.5q7 38 -11.5 62t-54.5 24q-40 0 -78 -27h-41l39 227h225l-7 -40h-180z" />
    <glyph glyph-name="six.dnom" horiz-adv-x="339" 
d="M153 260l15 1q62 0 95 -37.5t22 -99.5q-10 -59 -53.5 -94t-101.5 -35q-62 0 -95 37.5t-23 99.5q9 45 41 82l186 197h55zM241 130q7 42 -13.5 67.5t-61.5 25.5q-48 0 -78 -32q-23 -23 -31 -63q-7 -42 14 -67t61 -25t71 25t38 69z" />
    <glyph glyph-name="seven.dnom" horiz-adv-x="314" 
d="M315 376l-265 -376h-53l263 371h-219l7 40h273z" />
    <glyph glyph-name="eight.dnom" horiz-adv-x="342" 
d="M195 416q55 0 85.5 -30.5t21.5 -83.5q-5 -29 -24.5 -53t-45.5 -36q58 -31 45 -104q-10 -53 -50.5 -83.5t-96.5 -30.5q-60 0 -92.5 33t-22.5 89q11 66 81 101q-48 31 -38 92q8 49 46.5 77.5t90.5 28.5zM193 376q-37 0 -63.5 -19.5t-31.5 -54.5q-6 -34 13.5 -52.5
t54.5 -18.5q36 0 62 19.5t32 53.5q5 34 -14 53t-53 19zM162 193q-40 0 -68.5 -21t-34.5 -59q-6 -36 15 -56.5t59 -20.5q39 0 67 21t35 59q5 36 -15.5 56.5t-57.5 20.5z" />
    <glyph glyph-name="nine.dnom" horiz-adv-x="339" 
d="M194 416q61 0 95 -37.5t22 -99.5q-7 -44 -40 -83l-186 -196h-55l141 151l-15 -1q-61 0 -94 38t-22 99q10 59 53.5 94t100.5 35zM157 188q49 0 79 32q25 26 32 63q7 42 -14.5 67.5t-60.5 25.5q-40 0 -71 -25.5t-40 -69.5q-7 -42 14 -67.5t61 -25.5z" />
    <glyph glyph-name="zero.numr" horiz-adv-x="369" 
d="M262 737q70 0 101 -56t13 -158q-18 -99 -65.5 -153t-113.5 -54q-71 0 -101.5 56.5t-12.5 158.5q18 98 65.5 152t113.5 54zM260 697q-103 0 -133 -171q-15 -82 3.5 -125.5t67.5 -43.5q102 0 132 171q15 82 -3.5 125.5t-66.5 43.5z" />
    <glyph glyph-name="one.numr" horiz-adv-x="216" 
d="M169 322h-43l61 345l-90 -61l-19 36l135 91h28z" />
    <glyph glyph-name="two.numr" horiz-adv-x="311" 
d="M241 738q56 0 81 -34t16 -89q-7 -46 -32 -81t-73 -76l-110 -96h176l-7 -40h-246l6 31l151 132q41 36 62.5 66t28.5 69q6 35 -9 56.5t-49 21.5q-39 0 -64.5 -22.5t-33.5 -63.5l-43 3q11 58 50 90.5t96 32.5z" />
    <glyph glyph-name="three.numr" horiz-adv-x="320" 
d="M238 738q56 0 83.5 -30.5t17.5 -82.5q-6 -34 -28.5 -58.5t-52.5 -33.5q31 -6 48 -32.5t10 -67.5q-9 -53 -48 -84.5t-94 -31.5q-61 0 -89.5 32.5t-22.5 87.5l44 2q-5 -81 69 -81q39 0 65.5 22.5t32.5 60.5q7 36 -13 55t-59 19h-40l5 37h37q34 0 61.5 22t32.5 57
q6 32 -10.5 50.5t-49.5 18.5q-35 0 -60 -21.5t-33 -58.5l-42 3q11 55 46.5 85t89.5 30z" />
    <glyph glyph-name="four.numr" horiz-adv-x="343" 
d="M284 466h72l-7 -40h-72l-19 -104h-43l18 104h-186l6 35l238 272h39zM106 466h134l34 189z" />
    <glyph glyph-name="five.numr" horiz-adv-x="319" 
d="M165 693l-24 -139q35 19 72 19q57 0 86 -35t19 -95q-10 -57 -49.5 -91.5t-97.5 -34.5q-59 0 -87.5 31.5t-22.5 85.5l43 2q-3 -78 69 -78q40 0 66.5 24.5t33.5 64.5q7 38 -11.5 62t-54.5 24q-40 0 -78 -27h-41l39 227h225l-7 -40h-180z" />
    <glyph glyph-name="six.numr" horiz-adv-x="339" 
d="M206 582l15 1q62 0 95 -37.5t22 -99.5q-10 -59 -53.5 -94t-101.5 -35q-62 0 -95 37.5t-23 99.5q9 45 41 82l186 197h55zM294 452q7 42 -13.5 67.5t-61.5 25.5q-48 0 -78 -32q-23 -23 -31 -63q-7 -42 14 -67t61 -25t71 25t38 69z" />
    <glyph glyph-name="seven.numr" horiz-adv-x="314" 
d="M370 698l-265 -376h-53l263 371h-219l7 40h273z" />
    <glyph glyph-name="eight.numr" horiz-adv-x="342" 
d="M252 738q55 0 85.5 -30.5t21.5 -83.5q-5 -29 -24.5 -53t-45.5 -36q58 -31 45 -104q-10 -53 -50.5 -83.5t-96.5 -30.5q-60 0 -92.5 33t-22.5 89q11 66 81 101q-48 31 -38 92q8 49 46.5 77.5t90.5 28.5zM250 698q-37 0 -63.5 -19.5t-31.5 -54.5q-6 -34 13.5 -52.5
t54.5 -18.5q36 0 62 19.5t32 53.5q5 34 -14 53t-53 19zM219 515q-40 0 -68.5 -21t-34.5 -59q-6 -36 15 -56.5t59 -20.5q39 0 67 21t35 59q5 36 -15.5 56.5t-57.5 20.5z" />
    <glyph glyph-name="nine.numr" horiz-adv-x="339" 
d="M247 738q61 0 95 -37.5t22 -99.5q-7 -44 -40 -83l-186 -196h-55l141 151l-15 -1q-61 0 -94 38t-22 99q10 59 53.5 94t100.5 35zM210 510q49 0 79 32q25 26 32 63q7 42 -14.5 67.5t-60.5 25.5q-40 0 -71 -25.5t-40 -69.5q-7 -42 14 -67.5t61 -25.5z" />
    <glyph glyph-name="periodcentered.cap" horiz-adv-x="190" 
d="M122 442q20 0 32 -14t9 -34q-4 -17 -18 -28.5t-30 -11.5q-20 0 -31.5 14t-7.5 34q3 17 16.5 28.5t29.5 11.5z" />
    <glyph glyph-name="exclamdown.cap" horiz-adv-x="257" 
d="M206 669q-20 0 -32 14t-9 34q4 17 18 28.5t30 11.5q20 0 31.5 -14t7.5 -34q-2 -16 -15.5 -28t-30.5 -12zM152 559h60l-96 -559h-64z" />
    <glyph glyph-name="questiondown.cap" horiz-adv-x="485" 
d="M327 669q-20 0 -32 14t-9 34q4 17 18 28.5t30 11.5q20 0 31.5 -14t7.5 -34q-2 -16 -15.5 -28t-30.5 -12zM201 -10q-105 0 -154 60t-33 154q11 62 43 100.5t94 78.5q58 39 83 70.5t35 81.5l4 24h58l-4 -28q-10 -55 -37.5 -94t-87.5 -80q-59 -38 -89 -71.5t-40 -87.5
q-12 -67 22.5 -111t108.5 -44q149 0 192 144l58 -6q-23 -89 -90 -140t-163 -51z" />
    <glyph glyph-name="braceleft.cap" horiz-adv-x="225" 
d="M282 722h-5q-106 0 -103 -181q3 -75 -8.5 -116.5t-56.5 -52.5q21 -5 30 -21t6 -42t-10 -51.5t-21 -61.5q-33 -88 -24.5 -131t61.5 -43h8l-9 -47h-5q-80 0 -103.5 58t17.5 167q11 26 17 41.5t12 35.5t5.5 31t-4 21.5t-14.5 15t-28 4.5h-10l8 47h6q26 0 42 11.5t22 32.5
t8 49.5t0 62.5q-6 105 36.5 161t122.5 56h8z" />
    <glyph glyph-name="braceright.cap" horiz-adv-x="225" 
d="M113 769h5q80 0 104 -57.5t-17 -167.5l-16.5 -41.5t-12 -35t-6 -31t3.5 -21t14 -15t29 -4.5h10l-8 -47h-7q-26 0 -41.5 -11.5t-22 -32.5t-8 -50t0.5 -63q5 -104 -37.5 -160.5t-122.5 -56.5h-8l9 47h4q106 0 103 181q-2 30 -0.5 58t7 50.5t20 39t38.5 21.5q-27 8 -33 36
t1.5 59t25.5 81q34 88 26 131t-61 43h-8z" />
    <glyph glyph-name="bracketleft.cap" horiz-adv-x="243" 
d="M299 723h-102l-123 -701h102l-8 -47h-159l141 795h158z" />
    <glyph glyph-name="bracketright.cap" horiz-adv-x="247" 
d="M132 -25h-159l9 47h103l123 701h-103l9 47h158z" />
    <glyph glyph-name="parenleft.cap" horiz-adv-x="234" 
d="M248 767l46 -20q-144 -176 -183 -389q-37 -212 46 -382l-49 -16q-91 179 -51 406q21 116 72.5 220t118.5 181z" />
    <glyph glyph-name="parenright.cap" horiz-adv-x="232" 
d="M108 749l50 16q90 -181 50 -407q-38 -222 -191 -401l-47 21q147 177 184 388q37 210 -46 383z" />
    <glyph glyph-name="emdash.cap" horiz-adv-x="793" 
d="M767 350h-703l9 53h703z" />
    <glyph glyph-name="endash.cap" horiz-adv-x="561" 
d="M532 350h-471l9 53h471z" />
    <glyph glyph-name="hyphen.cap" horiz-adv-x="401" 
d="M373 350h-311l10 53h311z" />
    <glyph glyph-name="guillemotleft.cap" horiz-adv-x="505" 
d="M298 561l-199 -184l132 -181l-44 -27l-153 213l223 210zM535 561l-199 -184l132 -181l-44 -27l-153 213l223 210z" />
    <glyph glyph-name="guillemotright.cap" horiz-adv-x="505" 
d="M273 380l-222 -211l-41 31l199 185l-133 180l46 27zM510 380l-223 -211l-41 31l199 185l-133 180l46 27z" />
    <glyph glyph-name="guilsinglleft.cap" horiz-adv-x="291" 
d="M321 552l-215 -175l154 -174l-44 -34l-180 213l248 209z" />
    <glyph glyph-name="guilsinglright.cap" horiz-adv-x="291" 
d="M299 379l-248 -210l-37 40l215 174l-154 175l44 33z" />
    <glyph glyph-name="emdash_guilsinglright" horiz-adv-x="836" 
d="M801 258l-264 -222l-34 38l199 160h-661l9 47h666l-144 163l40 34z" />
    <glyph glyph-name="endash_guilsinglright" horiz-adv-x="579" 
d="M544 258l-264 -222l-34 38l199 160h-404l9 47h409l-144 163l40 34z" />
    <glyph glyph-name="guilsinglleft_emdash" horiz-adv-x="836" 
d="M335 440l-200 -160h660l-8 -47h-666l142 -163l-39 -34l-188 222l264 220z" />
    <glyph glyph-name="guilsinglleft_endash" horiz-adv-x="579" 
d="M335 440l-200 -160h403l-8 -47h-409l142 -163l-39 -34l-188 222l264 220z" />
    <glyph glyph-name="at.cap" horiz-adv-x="789" 
d="M457 727q157 0 244 -101.5t66 -256.5q-14 -92 -55.5 -144t-104.5 -52q-74 0 -79 61q-54 -64 -149 -64q-86 0 -132 57t-32 154q13 93 71.5 147.5t140.5 54.5q56 0 92.5 -22.5t50.5 -59.5l14 72h42l-53 -299q-11 -63 44 -63q41 0 70.5 42.5t41.5 123.5q19 138 -57.5 226
t-215.5 88t-239.5 -90.5t-120.5 -231.5q-19 -139 59.5 -226t216.5 -87q105 0 192 54l14 -35q-95 -57 -208 -57q-158 0 -245.5 101.5t-65.5 257.5q21 152 133.5 251t264.5 99zM384 209q64 0 106.5 38.5t55.5 114.5l4 26q12 75 -21 115t-97 40q-67 0 -114 -43t-58 -123
q-12 -79 23 -123.5t101 -44.5z" />
    <glyph glyph-name="acute.case" horiz-adv-x="285" 
d="M173 797h-56l182 135h81z" />
    <glyph glyph-name="breve.case" horiz-adv-x="334" 
d="M381 928h45q-10 -56 -52 -86.5t-104 -30.5q-67 0 -101.5 31.5t-24.5 85.5h46q-6 -36 16.5 -56.5t65.5 -20.5t72.5 21.5t36.5 55.5z" />
    <glyph glyph-name="caron.case" horiz-adv-x="338" 
d="M290 797h-51l-97 135h49l78 -98l115 98h51z" />
    <glyph glyph-name="circumflex.case" horiz-adv-x="338" 
d="M410 797h-48l-78 98l-115 -98h-52l145 135h52z" />
    <glyph glyph-name="dieresis.case" horiz-adv-x="254" 
d="M174 903q18 0 28 -12.5t7 -29.5q-3 -14 -14.5 -23.5t-25.5 -9.5q-18 0 -28 11.5t-7 29.5q3 14 14.5 24t25.5 10zM301 903q19 0 29 -12.5t6 -29.5q-3 -14 -14 -23.5t-25 -9.5q-18 0 -28.5 11.5t-7.5 29.5q3 14 15 24t25 10z" />
    <glyph glyph-name="dotaccent.case" horiz-adv-x="134" 
d="M177 902q20 0 31.5 -13.5t8.5 -33.5q-3 -16 -16.5 -27.5t-29.5 -11.5q-20 0 -31 14t-7 33q2 16 15.5 27.5t28.5 11.5z" />
    <glyph glyph-name="grave.case" horiz-adv-x="285" 
d="M358 797h-55l-159 135h79z" />
    <glyph glyph-name="hungarumlaut.case" horiz-adv-x="309" 
d="M163 800h-46l83 137h56zM317 800h-47l83 137h56z" />
    <glyph glyph-name="macron.case" horiz-adv-x="283" 
d="M369 846h-245l8 44h245z" />
    <glyph glyph-name="ring.case" 
d="M247 981q43 0 67.5 -27.5t16.5 -69.5q-7 -39 -37.5 -64t-69.5 -25q-43 0 -68 27.5t-17 69.5q7 39 38 64t70 25zM246 950q-28 0 -50 -17.5t-26 -44.5q-4 -26 11.5 -44t42.5 -18q29 0 50.5 17t25.5 45q4 26 -11.5 44t-42.5 18z" />
    <glyph glyph-name="tilde.case" horiz-adv-x="349" 
d="M219 925q21 0 39 -10t28 -22t25.5 -22t32.5 -10q27 0 44.5 15.5t22.5 41.5h33q-4 -42 -32 -71t-64 -29q-27 0 -48 16t-39.5 32t-39.5 16q-25 0 -43 -16.5t-23 -41.5h-33q4 43 32.5 72t64.5 29z" />
    <glyph glyph-name="anneau" horiz-adv-x="576" 
d="M364 758q110 0 174.5 -74t49.5 -181q-14 -104 -96.5 -175.5t-189.5 -71.5q-110 0 -175 74t-49 182q15 104 97.5 175t188.5 71zM366 735q-98 0 -174.5 -65.5t-89.5 -162.5q-14 -96 43.5 -162t154.5 -66t173.5 65.5t90.5 162.5q13 96 -44 162t-154 66z" />
    <glyph glyph-name="null" horiz-adv-x="600" 
 />
    </font>
</defs>
</svg>
